<svg width="28" height="28" viewBox="0 0 28 28" fill="none" xmlns="http://www.w3.org/2000/svg">
<g clip-path="url(#clip0_4590_8501)">
<path d="M27.1157 12.3572C27.1157 15.1703 25.2667 17.6329 22.7232 18.5462V15.2764C22.7232 15.0588 22.6368 14.8498 22.4831 14.6962L16.666 8.87961C16.5124 8.72594 16.3035 8.63953 16.0858 8.63953H7.73776C6.37877 8.63953 5.27682 9.74148 5.27682 11.1005V18.579C2.59877 17.6285 0.715333 14.8405 0.899083 11.9372C1.09815 8.78992 3.62197 6.15562 6.75994 5.82586C7.49166 2.45984 10.4902 0 14 0C17.5099 0 20.5084 2.45984 21.2401 5.82586C24.5378 6.17258 27.1157 8.9693 27.1157 12.3572Z" fill="#68570C"/>
<path d="M16.5665 17.2566C15.2097 17.2566 14.1056 16.1525 14.1056 14.7957V10.2802H7.73776C7.28494 10.2802 6.91744 10.6471 6.91744 11.1005V27.1797C6.91744 27.6325 7.28494 28 7.73776 28H20.2623C20.7151 28 21.0826 27.6325 21.0826 27.1797V17.2566H16.5665ZM17.4568 24.9375C15.1523 24.9375 12.8478 24.9375 10.5432 24.9375C10.0932 24.9375 9.72291 24.5672 9.72291 24.1172C9.72291 23.6672 10.0932 23.2969 10.5432 23.2969H17.4568C17.9068 23.2969 18.2771 23.6672 18.2771 24.1172C18.2771 24.5672 17.9068 24.9375 17.4568 24.9375ZM17.4568 21.6562C15.1523 21.6562 12.8478 21.6562 10.5432 21.6562C10.0932 21.6562 9.72291 21.286 9.72291 20.8359C9.72291 20.3859 10.0932 20.0156 10.5432 20.0156H17.4568C17.9068 20.0156 18.2771 20.3859 18.2771 20.8359C18.2771 21.286 17.9068 21.6562 17.4568 21.6562Z" fill="#68570C"/>
<path d="M21.0826 15.616H16.5665C16.1135 15.616 15.7462 15.2487 15.7462 14.7957V10.2802L21.0826 15.616Z" fill="#68570C"/>
</g>
<defs>
<clipPath id="clip0_4590_8501">
<rect width="28" height="28" fill="white"/>
</clipPath>
</defs>
</svg>
