<svg width="28" height="28" viewBox="0 0 28 28" fill="none" xmlns="http://www.w3.org/2000/svg">
<path d="M10.7188 27.125H7.4375C6.98409 27.125 6.61719 26.7581 6.61719 26.3047V22.2031H5.79688C5.49407 22.2031 5.21609 22.0365 5.07347 21.7697C4.93084 21.503 4.94692 21.1793 5.11432 20.9278L8.39557 16.0059C8.69996 15.5492 9.45623 15.5492 9.76062 16.0059L13.0419 20.9278C13.2093 21.1793 13.2253 21.503 13.0827 21.7697C12.9402 22.0365 12.6622 22.2031 12.3594 22.2031H11.5391V26.3047C11.5391 26.7581 11.1722 27.125 10.7188 27.125Z" fill="#68570C"/>
<path d="M22.2031 20.5625H21.3828V18.9219H16.4609V20.5625H15.6406C15.3378 20.5625 15.0598 20.7291 14.9172 20.9959C14.7746 21.2627 14.7907 21.5863 14.9581 21.8379L18.2393 26.7597C18.3915 26.9881 18.6479 27.1251 18.9218 27.1251C19.1957 27.1251 19.4521 26.9881 19.6043 26.7597L22.8856 21.8379C23.053 21.5863 23.069 21.2627 22.9264 20.9959C22.7838 20.7291 22.5059 20.5625 22.2031 20.5625Z" fill="#68570C"/>
<path d="M24.6632 9.17186C24.7441 6.0177 21.7452 3.50733 18.563 4.30128C17.2116 2.17115 14.8932 0.875 12.3594 0.875C9.22474 0.875 6.45378 2.87448 5.41718 5.80891C2.42752 6.00518 0 8.50052 0 11.5391C0 14.6333 2.52055 17.1472 5.58759 17.2601L7.03052 15.0959C7.4783 14.4238 8.24414 14.0232 9.07807 14.0232C9.912 14.0232 10.6778 14.4238 11.1256 15.0959L12.5826 17.2812H23.8438C26.1052 17.2812 28 15.4412 28 13.1797C28 11.2178 26.5602 9.57239 24.6632 9.17186Z" fill="#68570C"/>
</svg>
