<svg width="28" height="28" viewBox="0 0 28 28" fill="none" xmlns="http://www.w3.org/2000/svg">
<path d="M21.8755 17.2816C22.8405 17.2851 23.7765 16.952 24.5223 16.3397C25.2681 15.7273 25.7771 14.8741 25.9616 13.9269C26.1461 12.9797 25.9945 11.9978 25.5329 11.1504C25.0714 10.3029 24.3288 9.64293 23.433 9.28406C23.3777 8.2413 22.9513 7.25269 22.2308 6.49687C21.5103 5.74105 20.5432 5.26786 19.5042 5.16281C18.9506 4.19153 18.1498 3.38405 17.1832 2.82238C16.2165 2.2607 15.1185 1.96484 14.0005 1.96484C12.8825 1.96484 11.7844 2.2607 10.8178 2.82238C9.85114 3.38405 9.05035 4.19153 8.49673 5.16281C7.4578 5.26786 6.49071 5.74105 5.77019 6.49687C5.04967 7.25269 4.62325 8.2413 4.56798 9.28406C3.6722 9.64293 2.9296 10.3029 2.46805 11.1504C2.00651 11.9978 1.85491 12.9797 2.03938 13.9269C2.22384 14.8741 2.73282 15.7273 3.47866 16.3397C4.22449 16.952 5.1605 17.2851 6.12548 17.2816H9.84423V20.1253C9.84423 20.1833 9.82119 20.239 9.78016 20.28C9.73914 20.321 9.6835 20.3441 9.62548 20.3441H7.75298C7.59818 19.9062 7.29356 19.5372 6.89298 19.3022C6.4924 19.0672 6.02164 18.9814 5.56391 19.0599C5.10618 19.1385 4.69094 19.3763 4.3916 19.7313C4.09226 20.0864 3.92808 20.5359 3.92808 21.0003C3.92808 21.4647 4.09226 21.9142 4.3916 22.2693C4.69094 22.6244 5.10618 22.8622 5.56391 22.9407C6.02164 23.0192 6.4924 22.9334 6.89298 22.6984C7.29356 22.4635 7.59818 22.0944 7.75298 21.6566H9.62548C10.0309 21.6543 10.419 21.4922 10.7057 21.2055C10.9924 20.9189 11.1544 20.5307 11.1567 20.1253V17.2816H13.3442V22.2166C12.9064 22.3714 12.5373 22.676 12.3023 23.0766C12.0674 23.4771 11.9816 23.9479 12.0601 24.4056C12.1386 24.8634 12.3764 25.2786 12.7315 25.5779C13.0866 25.8773 13.5361 26.0415 14.0005 26.0415C14.4649 26.0415 14.9144 25.8773 15.2694 25.5779C15.6245 25.2786 15.8623 24.8634 15.9409 24.4056C16.0194 23.9479 15.9336 23.4771 15.6986 23.0766C15.4636 22.676 15.0946 22.3714 14.6567 22.2166V17.2816H16.8442V20.1253C16.8465 20.5307 17.0086 20.9189 17.2953 21.2055C17.5819 21.4922 17.9701 21.6543 18.3755 21.6566H20.248C20.4028 22.0944 20.7074 22.4635 21.108 22.6984C21.5086 22.9334 21.9793 23.0192 22.4371 22.9407C22.8948 22.8622 23.31 22.6244 23.6094 22.2693C23.9087 21.9142 24.0729 21.4647 24.0729 21.0003C24.0729 20.5359 23.9087 20.0864 23.6094 19.7313C23.31 19.3763 22.8948 19.1385 22.4371 19.0599C21.9793 18.9814 21.5086 19.0672 21.108 19.3022C20.7074 19.5372 20.4028 19.9062 20.248 20.3441H18.3755C18.3175 20.3441 18.2618 20.321 18.2208 20.28C18.1798 20.239 18.1567 20.1833 18.1567 20.1253V17.2816H21.8755Z" fill="#68570C"/>
</svg>
