<svg width="28" height="28" viewBox="0 0 28 28" fill="none" xmlns="http://www.w3.org/2000/svg">
<path d="M21 2.33203H7C5.06333 2.33203 3.5 3.8837 3.5 5.79703V18.5254C3.5 20.4387 5.06333 21.9904 7 21.9904H7.88667C8.82 21.9904 9.70667 22.352 10.36 23.0054L12.355 24.977C13.265 25.8754 14.7467 25.8754 15.6567 24.977L17.6517 23.0054C18.305 22.352 19.2033 21.9904 20.125 21.9904H21C22.9367 21.9904 24.5 20.4387 24.5 18.5254V5.79703C24.5 3.8837 22.9367 2.33203 21 2.33203ZM14 6.70703C15.505 6.70703 16.7183 7.92036 16.7183 9.42536C16.7183 10.9304 15.505 12.1437 14 12.1437C12.495 12.1437 11.2817 10.9187 11.2817 9.42536C11.2817 7.92036 12.495 6.70703 14 6.70703ZM17.1267 17.5687H10.8733C9.92833 17.5687 9.38 16.5187 9.905 15.737C10.6983 14.5587 12.2383 13.7654 14 13.7654C15.7617 13.7654 17.3017 14.5587 18.095 15.737C18.62 16.5187 18.06 17.5687 17.1267 17.5687Z" fill="#68570C"/>
</svg>
