<svg width="28" height="28" viewBox="0 0 28 28" fill="none" xmlns="http://www.w3.org/2000/svg">
<path d="M26.3922 9.43644C25.4949 8.31366 24.275 7.47658 22.9161 7.04203C22.469 5.15083 21.4196 3.43524 19.9245 2.1677C18.2756 0.769837 16.1756 0 14.011 0H13.9838C11.8193 0 9.71919 0.769837 8.07028 2.1677C6.57516 3.43524 5.52575 5.15078 5.07868 7.04203C3.71974 7.47658 2.49982 8.31366 1.6026 9.43644C0.577902 10.7187 0.0136719 12.3306 0.0136719 13.975C0.0136719 14.0293 0.0142732 14.0834 0.0154759 14.1375C0.0896606 17.507 2.5359 20.2693 5.72179 20.9297L5.7219 13.2865C5.7219 12.349 6.13629 10.6228 8.91146 9.59459C10.2885 9.08443 12.0947 8.80343 13.9974 8.80343C15.9001 8.80343 17.7063 9.08443 19.0834 9.59459C21.8585 10.6228 22.2729 12.349 22.2729 13.2865L22.2731 20.9297C25.459 20.2692 27.9052 17.507 27.9794 14.1375C27.9806 14.0834 27.9812 14.0293 27.9812 13.975C27.9811 12.3306 27.4169 10.7187 26.3922 9.43644Z" fill="#68570C"/>
<path d="M7.36189 16.7414C7.47446 16.9521 7.92295 17.3477 8.9739 17.7133C10.3033 18.1757 12.0874 18.4304 13.9974 18.4304C15.9075 18.4304 17.6915 18.1757 19.0209 17.7133C20.0719 17.3477 20.5204 16.9521 20.6329 16.7414L20.6329 14.027C20.3297 14.1866 19.975 14.3406 19.5598 14.485C18.0616 15.0062 16.0862 15.2933 13.9974 15.2933C11.9086 15.2933 9.93327 15.0062 8.43503 14.485C8.01977 14.3406 7.66508 14.1867 7.36195 14.027L7.36189 16.7414Z" fill="#68570C"/>
<path d="M7.36178 21.5184C7.47418 21.7291 7.92263 22.1249 8.9739 22.4905C10.3033 22.953 12.0874 23.2077 13.9974 23.2077C15.9075 23.2077 17.6915 22.953 19.0209 22.4905C20.0721 22.1249 20.5206 21.7291 20.633 21.5184L20.633 18.8042C20.3298 18.9639 19.9751 19.1178 19.5598 19.2623C18.0616 19.7835 16.0862 20.0705 13.9974 20.0705C11.9086 20.0705 9.93327 19.7835 8.43503 19.2623C8.01972 19.1178 7.66503 18.9639 7.36184 18.8042L7.36178 21.5184Z" fill="#68570C"/>
<path d="M13.9974 13.6532C15.9074 13.6532 17.6914 13.3985 19.0209 12.9361C19.6356 12.7222 20.044 12.4981 20.2999 12.3067C19.3626 11.0334 16.5993 10.4436 13.9974 10.4436C11.3954 10.4436 8.63211 11.0334 7.69482 12.3067C7.95067 12.4981 8.3591 12.7223 8.97384 12.9361C10.3033 13.3985 12.0873 13.6532 13.9974 13.6532Z" fill="#68570C"/>
<path d="M19.5597 24.0396C18.0616 24.5608 16.0861 24.8478 13.9974 24.8478C11.9086 24.8478 9.93321 24.5608 8.43498 24.0396C8.01961 23.8951 7.66492 23.7411 7.36173 23.5814L7.36168 25.157C7.36168 25.1657 7.36184 25.1744 7.36211 25.1832C7.39256 27.1184 10.8157 28.0001 13.9974 28.0001C17.1789 28.0001 20.6021 27.1184 20.6326 25.1832C20.6329 25.1745 20.633 25.1658 20.633 25.157L20.633 23.5815C20.3298 23.7411 19.9751 23.8951 19.5597 24.0396Z" fill="#68570C"/>
</svg>
