<svg width="28" height="28" viewBox="0 0 28 28" fill="none" xmlns="http://www.w3.org/2000/svg">
<g clip-path="url(#clip0_4590_19843)">
<path d="M21.8584 6.48705C21.3909 4.93108 20.4598 3.53048 19.1918 2.49267C17.7327 1.29835 15.8888 0.640625 14 0.640625C12.1112 0.640625 10.2673 1.29835 8.80813 2.49273C7.54015 3.53053 6.60904 4.93113 6.14157 6.4871C2.71835 6.70476 0 9.55901 0 13.0362C0 16.4146 2.56616 19.2045 5.85156 19.56V14.708C5.85156 13.6669 6.51115 12.7344 7.49273 12.3876L13.1803 10.3784C13.4443 10.2852 13.7201 10.238 14 10.238C14.2799 10.238 14.5557 10.2852 14.8195 10.3784L20.5072 12.3876C21.4889 12.7345 22.1484 13.667 22.1484 14.708V19.56C25.4338 19.2045 28 16.4146 28 13.0362C28 9.55901 25.2816 6.70476 21.8584 6.48705Z" fill="#68570C"/>
<path d="M19.9607 13.9346L14.2732 11.9254C14.0965 11.863 13.9035 11.863 13.7268 11.9254L8.03928 13.9346C7.71143 14.0504 7.49219 14.3603 7.49219 14.7081V20.0907C7.49219 23.757 10.2448 26.8772 13.8949 27.3487C13.9298 27.3533 13.9649 27.3555 14 27.3555C14.0351 27.3555 14.0702 27.3533 14.1051 27.3487C17.7552 26.8772 20.5078 23.7569 20.5078 20.0907V14.7081C20.5078 14.3603 20.2886 14.0504 19.9607 13.9346ZM16.3509 19.2142L14.0429 21.5111C13.8829 21.6704 13.6735 21.75 13.4642 21.75C13.2549 21.75 13.0456 21.6704 12.8856 21.5111L11.6491 20.2807C11.328 19.9611 11.3268 19.4417 11.6464 19.1206C11.966 18.7994 12.4854 18.7982 12.8064 19.1178L13.4642 19.7724L15.1936 18.0514C15.5146 17.7318 16.034 17.733 16.3536 18.0542C16.6732 18.3753 16.672 18.8947 16.3509 19.2142Z" fill="#68570C"/>
</g>
<defs>
<clipPath id="clip0_4590_19843">
<rect width="28" height="28" fill="white"/>
</clipPath>
</defs>
</svg>
