<svg width="422" height="236" viewBox="0 0 422 236" fill="none" xmlns="http://www.w3.org/2000/svg">
<g clip-path="url(#clip0_145_13006)">
<g clip-path="url(#clip1_145_13006)">
<path fill-rule="evenodd" clip-rule="evenodd" d="M116.264 173.913L69.9814 179.471C63.844 180.208 57.6653 178.476 52.8043 174.658C47.9434 170.839 44.7984 165.246 44.0611 159.109L38.5033 112.826C37.7666 106.688 39.4979 100.51 43.3166 95.6488C47.1352 90.7879 52.7283 87.6429 58.8657 86.9056L105.148 81.3478C111.286 80.6108 117.465 82.342 122.326 86.1607C127.187 89.9794 130.332 95.5727 131.069 101.71L136.626 147.993C137.363 154.13 135.632 160.309 131.813 165.17C127.995 170.031 122.401 173.176 116.264 173.913Z" fill="#C8A81F"/>
<path fill-rule="evenodd" clip-rule="evenodd" d="M82.2406 110.508L108.275 107.382C111.612 106.981 114.667 105.314 116.811 102.725C118.954 100.136 120.021 96.8222 119.791 93.469C119.562 90.1158 118.054 86.9787 115.578 84.7057C113.102 82.4326 109.848 81.1972 106.487 81.2545C106.041 81.2831 105.598 81.2938 105.148 81.3478L58.8657 86.9056C52.7283 87.6429 47.1352 90.7879 43.3166 95.6488C39.4979 100.51 37.7666 106.688 38.5033 112.826L44.0611 159.109C42.6795 147.601 45.9257 136.016 53.0857 126.901C60.2457 117.787 70.733 111.89 82.2406 110.508Z" fill="url(#paint0_linear_145_13006)"/>
<path fill-rule="evenodd" clip-rule="evenodd" d="M110.706 127.63C106.129 128.18 101.818 130.075 98.3181 133.074C94.8179 136.074 92.2858 140.045 91.0421 144.483C89.7983 148.922 89.8988 153.63 91.3308 158.012C92.7628 162.394 95.4619 166.252 99.0869 169.1C102.712 171.948 107.1 173.657 111.696 174.011C116.292 174.364 120.89 173.347 124.909 171.088C128.927 168.829 132.185 165.429 134.271 161.318C136.356 157.207 137.176 152.57 136.627 147.993L131.069 101.71C131.806 107.848 130.075 114.027 126.256 118.888C122.437 123.749 116.844 126.893 110.706 127.63Z" fill="url(#paint1_linear_145_13006)"/>
<path fill-rule="evenodd" clip-rule="evenodd" d="M107.814 127.978L67.3164 132.841L69.748 153.089C69.7935 153.469 69.9134 153.837 70.1009 154.17C70.2884 154.504 70.5397 154.797 70.8406 155.033C71.1415 155.27 71.486 155.445 71.8545 155.548C72.2229 155.651 72.6081 155.681 72.988 155.635L107.7 151.466C108.08 151.421 108.447 151.301 108.781 151.113C109.114 150.926 109.408 150.675 109.644 150.374C109.88 150.073 110.055 149.728 110.158 149.36C110.261 148.991 110.291 148.606 110.245 148.226L107.814 127.978Z" fill="white"/>
<path fill-rule="evenodd" clip-rule="evenodd" d="M64.9449 137.527C64.8067 136.377 64.217 135.328 63.3056 134.612C62.3942 133.896 61.2356 133.571 60.0848 133.709C58.9341 133.848 57.8853 134.437 57.1693 135.349C56.4533 136.26 56.1287 137.419 56.2669 138.569L58.0037 153.033C58.1419 154.184 58.7316 155.232 59.643 155.948C60.5545 156.664 61.713 156.989 62.8638 156.851C64.0145 156.713 65.0633 156.123 65.7793 155.211C66.4953 154.3 66.8199 153.141 66.6817 151.991L64.9449 137.527Z" fill="white"/>
<path fill-rule="evenodd" clip-rule="evenodd" d="M119.905 130.927C119.767 129.776 119.177 128.728 118.266 128.012C117.355 127.296 116.196 126.971 115.045 127.109C113.895 127.248 112.846 127.837 112.13 128.749C111.414 129.66 111.089 130.819 111.227 131.969L112.964 146.433C113.102 147.583 113.692 148.632 114.603 149.348C115.515 150.064 116.673 150.389 117.824 150.251C118.975 150.112 120.024 149.523 120.74 148.611C121.456 147.7 121.78 146.541 121.642 145.391L119.905 130.927Z" fill="white"/>
<path fill-rule="evenodd" clip-rule="evenodd" d="M66.9691 129.948L107.466 125.085C107.097 122.029 106.042 119.095 104.38 116.504C102.717 113.913 100.49 111.732 97.8656 110.122L101.514 101.591C101.663 101.237 101.666 100.837 101.521 100.481C101.377 100.124 101.097 99.8393 100.744 99.6881C100.39 99.5368 99.9909 99.5316 99.6334 99.6736C99.2758 99.8155 98.989 100.093 98.8354 100.446L95.2718 108.78C91.9706 107.362 88.3533 106.84 84.7858 107.268C81.2183 107.696 77.827 109.058 74.9548 111.217L69.5211 103.966C69.2884 103.66 68.944 103.458 68.563 103.405C68.182 103.351 67.7955 103.451 67.4876 103.682C67.1798 103.912 66.9757 104.255 66.9199 104.636C66.8641 105.017 66.9611 105.404 67.1898 105.713L72.7544 113.138C70.5814 115.32 68.9317 117.966 67.9296 120.878C66.9275 123.79 66.5991 126.891 66.9691 129.948ZM95.4031 116.263C95.8322 116.212 96.2669 116.289 96.6523 116.484C97.0377 116.68 97.3565 116.985 97.5683 117.362C97.7801 117.739 97.8754 118.17 97.8423 118.601C97.8091 119.032 97.6489 119.443 97.3819 119.783C97.1149 120.123 96.7532 120.376 96.3424 120.51C95.9316 120.644 95.4902 120.654 95.0741 120.537C94.6579 120.42 94.2857 120.183 94.0045 119.855C93.7233 119.527 93.5456 119.123 93.4941 118.693C93.4252 118.118 93.5876 117.539 93.9456 117.083C94.3035 116.628 94.8278 116.333 95.4031 116.263ZM76.6008 118.521C77.0299 118.47 77.4646 118.547 77.85 118.742C78.2354 118.938 78.5541 119.243 78.7659 119.62C78.9778 119.997 79.0731 120.428 79.0399 120.859C79.0068 121.289 78.8466 121.701 78.5796 122.041C78.3126 122.381 77.9508 122.634 77.5401 122.768C77.1293 122.902 76.6879 122.911 76.2718 122.795C75.8556 122.678 75.4834 122.441 75.2022 122.113C74.9209 121.785 74.7433 121.38 74.6918 120.951C74.6229 120.376 74.7853 119.797 75.1432 119.341C75.5012 118.886 76.0255 118.591 76.6008 118.521Z" fill="white"/>
</g>
<g clip-path="url(#clip2_145_13006)">
<path fill-rule="evenodd" clip-rule="evenodd" d="M225.161 168.943L178.547 168.76C172.365 168.735 166.447 166.256 162.093 161.868C157.739 157.48 155.307 151.542 155.331 145.361L155.514 98.7459C155.539 92.5645 158.018 86.6459 162.406 82.2922C166.794 77.9385 172.732 75.5061 178.913 75.5302L225.528 75.7135C231.71 75.7378 237.628 78.2167 241.982 82.6049C246.336 86.9931 248.768 92.9311 248.744 99.1126L248.561 145.727C248.536 151.909 246.057 157.828 241.669 162.181C237.281 166.535 231.343 168.967 225.161 168.943Z" fill="#01579B"/>
<path fill-rule="evenodd" clip-rule="evenodd" d="M199.204 101.831L225.425 101.934C228.786 101.947 232.024 100.669 234.469 98.3636C236.915 96.0581 238.382 92.9015 238.567 89.5455C238.752 86.1896 237.642 82.8906 235.465 80.33C233.287 77.7694 230.21 76.1427 226.868 75.7858C226.422 75.7593 225.981 75.7153 225.528 75.7135L178.913 75.5302C172.732 75.5061 166.794 77.9385 162.406 82.2922C158.018 86.6459 155.539 92.5645 155.514 98.7459L155.331 145.361C155.377 133.77 160.025 122.673 168.253 114.51C176.48 106.346 187.614 101.786 199.204 101.831Z" fill="url(#paint2_linear_145_13006)"/>
<path fill-rule="evenodd" clip-rule="evenodd" d="M225.345 122.328C220.735 122.31 216.223 123.659 212.381 126.205C208.538 128.751 205.536 132.38 203.755 136.632C201.974 140.884 201.494 145.568 202.376 150.093C203.257 154.618 205.461 158.779 208.708 162.052C211.954 165.324 216.099 167.56 220.616 168.477C225.134 169.394 229.822 168.951 234.088 167.204C238.354 165.457 242.006 162.484 244.582 158.661C247.158 154.838 248.542 150.337 248.561 145.727L248.744 99.1125C248.72 105.294 246.241 111.213 241.853 115.567C237.464 119.92 231.526 122.353 225.345 122.328Z" fill="url(#paint3_linear_145_13006)"/>
<path fill-rule="evenodd" clip-rule="evenodd" d="M225.345 122.328C220.735 122.31 216.223 123.659 212.381 126.205C208.538 128.751 205.536 132.38 203.755 136.632C201.974 140.884 201.494 145.568 202.376 150.093C203.257 154.618 205.461 158.779 208.708 162.052C211.954 165.324 216.099 167.56 220.616 168.477C225.134 169.394 229.822 168.951 234.088 167.204C238.354 165.457 242.006 162.484 244.582 158.661C247.158 154.838 248.542 150.337 248.561 145.727L248.744 99.1125C248.72 105.294 246.241 111.213 241.853 115.567C237.464 119.92 231.526 122.353 225.345 122.328Z" fill="url(#paint4_linear_145_13006)"/>
<path d="M204.113 98.2376L179.544 122.614L186.857 129.985L218.797 98.2954L204.113 98.2376Z" fill="white"/>
<path d="M218.71 120.321L205.197 133.728L197.884 126.357L204.026 120.263L218.71 120.321Z" fill="white"/>
<path d="M197.883 126.358L190.513 133.67L197.826 141.041L205.196 133.728L197.883 126.358Z" fill="white"/>
<path d="M218.604 147.241L203.92 147.183L197.826 141.041L205.197 133.728L218.604 147.241Z" fill="white"/>
<path d="M197.826 141.041L208.853 137.413L205.197 133.728L197.826 141.041Z" fill="#084994"/>
</g>
<g clip-path="url(#clip3_145_13006)">
<path fill-rule="evenodd" clip-rule="evenodd" d="M333.996 177.441L287.746 171.624C281.612 170.852 276.037 167.676 272.246 162.793C268.454 157.911 266.758 151.723 267.529 145.59L273.347 99.339C274.118 93.2059 277.295 87.6305 282.177 83.8392C287.059 80.0479 293.248 78.3512 299.381 79.1224L345.631 84.94C351.765 85.7115 357.34 88.8878 361.132 93.7701C364.923 98.6525 366.619 104.841 365.848 110.974L360.03 157.225C359.259 163.358 356.083 168.934 351.2 172.725C346.318 176.516 340.129 178.213 333.996 177.441Z" fill="#BE421B"/>
<path fill-rule="evenodd" clip-rule="evenodd" d="M316.343 107.684L342.359 110.956C345.694 111.375 349.062 110.498 351.769 108.505C354.475 106.512 356.313 103.556 356.903 100.247C357.492 96.938 356.789 93.529 354.937 90.724C353.085 87.919 350.227 85.9321 346.953 85.1738C346.514 85.0936 346.081 84.9966 345.631 84.94L299.381 79.1224C293.248 78.3512 287.059 80.0479 282.177 83.8392C277.295 87.6305 274.118 93.2059 273.347 99.339L267.529 145.59C268.976 134.09 274.931 123.636 284.086 116.527C293.24 109.419 304.843 106.237 316.343 107.684Z" fill="url(#paint5_linear_145_13006)"/>
<path fill-rule="evenodd" clip-rule="evenodd" d="M339.814 131.191C335.24 130.615 330.598 131.409 326.476 133.472C322.353 135.535 318.935 138.773 316.653 142.779C314.371 146.784 313.328 151.377 313.656 155.975C313.984 160.573 315.669 164.97 318.496 168.611C321.323 172.252 325.167 174.973 329.54 176.43C333.914 177.886 338.621 178.013 343.067 176.794C347.513 175.575 351.498 173.066 354.517 169.582C357.536 166.099 359.455 161.799 360.03 157.225L365.848 110.974C365.076 117.107 361.9 122.683 357.018 126.474C352.135 130.266 345.947 131.962 339.814 131.191Z" fill="url(#paint6_linear_145_13006)"/>
<path fill-rule="evenodd" clip-rule="evenodd" d="M339.814 131.191C335.24 130.615 330.598 131.409 326.476 133.472C322.353 135.535 318.935 138.773 316.653 142.779C314.371 146.784 313.328 151.377 313.656 155.975C313.984 160.573 315.669 164.97 318.496 168.611C321.323 172.252 325.167 174.973 329.54 176.43C333.914 177.886 338.621 178.013 343.067 176.794C347.513 175.575 351.498 173.066 354.517 169.582C357.536 166.099 359.455 161.799 360.03 157.225L365.848 110.974C365.076 117.107 361.9 122.683 357.018 126.474C352.135 130.266 345.947 131.962 339.814 131.191Z" fill="url(#paint7_linear_145_13006)"/>
<g clip-path="url(#clip4_145_13006)">
<path d="M324.915 105.825C346.55 124.299 336.758 140.377 336.758 140.377C336.758 140.377 342.539 148.524 339.042 154.585C339.042 154.585 336.824 149.765 332.21 149.185C327.751 148.624 324.55 152.762 315.547 151.63C295.522 149.111 288.063 131.749 288.063 131.749C304.663 145.515 318.017 138.919 318.017 138.919C310.442 133.342 295.902 109.368 295.902 109.368C309.409 123.655 315.501 127.727 315.501 127.727C311.98 124.143 302.992 107.619 302.992 107.619C310.639 117.235 326.473 131.295 326.473 131.295C333.094 118.791 324.915 105.825 324.915 105.825Z" fill="white"/>
</g>
</g>
<g clip-path="url(#clip5_145_13006)">
<path fill-rule="evenodd" clip-rule="evenodd" d="M440.304 199.514L395.259 187.517C389.286 185.926 384.189 182.027 381.09 176.679C377.992 171.33 377.144 164.97 378.735 158.996L390.731 113.951C392.322 107.978 396.221 102.881 401.57 99.7826C406.918 96.6838 413.279 95.8364 419.252 97.427L464.297 109.423C470.27 111.014 475.367 114.913 478.466 120.262C481.565 125.61 482.412 131.971 480.821 137.944L468.825 182.989C467.234 188.963 463.335 194.059 457.987 197.158C452.638 200.257 446.277 201.104 440.304 199.514Z" fill="#C8A81F"/>
<path fill-rule="evenodd" clip-rule="evenodd" d="M432.211 128.013L457.549 134.761C460.797 135.626 464.253 135.211 467.203 133.601C470.154 131.99 472.373 129.309 473.403 126.11C474.433 122.91 474.195 119.437 472.738 116.409C471.282 113.38 468.717 111.026 465.575 109.833C465.151 109.694 464.735 109.54 464.297 109.423L419.252 97.427C413.279 95.8364 406.918 96.6838 401.57 99.7826C396.221 102.881 392.322 107.978 390.731 113.951L378.735 158.996C381.718 147.796 389.028 138.24 399.056 132.43C409.085 126.619 421.011 125.031 432.211 128.013Z" fill="url(#paint8_linear_145_13006)"/>
<path fill-rule="evenodd" clip-rule="evenodd" d="M452.301 154.469C447.846 153.282 443.14 153.443 438.777 154.932C434.414 156.42 430.59 159.169 427.79 162.83C424.989 166.492 423.337 170.902 423.042 175.502C422.748 180.102 423.824 184.687 426.135 188.675C428.446 192.664 431.888 195.878 436.025 197.911C440.163 199.943 444.81 200.703 449.38 200.095C453.949 199.486 458.236 197.536 461.697 194.491C465.158 191.447 467.639 187.444 468.825 182.989L480.821 137.944C479.231 143.918 475.332 149.014 469.983 152.113C464.635 155.212 458.274 156.059 452.301 154.469Z" fill="url(#paint9_linear_145_13006)"/>
<path fill-rule="evenodd" clip-rule="evenodd" d="M449.485 153.719L410.071 143.222L404.822 162.929C404.724 163.299 404.699 163.684 404.749 164.064C404.8 164.443 404.925 164.809 405.116 165.14C405.308 165.471 405.563 165.761 405.867 165.993C406.171 166.226 406.518 166.396 406.888 166.494L440.672 175.492C441.041 175.59 441.427 175.615 441.806 175.565C442.185 175.514 442.551 175.389 442.882 175.198C443.213 175.006 443.503 174.751 443.736 174.447C443.968 174.143 444.138 173.796 444.237 173.426L449.485 153.719Z" fill="white"/>
<path fill-rule="evenodd" clip-rule="evenodd" d="M406.131 146.695C406.429 145.575 406.27 144.382 405.689 143.379C405.108 142.377 404.153 141.646 403.033 141.347C401.913 141.049 400.72 141.208 399.717 141.789C398.714 142.37 397.983 143.326 397.685 144.446L393.936 158.522C393.638 159.642 393.797 160.835 394.378 161.838C394.959 162.841 395.914 163.572 397.034 163.87C398.154 164.168 399.347 164.009 400.35 163.428C401.353 162.847 402.084 161.892 402.382 160.772L406.131 146.695Z" fill="white"/>
<path fill-rule="evenodd" clip-rule="evenodd" d="M410.821 140.406L450.235 150.903C451.025 147.928 451.133 144.812 450.549 141.79C449.966 138.767 448.706 135.915 446.865 133.448L453.417 126.877C453.687 126.603 453.837 126.233 453.835 125.848C453.833 125.464 453.679 125.095 453.407 124.824C453.134 124.552 452.766 124.399 452.381 124.399C451.996 124.398 451.627 124.549 451.354 124.82L444.954 131.24C442.414 128.698 439.248 126.873 435.776 125.948C432.304 125.022 428.649 125.03 425.181 125.971L422.823 117.222C422.721 116.851 422.475 116.536 422.141 116.345C421.807 116.154 421.411 116.104 421.04 116.204C420.669 116.304 420.352 116.547 420.159 116.88C419.966 117.212 419.913 117.608 420.01 117.98L422.426 126.939C419.599 128.16 417.085 130.006 415.075 132.339C413.065 134.672 411.61 137.43 410.821 140.406ZM442.302 138.238C442.719 138.349 443.095 138.582 443.38 138.906C443.666 139.231 443.848 139.633 443.905 140.061C443.962 140.489 443.891 140.925 443.701 141.313C443.51 141.701 443.209 142.024 442.835 142.24C442.461 142.457 442.031 142.558 441.6 142.53C441.169 142.503 440.755 142.348 440.412 142.085C440.069 141.823 439.811 141.464 439.671 141.055C439.532 140.646 439.517 140.205 439.628 139.787C439.777 139.227 440.143 138.75 440.644 138.459C441.146 138.169 441.742 138.089 442.302 138.238ZM424.002 133.365C424.42 133.476 424.795 133.708 425.081 134.033C425.366 134.357 425.549 134.759 425.606 135.187C425.663 135.616 425.592 136.052 425.401 136.439C425.211 136.827 424.909 137.15 424.535 137.367C424.161 137.583 423.732 137.684 423.3 137.657C422.869 137.629 422.456 137.474 422.112 137.212C421.769 136.949 421.511 136.591 421.372 136.182C421.232 135.772 421.217 135.331 421.328 134.914C421.478 134.354 421.843 133.876 422.345 133.586C422.846 133.295 423.442 133.216 424.002 133.365Z" fill="white"/>
</g>
<g clip-path="url(#clip6_145_13006)">
<path fill-rule="evenodd" clip-rule="evenodd" d="M9.41827 192.25L-35.6934 203.994C-41.6756 205.551 -48.0313 204.668 -53.3624 201.539C-58.6935 198.41 -62.5635 193.292 -64.121 187.31L-75.8644 142.198C-77.4214 136.216 -76.5383 129.86 -73.4095 124.529C-70.2806 119.198 -65.1623 115.328 -59.1802 113.77L-14.0685 102.027C-8.08634 100.47 -1.73055 101.353 3.60065 104.482C8.93185 107.61 12.8018 112.729 14.359 118.711L26.1024 163.823C27.6597 169.805 26.7768 176.161 23.6479 181.492C20.519 186.823 15.4005 190.693 9.41827 192.25Z" fill="#BE421B"/>
<path fill-rule="evenodd" clip-rule="evenodd" d="M-32.8382 134.008L-7.46287 127.402C-4.21026 126.555 -1.40711 124.492 0.367686 121.637C2.14248 118.783 2.75338 115.356 2.07422 112.065C1.39506 108.773 -0.522289 105.868 -3.28186 103.949C-6.04144 102.03 -9.43249 101.245 -12.7547 101.754C-13.1923 101.843 -13.6301 101.913 -14.0685 102.027L-59.1802 113.77C-65.1623 115.328 -70.2806 119.198 -73.4095 124.529C-76.5383 129.86 -77.4214 136.216 -75.8644 142.198L-64.121 187.31C-67.0406 176.093 -65.385 164.176 -59.5184 154.18C-53.6517 144.184 -44.0546 136.928 -32.8382 134.008Z" fill="url(#paint10_linear_145_13006)"/>
<path fill-rule="evenodd" clip-rule="evenodd" d="M-2.32537 147.139C-6.78649 148.3 -10.8031 150.758 -13.8672 154.202C-16.9313 157.646 -18.9053 161.922 -19.5396 166.488C-20.1738 171.054 -19.4399 175.705 -17.4306 179.854C-15.4213 184.003 -12.2268 187.463 -8.25115 189.796C-4.27548 192.129 0.302813 193.231 4.90478 192.963C9.50675 192.694 13.9257 191.067 17.6028 188.286C21.28 185.506 24.0501 181.698 25.563 177.344C27.0758 172.989 27.2635 168.284 26.1022 163.823L14.3588 118.711C15.9161 124.693 15.0331 131.049 11.9043 136.38C8.77537 141.712 3.65682 145.581 -2.32537 147.139Z" fill="url(#paint11_linear_145_13006)"/>
<path fill-rule="evenodd" clip-rule="evenodd" d="M-2.32537 147.139C-6.78649 148.3 -10.8031 150.758 -13.8672 154.202C-16.9313 157.646 -18.9053 161.922 -19.5396 166.488C-20.1738 171.054 -19.4399 175.705 -17.4306 179.854C-15.4213 184.003 -12.2268 187.463 -8.25115 189.796C-4.27548 192.129 0.302813 193.231 4.90478 192.963C9.50675 192.694 13.9257 191.067 17.6028 188.286C21.28 185.506 24.0501 181.698 25.563 177.344C27.0758 172.989 27.2635 168.284 26.1022 163.823L14.3588 118.711C15.9161 124.693 15.0331 131.049 11.9043 136.38C8.77537 141.712 3.65682 145.581 -2.32537 147.139Z" fill="url(#paint12_linear_145_13006)"/>
<g clip-path="url(#clip7_145_13006)">
<path d="M-25.5658 129.104C1.37656 138.241 -1.75694 156.803 -1.75694 156.803C-1.75694 156.803 6.63221 162.227 5.63076 169.152C5.63076 169.152 1.78456 165.498 -2.71569 166.669C-7.06551 167.802 -8.5045 172.832 -17.2859 175.117C-36.8175 180.202 -50.1816 166.842 -50.1816 166.842C-29.6605 173.474 -19.7032 162.397 -19.7032 162.397C-28.8065 160.026 -51.1982 143.15 -51.1982 143.15C-33.3573 151.411 -26.1895 152.935 -26.1895 152.935C-30.7881 150.911 -45.2617 138.897 -45.2617 138.897C-34.595 144.993 -14.6765 152.181 -14.6765 152.181C-13.163 138.114 -25.5658 129.104 -25.5658 129.104Z" fill="white"/>
</g>
</g>
</g>
<defs>
<linearGradient id="paint0_linear_145_13006" x1="76.9449" y1="84.7346" x2="85.2817" y2="154.159" gradientUnits="userSpaceOnUse">
<stop stop-color="#FDD426"/>
<stop offset="1" stop-color="#C9A50C"/>
</linearGradient>
<linearGradient id="paint1_linear_145_13006" x1="107.927" y1="104.489" x2="116.264" y2="173.913" gradientUnits="userSpaceOnUse">
<stop stop-color="#FDD426"/>
<stop offset="1" stop-color="#FDD426" stop-opacity="0.65"/>
</linearGradient>
<linearGradient id="paint2_linear_145_13006" x1="197.122" y1="75.6018" x2="196.847" y2="145.524" gradientUnits="userSpaceOnUse">
<stop stop-color="#40C4FF"/>
<stop offset="1" stop-color="#01579B"/>
</linearGradient>
<linearGradient id="paint3_linear_145_13006" x1="225.437" y1="99.0209" x2="225.162" y2="168.943" gradientUnits="userSpaceOnUse">
<stop stop-color="#FDD426"/>
<stop offset="1" stop-color="#FDD426" stop-opacity="0.65"/>
</linearGradient>
<linearGradient id="paint4_linear_145_13006" x1="225.437" y1="99.0209" x2="225.162" y2="168.943" gradientUnits="userSpaceOnUse">
<stop stop-color="#40C4FF"/>
<stop offset="1" stop-color="#01579B"/>
</linearGradient>
<linearGradient id="paint5_linear_145_13006" x1="317.447" y1="81.3949" x2="308.721" y2="150.771" gradientUnits="userSpaceOnUse">
<stop stop-color="#FE835C"/>
<stop offset="1" stop-color="#FF5722"/>
</linearGradient>
<linearGradient id="paint6_linear_145_13006" x1="342.723" y1="108.065" x2="333.996" y2="177.441" gradientUnits="userSpaceOnUse">
<stop stop-color="#40C4FF"/>
<stop offset="1" stop-color="#01579B"/>
</linearGradient>
<linearGradient id="paint7_linear_145_13006" x1="342.723" y1="108.065" x2="333.996" y2="177.441" gradientUnits="userSpaceOnUse">
<stop stop-color="#FE835C"/>
<stop offset="1" stop-color="#FF5722"/>
</linearGradient>
<linearGradient id="paint8_linear_145_13006" x1="436.848" y1="102.113" x2="418.853" y2="169.681" gradientUnits="userSpaceOnUse">
<stop stop-color="#FDD426"/>
<stop offset="1" stop-color="#C9A50C"/>
</linearGradient>
<linearGradient id="paint9_linear_145_13006" x1="458.299" y1="131.946" x2="440.304" y2="199.514" gradientUnits="userSpaceOnUse">
<stop stop-color="#FDD426"/>
<stop offset="1" stop-color="#FDD426" stop-opacity="0.65"/>
</linearGradient>
<linearGradient id="paint10_linear_145_13006" x1="-41.5584" y1="109.183" x2="-23.9433" y2="176.851" gradientUnits="userSpaceOnUse">
<stop stop-color="#FE835C"/>
<stop offset="1" stop-color="#FF5722"/>
</linearGradient>
<linearGradient id="paint11_linear_145_13006" x1="-8.19707" y1="124.583" x2="9.41803" y2="192.25" gradientUnits="userSpaceOnUse">
<stop stop-color="#40C4FF"/>
<stop offset="1" stop-color="#01579B"/>
</linearGradient>
<linearGradient id="paint12_linear_145_13006" x1="-8.19707" y1="124.583" x2="9.41803" y2="192.25" gradientUnits="userSpaceOnUse">
<stop stop-color="#FE835C"/>
<stop offset="1" stop-color="#FF5722"/>
</linearGradient>
<clipPath id="clip0_145_13006">
<rect width="422.333" height="250.79" fill="white" transform="translate(-1 0.105225)"/>
</clipPath>
<clipPath id="clip1_145_13006">
<rect width="93.2303" height="93.2303" fill="white" transform="translate(35.7244 89.6846) rotate(-6.84757)"/>
</clipPath>
<clipPath id="clip2_145_13006">
<rect width="93.2303" height="93.2303" fill="white" transform="translate(155.606 75.4385) rotate(0.225358)"/>
</clipPath>
<clipPath id="clip3_145_13006">
<rect width="93.2303" height="93.2303" fill="white" transform="translate(276.255 76.2136) rotate(7.16925)"/>
</clipPath>
<clipPath id="clip4_145_13006">
<rect width="58.7351" height="58.7351" fill="white" transform="translate(290.695 95.8833) rotate(7.16925)"/>
</clipPath>
<clipPath id="clip5_145_13006">
<rect width="93.2303" height="93.2303" fill="white" transform="translate(396.729 91.4287) rotate(14.913)"/>
</clipPath>
<clipPath id="clip6_145_13006">
<rect width="93.2303" height="93.2303" fill="white" transform="translate(-81.7361 119.642) rotate(-14.5913)"/>
</clipPath>
<clipPath id="clip7_145_13006">
<rect width="58.7351" height="58.7351" fill="white" transform="translate(-61.0334 132.557) rotate(-14.5913)"/>
</clipPath>
</defs>
</svg>
