<svg width="723" height="877" viewBox="0 0 723 877" fill="none" xmlns="http://www.w3.org/2000/svg">
<g clip-path="url(#clip0_145_13941)">
<path fill-rule="evenodd" clip-rule="evenodd" d="M-828.5 36V-76H-914.5V-77H-828.5V-349L-827.5 -349V-77H-715.5V-349L-714.5 -349V-77H-602.5V-349L-601.5 -349V-77H-489.5V-349L-488.5 -349V-77H-376.5V-349L-375.5 -349V-77H-263.5V-349L-262.5 -349V-77H-150.5V-349L-149.5 -349V-77H-37.4999V-349L-36.4999 -349V-77H75.5001V-349L76.5001 -349V-77H188.5V-349L189.5 -349V-77H301.5V-349L302.5 -349V-77H414.5V-349L415.5 -349V-77H527.5L527.5 -349L528.5 -349L528.5 -77H640.5L640.5 -349L641.5 -349L641.5 -77H723.5V-76H641.5L641.5 36H723.5V37H641.5L641.5 149H723.5V150H641.5L641.5 262H723.5V263H641.5L641.5 375H723.5V376H641.5V488H723.5V489H641.5L641.5 601H723.5V602H641.5V714H723.5V715H641.5L641.5 827H723.5V828H641.5V940H723.5V941H641.5L641.5 1053H723.5V1054H641.5V1166H723.5V1167H641.5L641.5 1279H723.5V1280H641.5V1289H640.5V1280H528.5V1289H527.5V1280H415.5V1289H414.5V1280H302.5V1289H301.5V1280H189.5V1289H188.5V1280H76.5V1289H75.5V1280H-36.5V1289H-37.5V1280H-149.5V1289H-150.5V1280H-262.5V1289H-263.5V1280H-375.5V1289H-376.5V1280H-488.5V1289H-489.5V1280H-601.5V1289H-602.5V1280H-714.5V1289H-715.5V1280H-827.5V1289H-828.5V1280H-914.5V1279H-828.5L-828.5 1167H-914.5V1166H-828.5V1054H-914.5V1053H-828.5V941H-914.5V940H-828.5V828H-914.5V827H-828.5V715H-914.5V714H-828.5V602H-914.5V601H-828.5V489H-914.5V488H-828.5V376H-914.5V375H-828.5V263H-914.5V262H-828.5V150H-914.5V149H-828.5V37H-914.5V36H-828.5ZM528.5 1279H640.5L640.5 1167H528.5L528.5 1279ZM415.5 1279H527.5L527.5 1167H415.5L415.5 1279ZM302.5 1279H414.5L414.5 1167H302.5L302.5 1279ZM189.5 1279H301.5L301.5 1167H189.5L189.5 1279ZM76.5 1279H188.5L188.5 1167H76.5001L76.5 1279ZM-36.5 1279H75.5L75.5001 1167H-36.4999L-36.5 1279ZM-149.5 1279H-37.5L-37.4999 1167H-149.5L-149.5 1279ZM-262.5 1279H-150.5L-150.5 1167H-262.5L-262.5 1279ZM-375.5 1279H-263.5L-263.5 1167H-375.5L-375.5 1279ZM-488.5 1279H-376.5L-376.5 1167H-488.5L-488.5 1279ZM-601.5 1279H-489.5L-489.5 1167H-601.5L-601.5 1279ZM-714.5 1279H-602.5L-602.5 1167H-714.5L-714.5 1279ZM-827.5 1279H-715.5L-715.5 1167H-827.5L-827.5 1279ZM-827.5 1166V1054H-715.5V1166H-827.5ZM-714.5 1166V1054H-602.5V1166H-714.5ZM-601.5 1166V1054H-489.5V1166H-601.5ZM-488.5 1166V1054H-376.5V1166H-488.5ZM-375.5 1166V1054H-263.5V1166H-375.5ZM-262.5 1166V1054H-150.5V1166H-262.5ZM-149.5 1166V1054H-37.4999V1166H-149.5ZM-36.4999 1166V1054H75.5001V1166H-36.4999ZM76.5001 1166V1054H188.5V1166H76.5001ZM189.5 1166V1054H301.5V1166H189.5ZM302.5 1166V1054H414.5V1166H302.5ZM415.5 1166V1054H527.5V1166H415.5ZM528.5 1166V1054H640.5V1166H528.5ZM528.5 1053H640.5L640.5 941H528.5L528.5 1053ZM415.5 1053H527.5L527.5 941H415.5L415.5 1053ZM302.5 1053H414.5L414.5 941H302.5L302.5 1053ZM189.5 1053H301.5L301.5 941H189.5V1053ZM76.5001 1053H188.5V941H76.5001V1053ZM-36.4999 1053H75.5001V941H-36.4999V1053ZM-149.5 1053H-37.4999V941H-149.5V1053ZM-262.5 1053H-150.5V941H-262.5V1053ZM-375.5 1053H-263.5V941H-375.5V1053ZM-488.5 1053H-376.5V941H-488.5V1053ZM-601.5 1053H-489.5V941H-601.5V1053ZM-714.5 1053H-602.5V941H-714.5V1053ZM-827.5 1053H-715.5V941H-827.5V1053ZM-827.5 940V828H-715.5V940H-827.5ZM-714.5 940V828H-602.5V940H-714.5ZM-601.5 940V828H-489.5V940H-601.5ZM-488.5 940V828H-376.5V940H-488.5ZM-375.5 940V828H-263.5V940H-375.5ZM-262.5 940V828H-150.5V940H-262.5ZM-149.5 940V828H-37.4999V940H-149.5ZM-36.4999 940V828H75.5001V940H-36.4999ZM76.5001 940V828H188.5V940H76.5001ZM189.5 940V828H301.5V940H189.5ZM302.5 940V828H414.5V940H302.5ZM415.5 940V828H527.5V940H415.5ZM528.5 940V828H640.5V940H528.5ZM528.5 827H640.5L640.5 715H528.5L528.5 827ZM415.5 827H527.5L527.5 715H415.5V827ZM302.5 827H414.5V715H302.5V827ZM189.5 827H301.5V715H189.5V827ZM76.5001 827H188.5V715H76.5001V827ZM-36.4999 827H75.5001V715H-36.4999V827ZM-149.5 827H-37.4999V715H-149.5V827ZM-262.5 827H-150.5V715H-262.5V827ZM-375.5 827H-263.5V715H-375.5V827ZM-488.5 827H-376.5V715H-488.5V827ZM-601.5 827H-489.5V715H-601.5V827ZM-714.5 827H-602.5V715H-714.5V827ZM-827.5 827H-715.5V715H-827.5V827ZM-827.5 714V602H-715.5V714H-827.5ZM-714.5 714V602H-602.5V714H-714.5ZM-601.5 714V602H-489.5V714H-601.5ZM-488.5 714V602H-376.5V714H-488.5ZM-375.5 714V602H-263.5V714H-375.5ZM-262.5 714V602H-150.5V714H-262.5ZM-149.5 714V602H-37.4999V714H-149.5ZM-36.4999 714V602H75.5001V714H-36.4999ZM76.5001 714V602H188.5V714H76.5001ZM189.5 714V602H301.5V714H189.5ZM302.5 714V602H414.5V714H302.5ZM415.5 714V602H527.5V714H415.5ZM528.5 714V602H640.5V714H528.5ZM528.5 601H640.5L640.5 489H528.5L528.5 601ZM415.5 601H527.5L527.5 489H415.5V601ZM302.5 601H414.5V489H302.5V601ZM189.5 601H301.5V489H189.5V601ZM76.5001 601H188.5V489H76.5001V601ZM-36.4999 601H75.5001V489H-36.4999V601ZM-149.5 601H-37.4999V489H-149.5V601ZM-262.5 601H-150.5V489H-262.5V601ZM-375.5 601H-263.5V489H-375.5V601ZM-488.5 601H-376.5V489H-488.5V601ZM-601.5 601H-489.5V489H-601.5V601ZM-714.5 601H-602.5V489H-714.5V601ZM-827.5 601H-715.5V489H-827.5V601ZM-827.5 488V376H-715.5V488H-827.5ZM-714.5 488V376H-602.5V488H-714.5ZM-601.5 488V376H-489.5V488H-601.5ZM-488.5 488V376H-376.5V488H-488.5ZM-375.5 488V376H-263.5V488H-375.5ZM-262.5 488V376H-150.5V488H-262.5ZM-149.5 488V376H-37.4999V488H-149.5ZM-36.4999 488V376H75.5001V488H-36.4999ZM76.5001 488V376H188.5V488H76.5001ZM189.5 488V376H301.5V488H189.5ZM302.5 488V376H414.5V488H302.5ZM415.5 488V376H527.5V488H415.5ZM528.5 488V376H640.5V488H528.5ZM528.5 375H640.5L640.5 263H528.5V375ZM415.5 375H527.5V263H415.5V375ZM302.5 375H414.5V263H302.5V375ZM189.5 375H301.5V263H189.5V375ZM76.5001 375H188.5V263H76.5001V375ZM-36.4999 375H75.5001V263H-36.4999V375ZM-149.5 375H-37.4999V263H-149.5V375ZM-262.5 375H-150.5V263H-262.5V375ZM-375.5 375H-263.5V263H-375.5V375ZM-488.5 375H-376.5V263H-488.5V375ZM-601.5 375H-489.5V263H-601.5V375ZM-714.5 375H-602.5V263H-714.5V375ZM-827.5 375H-715.5V263H-827.5V375ZM-827.5 262V150H-715.5V262H-827.5ZM-714.5 262V150H-602.5V262H-714.5ZM-601.5 262V150H-489.5V262H-601.5ZM-488.5 262V150H-376.5V262H-488.5ZM-375.5 262V150H-263.5V262H-375.5ZM-262.5 262V150H-150.5V262H-262.5ZM-149.5 262V150H-37.4999V262H-149.5ZM-36.4999 262V150H75.5001V262H-36.4999ZM76.5001 262V150H188.5V262H76.5001ZM189.5 262V150H301.5V262H189.5ZM302.5 262V150H414.5V262H302.5ZM415.5 262V150H527.5V262H415.5ZM528.5 262V150H640.5L640.5 262H528.5ZM528.5 149H640.5L640.5 37H528.5V149ZM415.5 149H527.5V37H415.5V149ZM302.5 149H414.5V37H302.5V149ZM189.5 149H301.5V37H189.5V149ZM76.5001 149H188.5V37H76.5001V149ZM-36.4999 149H75.5001V37H-36.4999V149ZM-149.5 149H-37.4999V37H-149.5V149ZM-262.5 149H-150.5V37H-262.5V149ZM-375.5 149H-263.5V37H-375.5V149ZM-488.5 149H-376.5V37H-488.5V149ZM-601.5 149H-489.5V37H-601.5V149ZM-714.5 149H-602.5V37H-714.5V149ZM-827.5 149H-715.5V37H-827.5V149ZM-827.5 36V-76H-715.5V36H-827.5ZM-714.5 36V-76H-602.5V36H-714.5ZM-601.5 36V-76H-489.5V36H-601.5ZM-488.5 36V-76H-376.5V36H-488.5ZM-375.5 36V-76H-263.5V36H-375.5ZM-262.5 36V-76H-150.5V36H-262.5ZM-149.5 36V-76H-37.4999V36H-149.5ZM-36.4999 36V-76H75.5001V36H-36.4999ZM76.5001 36V-76H188.5V36H76.5001ZM189.5 36V-76H301.5V36H189.5ZM302.5 36V-76H414.5V36H302.5ZM415.5 36V-76H527.5V36H415.5ZM528.5 36V-76H640.5L640.5 36H528.5ZM723.5 1393H-914.5V1392H723.5V1393Z" fill="url(#paint0_radial_145_13941)"/>
</g>
<defs>
<radialGradient id="paint0_radial_145_13941" cx="0" cy="0" r="1" gradientUnits="userSpaceOnUse" gradientTransform="translate(658 192) rotate(126.91) scale(567.8 533.902)">
<stop stop-color="#FDD426" stop-opacity="0.12"/>
<stop offset="1" stop-color="#FDD426" stop-opacity="0"/>
</radialGradient>
<clipPath id="clip0_145_13941">
<rect width="722" height="877" fill="white" transform="matrix(-1 0 0 1 722.5 0)"/>
</clipPath>
</defs>
</svg>
