<svg width="176" height="156" viewBox="0 0 176 156" fill="none" xmlns="http://www.w3.org/2000/svg">
<path fill-rule="evenodd" clip-rule="evenodd" d="M150.113 33.1475C151.313 34.6727 152.45 35.4094 153.562 35.9851C152.713 17.6411 147.178 0.591584 138.19 -13.9603C137.444 -14.4857 136.619 -14.9267 135.758 -15.2871C133.049 -16.4217 130.893 -16.3321 129.083 -16.2569C127.148 -16.1764 125.609 -16.1125 124.213 -17.5797C122.827 -19.0432 122.848 -20.692 122.87 -22.406C122.893 -24.1573 122.916 -25.9768 121.44 -27.7364C120.272 -29.117 119.045 -29.4421 117.074 -29.9645C115.459 -30.3924 113.345 -30.9527 110.355 -32.3341C110.355 -32.3341 106.922 -33.9149 103.878 -36.014C99.4011 -39.133 97.6601 -42.4005 95.7776 -45.9334C94.2216 -48.8537 92.5689 -51.9553 89.1942 -55.3045C76.9862 -60.1528 63.6732 -62.6358 49.7765 -62.2229C31.7479 -61.6882 14.9767 -56.3433 0.584501 -47.4409C0.546927 -47.2985 0.51287 -47.1349 0.496277 -46.9717C0.0889642 -43.6347 3.68898 -40.5176 5.83501 -39.2639C6.43283 -38.9173 7.21611 -38.4743 8.35899 -38.2246C10.2173 -37.8049 11.526 -38.3457 12.6721 -38.8194C13.7289 -39.2561 14.6475 -39.6357 15.7312 -39.1524C17.4953 -38.3761 18.4079 -36.8437 19.1954 -35.5213C19.9489 -34.2561 20.5879 -33.183 21.7487 -33.1481C22.7107 -33.1363 23.3927 -33.8472 24.4691 -34.9691L24.5118 -35.0136C29.2526 -39.899 31.6339 -42.3417 33.2803 -42.8568C35.0387 -43.4226 36.2095 -42.6555 38.0113 -41.4752C39.4817 -40.5119 41.3723 -39.2733 44.3453 -38.2594C51.8291 -35.7364 59.1189 -37.0262 60.9535 -37.3508L60.9772 -37.355C62.2541 -37.5879 63.3937 -37.8724 64.5647 -38.1647C66.9259 -38.7542 69.4152 -39.3756 73.4176 -39.6708C76.5538 -39.9063 78.9273 -39.8347 80.3532 -38.2954C81.0773 -37.5152 81.1656 -36.778 81.2945 -35.702C81.3742 -35.0369 81.4693 -34.2424 81.7398 -33.2282L81.7426 -33.2182C81.9356 -32.531 83.4379 -27.1836 87.2781 -24.9173C89.3965 -23.6888 91.5148 -23.7979 93.2202 -23.8857C94.7533 -23.9647 95.9526 -24.0265 96.5181 -23.0836C97.0209 -22.2396 96.5679 -21.3345 96.0361 -20.2722C95.463 -19.1272 94.7984 -17.7995 95.141 -16.1689C96.0168 -11.9578 102.748 -9.92696 103.462 -9.72554C105.605 -9.0963 107.556 -9.02107 109.114 -8.96096C110.976 -8.88913 112.279 -8.83888 112.682 -7.89041C112.875 -7.43914 112.744 -7.08187 112.537 -6.51612C112.44 -6.25414 112.328 -5.94745 112.224 -5.56602C111.294 -2.03129 112.76 2.24447 115.018 4.5691C116.11 5.70444 117.01 5.98549 117.978 6.28779C118.976 6.59946 120.046 6.93372 121.474 8.24999C122.562 9.2644 122.937 9.98642 123.436 10.9467C123.817 11.6794 124.27 12.5507 125.166 13.7964C127.852 17.5084 132.033 21.0947 133.488 20.2403C134.031 19.9235 133.962 19.1254 133.887 18.25C133.805 17.2931 133.714 16.244 134.406 15.6302C136.164 14.0581 142.18 15.9668 145.491 20.2279C147.283 22.5431 147.524 24.5736 147.766 26.6146C148.011 28.6796 148.257 30.7554 150.113 33.1475ZM-10.7367 -15.861C-8.26198 -19.5357 -7.02486 -21.3727 -5.16525 -21.7735C-3.93878 -22.0373 -3.08823 -21.6399 -2.07125 -21.1647C-0.963094 -20.6469 0.342667 -20.0368 2.5477 -20.0892C3.48048 -20.1106 4.17405 -20.2412 4.71647 -20.3433C5.49347 -20.4896 5.96034 -20.5775 6.37596 -20.2025C7.0862 -19.5614 6.78744 -18.3409 6.45603 -16.987C6.08329 -15.4642 5.66925 -13.7728 6.6031 -12.5473C7.0699 -11.9352 7.56942 -11.8377 8.18798 -11.7171C8.80665 -11.5964 9.5444 -11.4524 10.4876 -10.7471C11.6531 -9.8755 12.0728 -8.93898 12.5056 -7.97308C12.9243 -7.03861 13.3553 -6.07664 14.486 -5.11934C15.2952 -4.4348 15.8418 -4.27756 16.4807 -4.09376C16.9915 -3.94684 17.5612 -3.78295 18.3711 -3.31922C20.5868 -2.05011 21.326 -0.411204 21.996 1.07435C22.5542 2.31209 23.0644 3.44338 24.3406 4.16563C25.9138 5.05546 27.2833 4.5499 29.3731 3.77843C31.2943 3.06919 33.8243 2.1352 37.6812 1.85407C41.2328 1.59458 44.4598 1.40637 47.3073 3.48344C49.2717 4.91614 51.5681 7.80342 51.3633 11.0252C51.2193 13.2763 49.9259 14.5874 48.6329 15.8981C47.3406 17.2082 46.0486 18.5179 45.9052 20.7654C45.6445 24.8571 49.45 27.9099 49.96 28.3074C53.4944 31.0613 58.7703 31.4444 59.5874 29.9371C59.9118 29.338 59.405 28.6734 58.5822 27.5945C57.7152 26.4576 56.4973 24.8606 55.5315 22.3954C54.3958 19.4964 53.2299 14.4315 55.2467 12.8262C56.1474 12.1086 57.2766 12.4046 58.3581 12.6881C59.3443 12.9466 60.291 13.1947 60.9888 12.6547C62.5198 11.471 61.1762 7.79586 59.8258 4.10185C58.4932 0.456855 57.154 -3.20651 58.5629 -4.51276C60.6779 -6.4726 69.1718 -3.30924 72.1881 2.74427C73.3279 5.03295 73.2338 6.82919 73.1449 8.52498C73.0488 10.3593 72.9589 12.076 74.4433 14.1712C75.5016 15.6651 76.5795 16.2489 78.0077 17.0223C79.5433 17.854 81.4838 18.905 84.2404 21.5422C85.2222 22.4819 85.7967 23.1342 86.2342 23.6308C86.8887 24.3738 87.2363 24.7684 88.1818 25.2559C90.3327 26.3663 92.21 26.2199 93.8349 26.0931C95.3816 25.9725 96.6996 25.8697 97.8074 26.8854C98.714 27.7163 98.7427 28.6198 98.7794 29.7782C98.818 30.9952 98.8655 32.4934 99.9493 34.4841C100.718 35.8964 101.526 36.6702 102.219 37.3345C103.04 38.1212 103.701 38.7544 103.948 40.1125C104.451 42.8818 102.626 45.3432 102.205 45.9111C101.299 47.13 100.456 47.5317 99.4945 47.9894C98.6524 48.3904 97.72 48.8345 96.5761 49.909C95.0643 51.33 94.4984 52.6174 93.9611 53.8398C93.3691 55.1867 92.8118 56.4546 91.0623 57.7355C90.1616 58.3944 89.5929 58.5829 89.0757 58.7543C88.5326 58.9343 88.0462 59.0955 87.2916 59.7629C85.8076 61.0764 85.5395 62.3562 85.2525 63.7264C85.0061 64.9022 84.7458 66.1446 83.6912 67.532C82.4244 69.198 80.9086 69.8939 79.5533 70.5162C78.0605 71.2015 76.7623 71.7975 76.2058 73.5021C75.958 74.262 76.0436 74.6707 76.1581 75.2175C76.2594 75.701 76.3832 76.2923 76.3191 77.3298C75.9913 82.6327 71.5606 86.4809 70.8622 87.0698C69.3949 88.3102 68.0335 88.9975 67.0173 89.5105C65.9029 90.0731 65.2035 90.4262 65.2346 91.0693C65.2667 91.7427 66.0666 92.0181 67.1347 92.386C68.351 92.8049 69.9153 93.3436 71.0901 94.7261C72.6037 96.5067 72.4735 98.514 72.3421 100.54C72.218 102.452 72.0929 104.381 73.3452 106.152C75.0538 108.57 78.1302 109.005 83.0285 109.696C86.7336 110.22 89.9044 110.091 92.4026 109.989C95.5973 109.859 97.6918 109.774 98.3969 111.155C98.8025 111.95 98.535 112.809 98.4533 113.069C97.7718 115.26 94.5889 115.957 89.677 117.032C89.4542 117.081 89.2278 117.131 88.9979 117.181L88.9908 117.183C83.6494 118.357 80.9769 118.944 79.485 119.38C75.5722 120.522 66.067 123.297 64.4583 129.404C63.9531 131.322 64.4039 132.896 64.7699 134.174C65.1185 135.391 65.3901 136.339 64.6855 137.06C63.0731 138.71 58.6185 136.837 51.1748 133.63C48.3282 132.403 46.7697 131.607 45.36 130.887C43.7695 130.074 42.3685 129.358 39.5207 128.23C36.9745 127.222 35.5557 126.789 34.3723 126.427C33.005 126.01 31.9518 125.688 29.8369 124.686C27.7299 123.688 26.5933 122.972 25.3511 122.191C24.0869 121.395 22.7135 120.531 20.0968 119.229C17.1902 117.783 15.6945 117.262 14.7087 116.919C13.7031 116.569 13.2283 116.403 12.3278 115.629C10.3484 113.928 9.81657 112.298 8.92052 109.553C8.33447 107.758 7.59263 105.485 6.18815 102.403C2.11786 93.472 0.824514 92.9602 0.161627 93.0033C-0.826286 93.0675 -1.42174 94.1993 -1.96621 95.2342C-2.45407 96.1615 -2.901 97.011 -3.55265 96.9449C-5.10166 96.7881 -6.13257 91.6191 -6.97538 87.3932C-7.26026 85.9648 -7.52365 84.6442 -7.77829 83.6613L-7.7851 83.6364C-7.81746 83.5183 -7.89784 83.2251 -7.97273 82.8334C-8.0401 82.4805 -8.08373 82.115 -8.17642 81.3385C-8.37697 79.6586 -8.80718 76.0549 -10.2044 66.4927L-10.2652 66.0773C-11.0153 60.9526 -11.2591 59.2867 -10.4885 56.9234C-9.80033 54.8131 -8.76823 53.5748 -7.76839 52.3753C-6.6277 51.0067 -5.52901 49.6886 -5.03098 47.1833C-4.9036 46.5422 -4.91891 46.3443 -4.98628 45.4737C-5.05499 44.5859 -5.17784 42.9985 -5.2587 39.5282C-5.315 37.0951 -5.30571 35.6662 -5.29944 34.7024C-5.29056 33.3359 -5.28776 32.9045 -5.48662 31.8719C-5.89775 29.7296 -6.50947 28.4654 -6.98922 27.4739C-7.53285 26.3503 -7.90704 25.577 -7.62793 24.2731C-7.31171 22.7974 -6.44891 21.9977 -5.64031 21.2482C-4.80944 20.4781 -4.03579 19.761 -3.97113 18.4182C-3.90848 17.1278 -4.54802 16.2414 -5.14484 15.4142C-5.74772 14.5786 -6.30701 13.8034 -6.05486 12.7333C-5.84419 11.8389 -5.23197 11.44 -4.51509 10.9729C-3.79586 10.5043 -2.97129 9.96707 -2.34119 8.7919C-1.2034 6.66929 -1.34809 3.67965 -2.51201 3.05026C-3.085 2.74025 -3.6779 3.12518 -4.48294 3.64782C-5.37396 4.22629 -6.52485 4.97347 -8.19626 5.1339C-10.6414 5.36832 -12.6299 4.19624 -13.9954 3.39137C-15.6198 2.43312 -16.286 1.59153 -17.0174 0.667599C-17.6772 -0.165917 -18.39 -1.06645 -19.9074 -2.18012C-21.5261 -3.36784 -22.879 -3.93103 -23.8766 -4.34628C-24.9855 -4.80789 -25.6553 -5.0867 -25.7629 -5.83742C-26.0497 -7.84179 -21.9647 -10.731 -20.1351 -9.83522C-19.3752 -9.46367 -19.1632 -8.51828 -18.9718 -7.66452C-18.7981 -6.88992 -18.6414 -6.19075 -18.1076 -6.06397C-17.52 -5.92514 -16.7288 -6.5396 -14.3939 -10.0054C-13.2717 -11.6721 -12.674 -12.6898 -12.1407 -13.5979C-11.7111 -14.3294 -11.3232 -14.9898 -10.7367 -15.861ZM-40.8711 22.8701C-40.6748 22.6431 -40.475 22.4121 -40.2856 22.169C-40.2856 22.169 -36.5393 19.2081 -35.6131 16.7138C-34.688 14.2196 -29.2643 15.3288 -27.8227 19.3271C-27.3355 20.6778 -26.44 22.3237 -25.5063 24.04C-23.6764 27.4036 -21.6993 31.0377 -22.3587 33.2508C-22.7324 34.5045 -23.8437 34.9292 -24.9989 35.3706C-25.8617 35.7003 -26.749 36.0394 -27.3716 36.7401C-28.288 37.7718 -28.8675 38.6958 -29.3567 39.4758C-30.1952 40.8127 -30.7683 41.7264 -32.3167 42.0334C-34.9967 42.5645 -41.8778 38.152 -41.6397 35.5488C-41.578 34.8741 -41.4519 34.1814 -41.3241 33.4789C-40.9586 31.4701 -40.5787 29.382 -41.6482 27.4113C-42.8631 25.1728 -41.9148 24.0765 -40.8711 22.8701ZM103.443 82.4873C100.143 82.108 97.3967 87.8824 97.3967 87.8824C92.0654 90.6146 93.8042 95.5315 95.0043 96.489C95.9934 97.2792 99.753 95.8022 103.483 94.3371C104.276 94.0255 105.068 93.7143 105.832 93.4257C107.157 92.9249 108.425 92.6586 109.621 92.4074C112.355 91.8333 114.718 91.3371 116.549 88.2991C118.061 85.788 120.317 84.5303 122.257 83.4482C123.692 82.6482 124.955 81.9442 125.618 80.9007C126.625 79.3159 125.428 77.5174 124.202 75.6742C123.528 74.6618 122.845 73.6359 122.514 72.6246C122.125 71.4374 122.422 69.7961 122.742 68.0272C123.192 65.5462 123.687 62.8142 122.397 60.7319C121.148 58.7149 116.746 65.0205 116.12 70.6755C115.786 73.6916 113.742 75.5777 112.246 76.9579C111.489 77.6558 110.873 78.2244 110.689 78.7443C109.427 82.3073 106.744 82.8667 103.443 82.4873Z" fill="url(#paint0_linear_2172_30572)"/>
<mask id="path-2-inside-1_2172_30572" fill="white">
<path d="M158.591 18.0356C154.25 -8.21002 140.108 -31.8294 119.023 -48.0501C97.9381 -64.2709 71.4822 -71.8838 45.0008 -69.3506C18.5193 -66.8174 -6.01349 -54.327 -23.6408 -34.4031C-41.2681 -14.4791 -50.6758 11.3929 -49.963 37.9858L54.9993 35.1723L158.591 18.0356Z"/>
</mask>
<path d="M158.591 18.0356C154.25 -8.21002 140.108 -31.8294 119.023 -48.0501C97.9381 -64.2709 71.4822 -71.8838 45.0008 -69.3506C18.5193 -66.8174 -6.01349 -54.327 -23.6408 -34.4031C-41.2681 -14.4791 -50.6758 11.3929 -49.963 37.9858L54.9993 35.1723L158.591 18.0356Z" stroke="url(#paint1_linear_2172_30572)" stroke-width="2" mask="url(#path-2-inside-1_2172_30572)"/>
<defs>
<linearGradient id="paint0_linear_2172_30572" x1="40.2085" y1="-61.5516" x2="72.9003" y2="136.072" gradientUnits="userSpaceOnUse">
<stop stop-color="#FDD426" stop-opacity="0.5"/>
<stop offset="0.38662" stop-color="#FDD426" stop-opacity="0.13"/>
<stop offset="1" stop-color="#FDD426" stop-opacity="0"/>
</linearGradient>
<linearGradient id="paint1_linear_2172_30572" x1="37.8627" y1="-68.4199" x2="72.136" y2="138.764" gradientUnits="userSpaceOnUse">
<stop stop-color="#FDD426" stop-opacity="0.56"/>
<stop offset="0.423471" stop-color="#FDD426" stop-opacity="0"/>
<stop offset="1" stop-color="#FDD426" stop-opacity="0"/>
</linearGradient>
</defs>
</svg>
