<?xml version="1.0" encoding="UTF-8"?>
<!DOCTYPE svg PUBLIC "-//W3C//DTD SVG 1.1//EN" "http://www.w3.org/Graphics/SVG/1.1/DTD/svg11.dtd">
<!-- Creator: CorelDRAW -->
<svg xmlns="http://www.w3.org/2000/svg" xml:space="preserve" width="1.27448in" height="0.453075in" version="1.1" style="shape-rendering:geometricPrecision; text-rendering:geometricPrecision; image-rendering:optimizeQuality; fill-rule:evenodd; clip-rule:evenodd"
viewBox="0 0 4193.83 1490.9"
 xmlns:xlink="http://www.w3.org/1999/xlink"
 xmlns:xodm="http://www.corel.com/coreldraw/odm/2003">
 <defs>
  <style type="text/css">
   <![CDATA[
    .fil0 {fill:#B2B3B3}
    .fil2 {fill:#A3F51E}
    .fil1 {fill:white}
   ]]>
  </style>
 </defs>
 <g id="Layer_x0020_1">
  <metadata id="CorelCorpID_0Corel-Layer"/>
  <path class="fil0" d="M265.39 1489.67l0 -174.3 60.38 0c18.67,0 34.25,3.89 46.77,11.66 12.53,7.77 21.89,18.24 28.11,31.43 6.22,13.18 9.33,27.78 9.33,43.81 0,17.68 -3.43,33.06 -10.31,46.16 -6.87,13.08 -16.61,23.24 -29.21,30.43 -12.59,7.22 -27.49,10.8 -44.68,10.8l-60.38 0zm122.26 -87.4c0,-13.08 -2.41,-24.71 -7.24,-34.86 -4.83,-10.14 -11.83,-18.09 -20.99,-23.81 -9.17,-5.73 -20.38,-8.59 -33.64,-8.59l-38.3 0 0 135.02 38.3 0c13.42,0 24.72,-2.98 33.89,-8.95 9.16,-5.97 16.12,-14.08 20.86,-24.3 4.75,-10.23 7.13,-21.73 7.13,-34.5zm53.52 87.4l0 -174.3 22.1 0 0 174.3 -22.1 0zm133.8 1.23c-11.45,0 -22.14,-2.5 -32.04,-7.49 -9.9,-4.99 -18.54,-11.7 -25.9,-20.13 -7.37,-8.42 -13.1,-17.92 -17.19,-28.48 -4.09,-10.56 -6.14,-21.48 -6.14,-32.78 0,-11.78 2.05,-22.96 6.14,-33.5 4.09,-10.56 9.78,-19.93 17.06,-28.11 7.28,-8.19 15.88,-14.61 25.78,-19.28 9.9,-4.66 20.66,-7 32.28,-7 16.85,0 30.77,3.52 41.73,10.56 10.97,7.03 19.24,16.21 24.8,27.49l-16.93 11.79c-5.08,-10.14 -12.04,-17.67 -20.87,-22.58 -8.84,-4.91 -18.58,-7.37 -29.21,-7.37 -8.84,0 -16.85,1.88 -24.06,5.65 -7.2,3.77 -13.38,8.89 -18.54,15.34 -5.16,6.46 -9.08,13.8 -11.79,21.98 -2.69,8.17 -4.04,16.69 -4.04,25.52 0,9.33 1.52,18.12 4.53,26.39 3.03,8.27 7.33,15.55 12.89,21.86 5.57,6.3 12.04,11.25 19.39,14.85 7.37,3.6 15.31,5.4 23.81,5.4 9.99,0 19.48,-2.53 28.49,-7.6 9,-5.08 17.5,-12.85 25.53,-23.32l0 22.83c-15.71,18.66 -34.29,27.98 -55.73,27.98zm53.03 -71.43l-37.56 0 0 -16.7 56.21 0 0 86.9 -18.66 0 0 -70.2zm52.3 70.2l0 -174.3 22.09 0 0 174.3 -22.09 0zm189.52 -154.66l-60.15 0 0 154.66 -22.09 0 0 -154.66 -60.15 0 0 -19.64 142.39 0 0 19.64zm61.61 -19.64l18.66 0 71.2 174.3 -23.57 0 -19.56 -51.06 -74.96 0 -19.64 51.06 -23.57 0 71.43 -174.3zm40.19 106.05l-30.86 -80.52 -30.98 80.52 61.84 0zm72.99 68.25l0 -174.3 22.1 0 0 154.66 97.22 0 0 19.64 -119.32 0zm314.73 0l-85.43 -90.17c-7.05,-7.45 -12.64,-13.8 -16.82,-19.03 -4.18,-5.27 -7.16,-10.03 -8.96,-14.32 -1.8,-4.3 -2.71,-8.68 -2.71,-13.23 0,-7.45 1.97,-14.07 5.89,-19.89 3.93,-5.8 9.29,-10.43 16.08,-13.82 6.8,-3.39 14.45,-5.08 22.96,-5.08 7.86,0 14.98,1.44 21.36,4.26 6.39,2.82 11.49,6.87 15.34,12.11 3.85,5.23 5.78,11.49 5.78,18.77 0,7.45 -2.05,14.04 -6.14,19.77 -4.09,5.73 -9.46,11.09 -16.08,16 -6.63,4.95 -13.95,9.9 -21.97,14.92 -6.56,4.17 -12.49,8.47 -17.8,12.81 -5.32,4.33 -9.5,9 -12.53,13.91 -3.02,4.91 -4.53,10.35 -4.53,16.32 0,6.43 1.8,11.94 5.4,16.53 3.59,4.63 8.3,8.1 14.11,10.52 5.82,2.41 11.91,3.64 18.29,3.64 8.34,0 16.12,-1.93 23.32,-5.78 7.2,-3.85 13.55,-9.2 19.03,-16.08 5.48,-6.88 9.74,-14.86 12.76,-23.94 3.03,-9.08 4.55,-18.85 4.55,-29.33l17.92 0c0,13.42 -2.09,25.74 -6.26,36.95 -4.17,11.21 -9.9,20.95 -17.19,29.21 -7.28,8.27 -15.74,14.69 -25.41,19.26 -9.65,4.59 -19.96,6.88 -30.94,6.88 -10.64,0 -20.25,-2.09 -28.84,-6.3 -8.59,-4.21 -15.35,-9.9 -20.26,-17.11 -4.9,-7.19 -7.36,-15.38 -7.36,-24.58 0,-8.93 2.09,-16.7 6.26,-23.41 4.17,-6.71 9.57,-12.68 16.21,-17.97 6.62,-5.23 13.46,-10.05 20.5,-14.39 7.2,-4.55 13.59,-8.68 19.15,-12.44 5.57,-3.81 9.95,-7.7 13.14,-11.75 3.19,-4.02 4.79,-8.34 4.79,-13.06 0,-5.6 -2.14,-10.26 -6.39,-13.86 -4.26,-3.64 -9.65,-5.44 -16.21,-5.44 -4.91,0 -9.24,1.02 -13.01,3.02 -3.77,2.01 -6.71,4.68 -8.84,7.98 -2.14,3.28 -3.2,6.97 -3.2,10.97 0,2.58 0.66,5.23 1.97,7.97 1.31,2.75 3.81,6.23 7.49,10.4 3.68,4.21 8.87,9.82 15.59,16.89l97.46 101.84 -28.48 0zm246.49 -44.92c0,9 -2.29,16.85 -6.88,23.57 -4.57,6.71 -10.75,11.94 -18.53,15.7 -7.77,3.77 -16.32,5.65 -25.66,5.65l-82.73 0 0 -174.3 86.67 0c8.17,0 15.26,2.16 21.23,6.5 5.97,4.34 10.56,9.91 13.75,16.7 3.19,6.79 4.78,13.86 4.78,21.23 0,8.51 -2.16,16.49 -6.5,23.94 -4.33,7.44 -10.51,12.96 -18.53,16.57 9.98,2.94 17.88,8.38 23.68,16.32 5.82,7.93 8.72,17.31 8.72,28.11zm-22.35 -3.94c0,-5.4 -1.18,-10.39 -3.55,-14.98 -2.37,-4.57 -5.57,-8.25 -9.57,-11.04 -4.02,-2.79 -8.63,-4.17 -13.88,-4.17l-62.35 0 0 59.89 60.63 0c5.4,0 10.27,-1.39 14.61,-4.17 4.34,-2.77 7.77,-6.43 10.31,-10.92 2.54,-4.5 3.8,-9.38 3.8,-14.61zm-89.35 -106.3l0 58.18 55.49 0c5.23,0 9.86,-1.31 13.86,-3.93 4.02,-2.62 7.2,-6.14 9.57,-10.56 2.38,-4.42 3.56,-9.25 3.56,-14.48 0,-5.56 -1.1,-10.51 -3.32,-14.85 -2.2,-4.34 -5.23,-7.82 -9.08,-10.44 -3.85,-2.62 -8.23,-3.93 -13.14,-3.93l-56.95 0zm142.64 155.15l0 -174.3 74.63 0c7.68,0 14.72,1.59 21.1,4.79 6.39,3.19 11.96,7.44 16.7,12.76 4.74,5.31 8.43,11.28 11.05,17.92 2.62,6.63 3.93,13.38 3.93,20.26 0,8.02 -1.52,15.62 -4.55,22.83 -3.03,7.2 -7.28,13.34 -12.76,18.41 -5.48,5.08 -11.91,8.59 -19.28,10.56l42.23 66.77 -25.04 0 -39.77 -62.6 -46.16 0 0 62.6 -22.09 0zm22.09 -82.24l52.78 0c6.06,0 11.34,-1.67 15.84,-5.03 4.5,-3.36 8.02,-7.82 10.56,-13.38 2.54,-5.57 3.8,-11.54 3.8,-17.92 0,-6.56 -1.46,-12.57 -4.42,-18.05 -2.94,-5.49 -6.79,-9.87 -11.53,-13.14 -4.75,-3.28 -9.99,-4.91 -15.71,-4.91l-51.32 0 0 72.42zm192.23 -92.06l18.66 0 71.2 174.3 -23.57 0 -19.56 -51.06 -74.96 0 -19.64 51.06 -23.57 0 71.43 -174.3zm40.19 106.05l-30.86 -80.52 -30.98 80.52 61.84 0zm95.08 -65.31l0 133.56 -22.09 0 0 -174.3 18.66 0 106.54 136.25 0 -136 22.1 0 0 174.05 -20.13 0 -105.08 -133.56zm166.94 133.56l0 -174.3 60.4 0c18.67,0 34.25,3.89 46.77,11.66 12.53,7.77 21.89,18.24 28.11,31.43 6.22,13.18 9.33,27.78 9.33,43.81 0,17.68 -3.43,33.06 -10.31,46.16 -6.88,13.08 -16.61,23.24 -29.21,30.43 -12.61,7.22 -27.49,10.8 -44.68,10.8l-60.4 0zm122.27 -87.4c0,-13.08 -2.42,-24.71 -7.24,-34.86 -4.83,-10.14 -11.83,-18.09 -21,-23.81 -9.16,-5.73 -20.38,-8.59 -33.63,-8.59l-38.3 0 0 135.02 38.3 0c13.42,0 24.72,-2.98 33.88,-8.95 9.17,-5.97 16.13,-14.08 20.87,-24.3 4.74,-10.23 7.13,-21.73 7.13,-34.5zm53.52 87.4l0 -174.3 22.09 0 0 174.3 -22.09 0zm85.92 -133.56l0 133.56 -22.09 0 0 -174.3 18.66 0 106.54 136.25 0 -136 22.1 0 0 174.05 -20.13 0 -105.08 -133.56zm236.91 134.79c-11.45,0 -22.13,-2.5 -32.04,-7.49 -9.9,-4.99 -18.54,-11.7 -25.9,-20.13 -7.37,-8.42 -13.1,-17.92 -17.18,-28.48 -4.09,-10.56 -6.14,-21.48 -6.14,-32.78 0,-11.78 2.05,-22.96 6.14,-33.5 4.08,-10.56 9.77,-19.93 17.06,-28.11 7.28,-8.19 15.87,-14.61 25.77,-19.28 9.91,-4.66 20.66,-7 32.28,-7 16.85,0 30.77,3.52 41.74,10.56 10.96,7.03 19.23,16.21 24.8,27.49l-16.95 11.79c-5.08,-10.14 -12.02,-17.67 -20.87,-22.58 -8.84,-4.91 -18.58,-7.37 -29.21,-7.37 -8.84,0 -16.85,1.88 -24.06,5.65 -7.2,3.77 -13.38,8.89 -18.54,15.34 -5.16,6.46 -9.08,13.8 -11.78,21.98 -2.71,8.17 -4.05,16.69 -4.05,25.52 0,9.33 1.52,18.12 4.55,26.39 3.02,8.27 7.32,15.55 12.89,21.86 5.56,6.3 12.02,11.25 19.39,14.85 7.36,3.6 15.3,5.4 23.81,5.4 9.98,0 19.47,-2.53 28.48,-7.6 9,-5.08 17.52,-12.85 25.53,-23.32l0 22.83c-15.71,18.66 -34.29,27.98 -55.73,27.98zm53.03 -71.43l-37.56 0 0 -16.7 56.21 0 0 86.9 -18.66 0 0 -70.2zm216.78 -67.52c-1.96,-2.28 -4.57,-4.5 -7.85,-6.62 -3.28,-2.14 -6.96,-4.05 -11.05,-5.77 -4.09,-1.72 -8.55,-3.12 -13.38,-4.18 -4.82,-1.06 -9.86,-1.59 -15.09,-1.59 -13.42,0 -23.32,2.54 -29.71,7.57 -6.39,5.08 -9.57,12.04 -9.57,20.83 0,6.18 1.63,11.09 4.91,14.69 3.28,3.56 8.3,6.5 15.09,8.8 6.8,2.29 15.43,4.66 25.91,7.07 12.1,2.63 22.58,5.82 31.42,9.59 8.84,3.76 15.64,8.74 20.38,15.05 4.74,6.26 7.13,14.6 7.13,25.08 0,8.3 -1.59,15.51 -4.79,21.64 -3.19,6.14 -7.64,11.18 -13.38,15.18 -5.73,4.02 -12.44,6.92 -20.13,8.8 -7.68,1.89 -16.04,2.82 -25.03,2.82 -8.85,0 -17.48,-0.93 -25.91,-2.82 -8.42,-1.88 -16.4,-4.63 -23.93,-8.21 -7.53,-3.6 -14.57,-8.11 -21.12,-13.51l10.56 -18.66c2.62,2.77 6.01,5.53 10.18,8.23 4.17,2.69 8.93,5.2 14.24,7.49 5.32,2.28 11.09,4.13 17.31,5.52 6.22,1.39 12.61,2.09 19.15,2.09 12.45,0 22.1,-2.25 28.97,-6.71 6.88,-4.5 10.31,-11.04 10.31,-19.68 0,-6.5 -1.92,-11.74 -5.77,-15.66 -3.85,-3.89 -9.54,-7.16 -17.06,-9.78 -7.53,-2.63 -16.7,-5.25 -27.49,-7.86 -11.79,-2.9 -21.69,-6.13 -29.71,-9.65 -8.02,-3.52 -14.03,-8.11 -18.05,-13.84 -4.02,-5.73 -6.01,-13.12 -6.01,-22.26 0,-11.13 2.69,-20.5 8.1,-28.19 5.4,-7.66 12.85,-13.46 22.33,-17.35 9.5,-3.93 20.22,-5.89 32.17,-5.89 7.85,0 15.18,0.82 21.97,2.46 6.79,1.63 13.14,3.93 19.03,6.87 5.88,2.95 11.28,6.46 16.19,10.56l-10.31 17.92zm117.84 138.96c-12.27,0 -23.4,-2.46 -33.39,-7.36 -9.99,-4.91 -18.62,-11.58 -25.9,-20.02 -7.28,-8.42 -12.89,-17.92 -16.82,-28.48 -3.93,-10.56 -5.89,-21.4 -5.89,-32.53 0,-11.62 2.09,-22.7 6.26,-33.27 4.17,-10.55 9.99,-19.96 17.44,-28.23 7.44,-8.27 16.16,-14.81 26.14,-19.64 9.98,-4.83 20.87,-7.24 32.65,-7.24 12.28,0 23.41,2.54 33.39,7.62 9.99,5.07 18.58,11.85 25.78,20.37 7.2,8.51 12.77,18.01 16.7,28.49 3.93,10.47 5.89,21.19 5.89,32.15 0,11.62 -2.05,22.71 -6.14,33.27 -4.09,10.56 -9.86,19.96 -17.31,28.23 -7.45,8.27 -16.17,14.77 -26.14,19.51 -9.99,4.75 -20.87,7.13 -32.66,7.13zm-59.65 -88.38c0,8.85 1.43,17.4 4.29,25.65 2.86,8.28 6.92,15.6 12.15,21.97 5.23,6.39 11.54,11.47 18.9,15.22 7.37,3.77 15.55,5.65 24.55,5.65 9.33,0 17.68,-1.96 25.04,-5.88 7.37,-3.94 13.63,-9.17 18.79,-15.73 5.16,-6.54 9.08,-13.9 11.78,-22.09 2.71,-8.19 4.05,-16.44 4.05,-24.8 0,-8.84 -1.44,-17.35 -4.3,-25.52 -2.86,-8.19 -6.94,-15.52 -12.27,-21.98 -5.32,-6.45 -11.62,-11.54 -18.9,-15.22 -7.28,-3.68 -15.35,-5.52 -24.19,-5.52 -9.33,0 -17.67,1.93 -25.04,5.77 -7.36,3.85 -13.62,9.04 -18.77,15.6 -5.16,6.54 -9.13,13.86 -11.91,21.97 -2.79,8.1 -4.17,16.4 -4.17,24.91zm172.58 87.15l0 -174.3 22.1 0 0 154.66 97.22 0 0 19.64 -119.32 0zm209.17 1.23c-13.91,0 -25.61,-2.41 -35.11,-7.24 -9.5,-4.83 -17.11,-11.37 -22.84,-19.64 -5.73,-8.27 -9.9,-17.63 -12.51,-28.11 -2.62,-10.47 -3.93,-21.27 -3.93,-32.4l0 -88.13 22.09 0 0 88.13c0,8.51 0.87,16.82 2.58,24.93 1.72,8.1 4.55,15.34 8.47,21.71 3.93,6.39 9.25,11.47 15.96,15.22 6.71,3.77 15.05,5.65 25.04,5.65 10.14,0 18.58,-1.92 25.28,-5.77 6.72,-3.85 12.04,-9 15.96,-15.47 3.93,-6.46 6.75,-13.71 8.47,-21.73 1.72,-8.02 2.58,-16.21 2.58,-24.55l0 -88.13 22.1 0 0 88.13c0,11.79 -1.36,22.96 -4.05,33.5 -2.71,10.57 -7,19.85 -12.89,27.87 -5.89,8.03 -13.54,14.37 -22.96,19.03 -9.41,4.66 -20.82,7 -34.24,7zm239.11 -155.89l-60.15 0 0 154.66 -22.09 0 0 -154.66 -60.15 0 0 -19.64 142.39 0 0 19.64zm25.04 154.66l0 -174.3 22.09 0 0 174.3 -22.09 0zm134.54 1.23c-12.28,0 -23.41,-2.46 -33.4,-7.36 -9.98,-4.91 -18.62,-11.58 -25.9,-20.02 -7.28,-8.42 -12.89,-17.92 -16.82,-28.48 -3.93,-10.56 -5.89,-21.4 -5.89,-32.53 0,-11.62 2.09,-22.7 6.26,-33.27 4.18,-10.55 9.99,-19.96 17.44,-28.23 7.45,-8.27 16.17,-14.81 26.14,-19.64 9.99,-4.83 20.87,-7.24 32.65,-7.24 12.28,0 23.41,2.54 33.39,7.62 9.99,5.07 18.59,11.85 25.78,20.37 7.2,8.51 12.77,18.01 16.7,28.49 3.93,10.47 5.89,21.19 5.89,32.15 0,11.62 -2.05,22.71 -6.14,33.27 -4.09,10.56 -9.86,19.96 -17.31,28.23 -7.45,8.27 -16.17,14.77 -26.14,19.51 -9.99,4.75 -20.87,7.13 -32.65,7.13zm-59.66 -88.38c0,8.85 1.43,17.4 4.29,25.65 2.88,8.28 6.92,15.6 12.15,21.97 5.25,6.39 11.54,11.47 18.9,15.22 7.37,3.77 15.56,5.65 24.55,5.65 9.33,0 17.68,-1.96 25.04,-5.88 7.37,-3.94 13.63,-9.17 18.79,-15.73 5.16,-6.54 9.08,-13.9 11.79,-22.09 2.69,-8.19 4.04,-16.44 4.04,-24.8 0,-8.84 -1.43,-17.35 -4.29,-25.52 -2.86,-8.19 -6.96,-15.52 -12.28,-21.98 -5.31,-6.45 -11.62,-11.54 -18.9,-15.22 -7.28,-3.68 -15.34,-5.52 -24.19,-5.52 -9.33,0 -17.67,1.93 -25.03,5.77 -7.37,3.85 -13.63,9.04 -18.79,15.6 -5.16,6.54 -9.12,13.86 -11.91,21.97 -2.79,8.1 -4.17,16.4 -4.17,24.91zm194.68 -46.41l0 133.56 -22.1 0 0 -174.3 18.67 0 106.54 136.25 0 -136 22.09 0 0 174.05 -20.12 0 -105.08 -133.56zm269.31 -4.17c-1.97,-2.28 -4.59,-4.5 -7.85,-6.62 -3.28,-2.14 -6.96,-4.05 -11.05,-5.77 -4.09,-1.72 -8.55,-3.12 -13.38,-4.18 -4.82,-1.06 -9.86,-1.59 -15.09,-1.59 -13.42,0 -23.32,2.54 -29.71,7.57 -6.39,5.08 -9.57,12.04 -9.57,20.83 0,6.18 1.63,11.09 4.91,14.69 3.26,3.56 8.3,6.5 15.09,8.8 6.8,2.29 15.43,4.66 25.9,7.07 12.11,2.63 22.59,5.82 31.43,9.59 8.84,3.76 15.64,8.74 20.38,15.05 4.74,6.26 7.11,14.6 7.11,25.08 0,8.3 -1.59,15.51 -4.78,21.64 -3.19,6.14 -7.66,11.18 -13.38,15.18 -5.73,4.02 -12.44,6.92 -20.13,8.8 -7.68,1.89 -16.04,2.82 -25.04,2.82 -8.84,0 -17.46,-0.93 -25.9,-2.82 -8.42,-1.88 -16.4,-4.63 -23.94,-8.21 -7.53,-3.6 -14.56,-8.11 -21.1,-13.51l10.56 -18.66c2.62,2.77 6.01,5.53 10.18,8.23 4.17,2.69 8.91,5.2 14.24,7.49 5.32,2.28 11.09,4.13 17.31,5.52 6.22,1.39 12.61,2.09 19.15,2.09 12.44,0 22.1,-2.25 28.97,-6.71 6.88,-4.5 10.31,-11.04 10.31,-19.68 0,-6.5 -1.92,-11.74 -5.77,-15.66 -3.85,-3.89 -9.54,-7.16 -17.06,-9.78 -7.53,-2.63 -16.7,-5.25 -27.49,-7.86 -11.79,-2.9 -21.69,-6.13 -29.71,-9.65 -8.03,-3.52 -14.04,-8.11 -18.05,-13.84 -4.02,-5.73 -6.01,-13.12 -6.01,-22.26 0,-11.13 2.69,-20.5 8.1,-28.19 5.4,-7.66 12.85,-13.46 22.33,-17.35 9.5,-3.93 20.21,-5.89 32.17,-5.89 7.85,0 15.17,0.82 21.97,2.46 6.79,1.63 13.14,3.93 19.02,6.87 5.89,2.95 11.3,6.46 16.21,10.56l-10.31 17.92z"/>
  <g id="_2546646464640">
   <path class="fil1" d="M1420.25 1095.12l0 -822.18 -330.75 0c-75.88,0 -162.81,12.77 -220.78,66.3 -55.24,51.02 -70.53,125.87 -70.53,198.31 0,64.08 11.45,133.52 36.03,192.71 63.58,153.13 130.37,232.6 302.71,240.99l0 -109.47c-141.16,-37.21 -237.16,-318.45 -124.77,-422.9 34.32,-31.9 82.81,-40.34 128.09,-40.34l112.55 0c0,199.65 0.04,498.89 0.04,695.85 55.84,1.1 111.92,0.73 167.41,0.73zm277.94 1.05l84.95 -233.4 -89.4 0 -215.1 -590.95 179.7 0 169.95 466.93 171.18 -470.31 179.69 0 -301.26 827.73 -179.7 0zm1423.31 0.52c0,-135.01 0.08,-269.9 0.08,-404.82 0,-114.56 -17.37,-177.25 -144.54,-177.25l-105.87 0 0 582.36 -2.11 0 -166.75 0 -0.73 0 -0.18 -972.64 0.91 0 166.88 0 1.98 0 0 273.11 157.82 0c195.97,0 260.04,60.62 260.04,257.13 0,147.57 1.33,293.59 1.33,442.11l-1.33 0 0 0.29 -167.45 0 0 -0.29 -0.08 0zm-490.72 -0.35l0 -125.59c-74.18,-5.23 -146.55,-33.15 -201.6,-86.09 -124.58,-119.85 -176.14,-491.26 83.19,-486.12l118.16 0.18 0 -125.78 -168.91 0c-386.01,0 -363.21,499.27 -149.81,711.59 36.73,36.53 79.51,63.86 128.1,81.9 48.08,17.84 139.73,28.29 190.87,29.9zm725.15 -823.39l0 239.36 171.77 0 0 -239.36 -171.77 0zm0 354.2l0 467.98 171.77 0 0 -467.98 -171.77 0zm836.41 343.6c-113.62,2.57 -238.35,-11.96 -313.1,-56.78l76.94 -44.4c326.24,-188.19 318.21,-617.2 -34.18,-599.77 -339.85,0 -402.8,290.18 -294.07,559.72 96.35,234.92 321.61,263.26 564.41,265.93l0 -124.69zm-422.77 -194.22c-55.97,-135.02 -35.23,-394.11 146.17,-394.11 221.43,0 143.7,298.11 -84.23,416.68l-43.28 22.5 -18.66 -45.07z"/>
   <polygon class="fil1" points="305.68,1095.97 704.58,0 884.28,0 485.38,1095.97 "/>
   <polygon class="fil2" points="-0,273.28 253.82,970.62 433.51,970.62 179.7,273.28 297.8,273.28 297.8,127.03 -0,127.03 -0,128.76 -0,273.26 -0,273.28 "/>
  </g>
 </g>
</svg>
