<svg width="36" height="36" viewBox="0 0 36 36" fill="none" xmlns="http://www.w3.org/2000/svg">
<path d="M31.6346 10.4698C30.3596 9.05978 28.2296 8.35478 25.1396 8.35478H24.7796V8.29479C24.7796 5.77479 24.7796 2.65479 19.1396 2.65479H16.8596C11.2196 2.65479 11.2196 5.78979 11.2196 8.29479V8.36978H10.8596C7.75457 8.36978 5.63957 9.07478 4.36457 10.4848C2.87957 12.1348 2.92457 14.3548 3.07457 15.8698L3.08957 15.9748L3.20575 17.1947C3.22715 17.4194 3.34814 17.6223 3.53698 17.7459C3.89669 17.9813 4.4987 18.3693 4.85957 18.5698C5.06957 18.7048 5.29457 18.8248 5.51957 18.9448C8.08457 20.3548 10.9046 21.2998 13.7696 21.7648C13.9046 23.1748 14.5196 24.8248 17.8046 24.8248C21.0896 24.8248 21.7346 23.1898 21.8396 21.7348C24.8996 21.2398 27.8546 20.1748 30.5246 18.6148C30.6146 18.5698 30.6746 18.5248 30.7496 18.4798C31.3446 18.1434 31.962 17.729 32.5248 17.3231C32.6943 17.2008 32.8027 17.0117 32.8258 16.8039L32.8496 16.5898L32.9246 15.8848C32.9396 15.7948 32.9396 15.7198 32.9546 15.6148C33.0746 14.0998 33.0446 12.0298 31.6346 10.4698ZM19.6346 20.7448C19.6346 22.3348 19.6346 22.5748 17.7896 22.5748C15.9446 22.5748 15.9446 22.2898 15.9446 20.7598V18.8698H19.6346V20.7448ZM13.3646 8.29479C13.3646 5.74479 13.3646 4.79979 16.8596 4.79979H19.1396C22.6346 4.79979 22.6346 5.75979 22.6346 8.29479V8.36978H13.3646V8.29479Z" fill="#C4A215"/>
<path d="M31.3098 20.6011C31.8402 20.3487 32.4511 20.7691 32.398 21.354L31.8596 27.2848C31.5446 30.2848 30.3146 33.3448 23.7146 33.3448H12.2846C5.68457 33.3448 4.45457 30.2848 4.13957 27.2998L3.6285 21.678C3.57594 21.0999 4.17287 20.6799 4.70183 20.9192C6.41095 21.6925 9.56566 23.0644 11.5144 23.5748C11.7609 23.6393 11.9602 23.8157 12.0681 24.0465C12.9786 25.9937 14.9532 27.0298 17.8046 27.0298C20.6277 27.0298 22.6273 25.9538 23.5408 24.0018C23.6488 23.7709 23.8484 23.5945 24.095 23.5297C26.1643 22.9851 29.5222 21.4517 31.3098 20.6011Z" fill="#C4A215"/>
</svg>
