<?xml version="1.0" encoding="UTF-8"?>
<!DOCTYPE svg PUBLIC "-//W3C//DTD SVG 1.1//EN" "http://www.w3.org/Graphics/SVG/1.1/DTD/svg11.dtd">
<!-- Creator: CorelDRAW -->
<svg xmlns="http://www.w3.org/2000/svg" xml:space="preserve" width="0.312449in" height="0.319685in" version="1.1" style="shape-rendering:geometricPrecision; text-rendering:geometricPrecision; image-rendering:optimizeQuality; fill-rule:evenodd; clip-rule:evenodd"
viewBox="0 0 5.62 5.75"
 xmlns:xlink="http://www.w3.org/1999/xlink"
 xmlns:xodm="http://www.corel.com/coreldraw/odm/2003">
 <defs>
  <style type="text/css">
   <![CDATA[
    .fil0 {fill:#A3F51E;fill-rule:nonzero}
   ]]>
  </style>
 </defs>
 <g id="Layer_x0020_1">
  <metadata id="CorelCorpID_0Corel-Layer"/>
  <g id="_2547081729040">
   <path class="fil0" d="M5.37 1.46c-0.24,-0.26 -0.64,-0.4 -1.22,-0.4l-0.07 0 0 -0.01c0,-0.47 0,-1.06 -1.06,-1.06l-0.43 0c-1.06,0 -1.06,0.59 -1.06,1.06l0 0.01 -0.07 0c-0.58,0 -0.98,0.13 -1.22,0.4 -0.28,0.31 -0.27,0.73 -0.24,1.01l0 0.02 0.02 0.23c0,0.04 0.03,0.08 0.06,0.1 0.07,0.04 0.18,0.12 0.25,0.15 0.04,0.03 0.08,0.05 0.12,0.07 0.48,0.26 1.01,0.44 1.55,0.53 0.03,0.26 0.14,0.57 0.76,0.57 0.62,0 0.74,-0.31 0.76,-0.58 0.57,-0.09 1.13,-0.29 1.63,-0.58 0.02,-0.01 0.03,-0.02 0.04,-0.03 0.11,-0.06 0.23,-0.14 0.33,-0.22 0.03,-0.02 0.05,-0.06 0.06,-0.1l0 -0.04 0.01 -0.13c0,-0.02 0,-0.03 0.01,-0.05 0.02,-0.28 0.02,-0.67 -0.25,-0.96zm-2.25 1.93c0,0.3 0,0.34 -0.35,0.34 -0.35,0 -0.35,-0.05 -0.35,-0.34l0 -0.35 0.69 0 0 0.35zm-1.18 -2.33c0,-0.48 0,-0.66 0.66,-0.66l0.43 0c0.66,0 0.66,0.18 0.66,0.66l0 0.01 -1.74 0 0 -0.01z"/>
   <path class="fil0" d="M5.31 3.36c0.1,-0.05 0.21,0.03 0.2,0.14l-0.1 1.11c-0.06,0.56 -0.29,1.14 -1.53,1.14l-2.14 0c-1.24,0 -1.47,-0.57 -1.53,-1.13l-0.1 -1.05c-0.01,-0.11 0.1,-0.19 0.2,-0.14 0.32,0.14 0.91,0.4 1.28,0.5 0.05,0.01 0.08,0.05 0.1,0.09 0.17,0.36 0.54,0.56 1.08,0.56 0.53,0 0.9,-0.2 1.08,-0.57 0.02,-0.04 0.06,-0.08 0.1,-0.09 0.39,-0.1 1.02,-0.39 1.35,-0.55z"/>
  </g>
 </g>
</svg>
