<?xml version="1.0" encoding="UTF-8"?>
<!DOCTYPE svg PUBLIC "-//W3C//DTD SVG 1.1//EN" "http://www.w3.org/Graphics/SVG/1.1/DTD/svg11.dtd">
<!-- Creator: CorelDRAW -->
<svg xmlns="http://www.w3.org/2000/svg" xml:space="preserve" width="0.317323in" height="0.332028in" version="1.1" style="shape-rendering:geometricPrecision; text-rendering:geometricPrecision; image-rendering:optimizeQuality; fill-rule:evenodd; clip-rule:evenodd"
viewBox="0 0 6.3 6.59"
 xmlns:xlink="http://www.w3.org/1999/xlink"
 xmlns:xodm="http://www.corel.com/coreldraw/odm/2003">
 <defs>
  <style type="text/css">
   <![CDATA[
    .fil0 {fill:#A3F51E;fill-rule:nonzero}
   ]]>
  </style>
 </defs>
 <g id="Layer_x0020_1">
  <metadata id="CorelCorpID_0Corel-Layer"/>
  <g id="_2547664766096">
   <path class="fil0" d="M4.65 6.59c0.3,0 0.54,-0.24 0.54,-0.54 0,-0.3 -0.24,-0.54 -0.54,-0.54 -0.3,0 -0.54,0.24 -0.54,0.54 0,0.3 0.24,0.54 0.54,0.54z"/>
   <path class="fil0" d="M2.17 6.59c0.3,0 0.54,-0.24 0.54,-0.54 0,-0.3 -0.24,-0.54 -0.54,-0.54 -0.3,0 -0.54,0.24 -0.54,0.54 0,0.3 0.24,0.54 0.54,0.54z"/>
   <path class="fil0" d="M1.11 0.83l-0.06 0.76c-0.01,0.15 0.1,0.27 0.25,0.27l4.75 0c0.13,0 0.24,-0.1 0.25,-0.23 0.04,-0.55 -0.38,-1 -0.93,-1l-3.81 0c-0.03,-0.14 -0.09,-0.27 -0.19,-0.38 -0.15,-0.16 -0.37,-0.26 -0.6,-0.26l-0.54 0c-0.13,0 -0.23,0.11 -0.23,0.23 0,0.13 0.11,0.23 0.23,0.23l0.54 0c0.1,0 0.19,0.04 0.25,0.11 0.07,0.07 0.1,0.16 0.09,0.26z"/>
   <path class="fil0" d="M5.97 2.32l-4.76 0c-0.13,0 -0.24,0.1 -0.25,0.23l-0.11 1.35c-0.04,0.53 0.37,0.98 0.9,0.98l3.45 0c0.46,0 0.87,-0.38 0.91,-0.85l0.1 -1.45c0.01,-0.14 -0.1,-0.26 -0.24,-0.26z"/>
  </g>
 </g>
</svg>
