<svg width="36" height="36" viewBox="0 0 36 36" fill="none" xmlns="http://www.w3.org/2000/svg">
<path d="M24.375 33.75C25.8247 33.75 27 32.5747 27 31.125C27 29.6753 25.8247 28.5 24.375 28.5C22.9253 28.5 21.75 29.6753 21.75 31.125C21.75 32.5747 22.9253 33.75 24.375 33.75Z" fill="#C4A215"/>
<path d="M12.375 33.75C13.8247 33.75 15 32.5747 15 31.125C15 29.6753 13.8247 28.5 12.375 28.5C10.9253 28.5 9.75 29.6753 9.75 31.125C9.75 32.5747 10.9253 33.75 12.375 33.75Z" fill="#C4A215"/>
<path d="M7.26 5.91L6.96 9.585C6.9 10.29 7.455 10.875 8.16 10.875H31.125C31.755 10.875 32.28 10.395 32.325 9.765C32.52 7.11 30.495 4.95 27.84 4.95H9.405C9.255 4.29 8.955 3.66 8.49 3.135C7.74 2.34 6.69 1.875 5.61 1.875H3C2.385 1.875 1.875 2.385 1.875 3C1.875 3.615 2.385 4.125 3 4.125H5.61C6.075 4.125 6.51 4.32 6.825 4.65C7.14 4.995 7.29 5.445 7.26 5.91Z" fill="#C4A215"/>
<path d="M30.765 13.125H7.755C7.125 13.125 6.615 13.605 6.555 14.22L6.015 20.745C5.805 23.31 7.815 25.5 10.38 25.5H27.06C29.31 25.5 31.29 23.655 31.455 21.405L31.95 14.4C32.01 13.71 31.47 13.125 30.765 13.125Z" fill="#C4A215"/>
</svg>
