<svg width="36" height="36" viewBox="0 0 36 36" fill="none" xmlns="http://www.w3.org/2000/svg">
<path d="M29.7492 12.4986C29.3494 10.9036 28.4974 9.52826 27.2853 8.52124C26.1044 7.54031 24.6579 7 23.2121 7C22.1036 7 21.0463 7.30369 20.0694 7.9025C19.298 8.37555 18.604 9.01889 17.998 9.82189C16.6194 7.99361 14.7993 7 12.7862 7C11.341 7 9.89498 7.54031 8.71431 8.52124C7.50251 9.52826 6.6507 10.9034 6.25098 12.4985C5.95783 13.6683 5.82435 15.3101 6.40278 17.2847H10.0351L11.3466 14.6153C11.4658 14.373 11.7092 14.2198 11.9754 14.2198C12.2418 14.2198 12.4852 14.373 12.6042 14.6153L14.9875 19.4653L17.3708 14.6153C17.4898 14.373 17.7332 14.2198 17.9996 14.2198C18.2658 14.2198 18.5092 14.373 18.6284 14.6153L19.94 17.2847H24.8372C25.2255 17.2847 25.5401 17.6049 25.5401 17.9999C25.5401 18.3951 25.2255 18.7153 24.8372 18.7153H19.5055C19.2392 18.7153 18.9959 18.5622 18.8767 18.3198L17.9996 16.5347L15.6163 21.3847C15.4971 21.627 15.2538 21.78 14.9875 21.78C14.7211 21.78 14.4778 21.627 14.3587 21.3847L11.9756 16.5347L11.0983 18.32C10.9791 18.5622 10.7358 18.7153 10.4696 18.7153H6.92939C7.16432 19.2456 7.45143 19.7945 7.80006 20.3599C9.71388 23.4656 13.0318 26.3432 17.661 28.9126C17.766 28.9709 17.8819 29 17.9978 29C18.1137 29 18.2294 28.9709 18.3343 28.9128C22.9651 26.343 26.2839 23.4656 28.1986 20.3601C30.2673 17.0046 30.1837 14.233 29.7492 12.4986Z" fill="#C4A215"/>
</svg>
