<?xml version="1.0" encoding="UTF-8"?>
<!DOCTYPE svg PUBLIC "-//W3C//DTD SVG 1.1//EN" "http://www.w3.org/Graphics/SVG/1.1/DTD/svg11.dtd">
<!-- Creator: CorelDRAW -->
<svg xmlns="http://www.w3.org/2000/svg" xml:space="preserve" width="0.25in" height="0.229161in" version="1.1" style="shape-rendering:geometricPrecision; text-rendering:geometricPrecision; image-rendering:optimizeQuality; fill-rule:evenodd; clip-rule:evenodd"
viewBox="0 0 3.19 2.93"
 xmlns:xlink="http://www.w3.org/1999/xlink"
 xmlns:xodm="http://www.corel.com/coreldraw/odm/2003">
 <defs>
  <style type="text/css">
   <![CDATA[
    .fil0 {fill:#A3F51E;fill-rule:nonzero}
   ]]>
  </style>
 </defs>
 <g id="Layer_x0020_1">
  <metadata id="CorelCorpID_0Corel-Layer"/>
  <path class="fil0" d="M3.16 0.73c-0.05,-0.21 -0.17,-0.4 -0.33,-0.53 -0.16,-0.13 -0.35,-0.2 -0.54,-0.2 -0.15,0 -0.29,0.04 -0.42,0.12 -0.1,0.06 -0.19,0.15 -0.28,0.26 -0.18,-0.24 -0.43,-0.38 -0.69,-0.38 -0.19,0 -0.38,0.07 -0.54,0.2 -0.16,0.13 -0.27,0.32 -0.33,0.53 -0.04,0.16 -0.06,0.37 0.02,0.64l0.48 0 0.17 -0.36c0.02,-0.03 0.05,-0.05 0.08,-0.05 0.04,0 0.07,0.02 0.08,0.05l0.32 0.65 0.32 -0.65c0.02,-0.03 0.05,-0.05 0.08,-0.05 0.04,0 0.07,0.02 0.08,0.05l0.17 0.36 0.65 0c0.05,0 0.09,0.04 0.09,0.1 0,0.05 -0.04,0.1 -0.09,0.1l-0.71 0c-0.04,0 -0.07,-0.02 -0.08,-0.05l-0.12 -0.24 -0.32 0.65c-0.02,0.03 -0.05,0.05 -0.08,0.05 -0.04,0 -0.07,-0.02 -0.08,-0.05l-0.32 -0.65 -0.12 0.24c-0.02,0.03 -0.05,0.05 -0.08,0.05l-0.47 0c0.03,0.07 0.07,0.14 0.12,0.22 0.25,0.41 0.7,0.8 1.31,1.14 0.01,0.01 0.03,0.01 0.04,0.01 0.02,0 0.03,-0 0.04,-0.01 0.62,-0.34 1.06,-0.72 1.31,-1.14 0.28,-0.45 0.26,-0.82 0.21,-1.05z"/>
 </g>
</svg>
