<?xml version="1.0" encoding="UTF-8"?>
<!DOCTYPE svg PUBLIC "-//W3C//DTD SVG 1.1//EN" "http://www.w3.org/Graphics/SVG/1.1/DTD/svg11.dtd">
<!-- Creator: CorelDRAW -->
<svg xmlns="http://www.w3.org/2000/svg" xml:space="preserve" width="0.281252in" height="0.281252in" version="1.1" style="shape-rendering:geometricPrecision; text-rendering:geometricPrecision; image-rendering:optimizeQuality; fill-rule:evenodd; clip-rule:evenodd"
viewBox="0 0 4.53 4.53"
 xmlns:xlink="http://www.w3.org/1999/xlink"
 xmlns:xodm="http://www.corel.com/coreldraw/odm/2003">
 <defs>
  <style type="text/css">
   <![CDATA[
    .fil0 {fill:#A3F51E}
   ]]>
  </style>
 </defs>
 <g id="Layer_x0020_1">
  <metadata id="CorelCorpID_0Corel-Layer"/>
  <g id="_2546884055280">
   <path class="fil0" d="M0.16 4.53l4.21 0c0.09,0 0.16,-0.07 0.16,-0.16 0,-0.09 -0.07,-0.16 -0.16,-0.16l-4.21 0c-0.09,0 -0.16,0.07 -0.16,0.16 0,0.09 0.07,0.16 0.16,0.16z"/>
   <path class="fil0" d="M1.83 4.53c-0.09,0 -0.16,-0.07 -0.16,-0.16l0 -1.37c0,-0.07 0.03,-0.14 0.08,-0.19 0.05,-0.05 0.12,-0.08 0.19,-0.08l0.64 0c0.07,0 0.14,0.03 0.19,0.08 0.05,0.05 0.08,0.12 0.08,0.19l0 1.37c0,0.09 -0.07,0.16 -0.16,0.16l0.64 0c0.09,0 0.16,-0.07 0.16,-0.16l0 -4c0,-0.2 -0.17,-0.37 -0.37,-0.37l-1.69 0c-0.2,0 -0.37,0.17 -0.37,0.37l0 4c0,0.09 0.07,0.16 0.16,0.16l0.64 0zm0.69 -1.47l0 1.16 -0.53 0 0 -1.16 0.53 0zm-0.64 -0.68l-0.11 0c-0.06,0 -0.11,-0.05 -0.11,-0.11l0 -0.11c0,-0.06 0.05,-0.11 0.11,-0.11l0.11 0c0.06,0 0.11,0.05 0.11,0.11l0 0.11c0,0.06 -0.05,0.11 -0.11,0.11zm0.85 0l-0.11 0c-0.06,0 -0.11,-0.05 -0.11,-0.11l0 -0.11c0,-0.06 0.05,-0.11 0.11,-0.11l0.11 0c0.06,0 0.11,0.05 0.11,0.11l0 0.11c0,0.06 -0.05,0.11 -0.11,0.11zm-0.85 -0.63l-0.11 0c-0.06,0 -0.11,-0.05 -0.11,-0.11l0 -0.11c0,-0.06 0.05,-0.11 0.11,-0.11l0.11 0c0.06,0 0.11,0.05 0.11,0.11l0 0.11c0,0.06 -0.05,0.11 -0.11,0.11zm0.85 0l-0.11 0c-0.06,0 -0.11,-0.05 -0.11,-0.11l0 -0.11c0,-0.06 0.05,-0.11 0.11,-0.11l0.11 0c0.06,0 0.11,0.05 0.11,0.11l0 0.11c0,0.06 -0.05,0.11 -0.11,0.11zm-0.85 -0.63l-0.11 0c-0.06,0 -0.11,-0.05 -0.11,-0.11l0 -0.11c0,-0.06 0.05,-0.11 0.11,-0.11l0.11 0c0.06,0 0.11,0.05 0.11,0.11l0 0.11c0,0.06 -0.05,0.11 -0.11,0.11zm0.85 0l-0.11 0c-0.06,0 -0.11,-0.05 -0.11,-0.11l0 -0.11c0,-0.06 0.05,-0.11 0.11,-0.11l0.11 0c0.06,0 0.11,0.05 0.11,0.11l0 0.11c0,0.06 -0.05,0.11 -0.11,0.11z"/>
   <path class="fil0" d="M0.82 0.84l-0.26 0c-0.2,0 -0.37,0.17 -0.37,0.37l0 3.16c0,0.09 0.07,0.16 0.16,0.16l0.51 0c-0.02,-0.05 -0.04,-0.1 -0.04,-0.16l0 -3.53z"/>
   <path class="fil0" d="M3.68 0.84l0 3.53c0,0.06 -0.01,0.11 -0.04,0.16l0.51 0c0.09,0 0.16,-0.07 0.16,-0.16l0 -3.16c0,-0.2 -0.17,-0.37 -0.37,-0.37l-0.26 0z"/>
  </g>
 </g>
</svg>
