<svg width="36" height="36" viewBox="0 0 36 36" fill="none" xmlns="http://www.w3.org/2000/svg">
<path fill-rule="evenodd" clip-rule="evenodd" d="M5.44755 31.5H30.5525C31.0755 31.5 31.5 31.078 31.5 30.5581C31.5 30.0382 31.0755 29.6163 30.5525 29.6163H5.44755C4.9245 29.6163 4.5 30.0382 4.5 30.5581C4.5 31.078 4.9245 31.5 5.44755 31.5Z" fill="#C4A215"/>
<path fill-rule="evenodd" clip-rule="evenodd" d="M15.3917 31.5C14.8687 31.5 14.4442 31.078 14.4442 30.5581V22.3953C14.4442 21.9784 14.6109 21.5803 14.9066 21.2852C15.2035 20.9913 15.6052 20.8256 16.0234 20.8256H19.8136C20.2318 20.8256 20.6335 20.9913 20.9304 21.2852C21.2261 21.5803 21.3928 21.9784 21.3928 22.3953V30.5581C21.3928 31.078 20.9683 31.5 20.4453 31.5H24.2355C24.7585 31.5 25.183 31.078 25.183 30.5581V6.69767C25.183 5.48456 24.1925 4.5 22.9721 4.5H12.8649C11.6445 4.5 10.654 5.48456 10.654 6.69767V30.5581C10.654 31.078 11.0785 31.5 11.6015 31.5H15.3917ZM19.4978 22.7093V29.6163H16.3393V22.7093H19.4978ZM15.7076 18.6279H15.0759C14.7272 18.6279 14.4442 18.3466 14.4442 18V17.3721C14.4442 17.0255 14.7272 16.7442 15.0759 16.7442H15.7076C16.0563 16.7442 16.3393 17.0255 16.3393 17.3721V18C16.3393 18.3466 16.0563 18.6279 15.7076 18.6279ZM20.7611 18.6279H20.1295C19.7808 18.6279 19.4978 18.3466 19.4978 18V17.3721C19.4978 17.0255 19.7808 16.7442 20.1295 16.7442H20.7611C21.1098 16.7442 21.3928 17.0255 21.3928 17.3721V18C21.3928 18.3466 21.1098 18.6279 20.7611 18.6279ZM15.7076 14.8605H15.0759C14.7272 14.8605 14.4442 14.5792 14.4442 14.2326V13.6047C14.4442 13.258 14.7272 12.9767 15.0759 12.9767H15.7076C16.0563 12.9767 16.3393 13.258 16.3393 13.6047V14.2326C16.3393 14.5792 16.0563 14.8605 15.7076 14.8605ZM20.7611 14.8605H20.1295C19.7808 14.8605 19.4978 14.5792 19.4978 14.2326V13.6047C19.4978 13.258 19.7808 12.9767 20.1295 12.9767H20.7611C21.1098 12.9767 21.3928 13.258 21.3928 13.6047V14.2326C21.3928 14.5792 21.1098 14.8605 20.7611 14.8605ZM15.7076 11.093H15.0759C14.7272 11.093 14.4442 10.8117 14.4442 10.4651V9.83721C14.4442 9.4906 14.7272 9.2093 15.0759 9.2093H15.7076C16.0563 9.2093 16.3393 9.4906 16.3393 9.83721V10.4651C16.3393 10.8117 16.0563 11.093 15.7076 11.093ZM20.7611 11.093H20.1295C19.7808 11.093 19.4978 10.8117 19.4978 10.4651V9.83721C19.4978 9.4906 19.7808 9.2093 20.1295 9.2093H20.7611C21.1098 9.2093 21.3928 9.4906 21.3928 9.83721V10.4651C21.3928 10.8117 21.1098 11.093 20.7611 11.093Z" fill="#C4A215"/>
<path fill-rule="evenodd" clip-rule="evenodd" d="M9.3906 9.52326H7.81136C6.59092 9.52326 5.60042 10.5078 5.60042 11.7209V30.5581C5.60042 31.078 6.02492 31.5 6.54796 31.5H9.60285C9.4664 31.2149 9.3906 30.8947 9.3906 30.5581V9.52326Z" fill="#C4A215"/>
<path fill-rule="evenodd" clip-rule="evenodd" d="M26.4464 9.52326V30.5581C26.4464 30.8947 26.3706 31.2149 26.2342 31.5H29.2891C29.8121 31.5 30.2366 31.078 30.2366 30.5581V11.7209C30.2366 10.5078 29.2461 9.52326 28.0257 9.52326H26.4464Z" fill="#C4A215"/>
</svg>
