<?xml version="1.0" encoding="UTF-8"?>
<!DOCTYPE svg PUBLIC "-//W3C//DTD SVG 1.1//EN" "http://www.w3.org/Graphics/SVG/1.1/DTD/svg11.dtd">
<!-- Creator: CorelDRAW -->
<svg xmlns="http://www.w3.org/2000/svg" xml:space="preserve" width="0.293984in" height="0.312575in" version="1.1" style="shape-rendering:geometricPrecision; text-rendering:geometricPrecision; image-rendering:optimizeQuality; fill-rule:evenodd; clip-rule:evenodd"
viewBox="0 0 5.27 5.6"
 xmlns:xlink="http://www.w3.org/1999/xlink"
 xmlns:xodm="http://www.corel.com/coreldraw/odm/2003">
 <defs>
  <style type="text/css">
   <![CDATA[
    .fil0 {fill:#A3F51E;fill-rule:nonzero}
   ]]>
  </style>
 </defs>
 <g id="Layer_x0020_1">
  <metadata id="CorelCorpID_0Corel-Layer"/>
  <g id="_2547660229008">
   <path class="fil0" d="M3.99 3.82c0.19,-0.12 0.43,0.01 0.43,0.24l0 0.36c0,0.36 -0.28,0.74 -0.61,0.85l-0.89 0.3c-0.16,0.05 -0.41,0.05 -0.57,0l-0.89 -0.3c-0.34,-0.11 -0.61,-0.49 -0.61,-0.85l0 -0.36c0,-0.22 0.25,-0.36 0.43,-0.24l0.58 0.38c0.22,0.15 0.5,0.22 0.78,0.22 0.28,0 0.56,-0.07 0.78,-0.22l0.57 -0.37z"/>
   <path class="fil0" d="M4.87 1.25l-1.68 -1.1c-0.3,-0.2 -0.8,-0.2 -1.1,0l-1.69 1.1c-0.54,0.35 -0.54,1.14 0,1.5l0.45 0.29 1.24 0.81c0.3,0.2 0.8,0.2 1.1,0l1.61 -1.06 0 0.86c0,0.11 0.1,0.21 0.21,0.21 0.11,0 0.21,-0.1 0.21,-0.21l0 -1.38c0.11,-0.36 -0,-0.78 -0.36,-1.01z"/>
  </g>
 </g>
</svg>
