<svg width="36" height="36" viewBox="0 0 36 36" fill="none" xmlns="http://www.w3.org/2000/svg">
<path d="M25.2463 23.4598C26.2512 22.7998 27.5712 23.5198 27.5712 24.7198V26.6548C27.5712 28.5598 26.0863 30.5998 24.3013 31.1998L19.5162 32.7898C18.6762 33.0748 17.3112 33.0748 16.4862 32.7898L11.7012 31.1998C9.90125 30.5998 8.43125 28.5598 8.43125 26.6548V24.7048C8.43125 23.5198 9.75125 22.7998 10.7412 23.4448L13.8312 25.4548C15.0162 26.2498 16.5162 26.6398 18.0162 26.6398C19.5162 26.6398 21.0162 26.2498 22.2013 25.4548L25.2463 23.4598Z" fill="#C4A215"/>
<path d="M29.9712 9.68984L20.9862 3.79484C19.3662 2.72984 16.6962 2.72984 15.0763 3.79484L6.04625 9.68984C3.15125 11.5648 3.15125 15.8098 6.04625 17.6998L8.44625 19.2598L15.0763 23.5798C16.6962 24.6448 19.3662 24.6448 20.9862 23.5798L29.6262 17.9098V22.4998C29.6262 23.1148 30.1362 23.6248 30.7512 23.6248C31.3662 23.6248 31.8762 23.1148 31.8762 22.4998V15.1198C32.4762 13.1848 31.8612 10.9348 29.9712 9.68984Z" fill="#C4A215"/>
</svg>
