<svg width="36" height="36" viewBox="0 0 36 36" fill="none" xmlns="http://www.w3.org/2000/svg">
<path d="M30.0748 15.9448L23.0698 12.9298L21.5098 12.2698C21.2698 12.1498 21.0598 11.8348 21.0598 11.5648V6.97484C21.0598 5.53484 19.9948 3.82484 18.7048 3.16484C18.2548 2.93984 17.7148 2.93984 17.2648 3.16484C15.9898 3.82484 14.9248 5.54984 14.9248 6.98984V11.5798C14.9248 11.8498 14.7148 12.1648 14.4748 12.2848L5.92484 15.9598C4.97984 16.3498 4.21484 17.5348 4.21484 18.5548V20.5348C4.21484 21.8098 5.17484 22.4398 6.35984 21.9298L13.8748 18.6898C14.4598 18.4348 14.9398 18.7498 14.9398 19.3948V21.0598V23.7598C14.9398 24.1048 14.7448 24.5998 14.5048 24.8398L11.0248 28.3348C10.6648 28.6948 10.4998 29.3998 10.6648 29.9098L11.3398 31.9498C11.6098 32.8348 12.6148 33.2548 13.4398 32.8348L17.0098 29.8348C17.5498 29.3698 18.4348 29.3698 18.9748 29.8348L22.5448 32.8348C23.3698 33.2398 24.3748 32.8348 24.6748 31.9498L25.3498 29.9098C25.5148 29.4148 25.3498 28.6948 24.9898 28.3348L21.5098 24.8398C21.2548 24.5998 21.0598 24.1048 21.0598 23.7598V19.3948C21.0598 18.7498 21.5248 18.4498 22.1248 18.6898L29.6398 21.9298C30.8248 22.4398 31.7848 21.8098 31.7848 20.5348V18.5548C31.7848 17.5348 31.0198 16.3498 30.0748 15.9448Z" fill="#C4A215"/>
</svg>
