<?xml version="1.0" encoding="UTF-8"?>
<!DOCTYPE svg PUBLIC "-//W3C//DTD SVG 1.1//EN" "http://www.w3.org/Graphics/SVG/1.1/DTD/svg11.dtd">
<!-- Creator: CorelDRAW -->
<svg xmlns="http://www.w3.org/2000/svg" xml:space="preserve" width="0.287181in" height="0.312528in" version="1.1" style="shape-rendering:geometricPrecision; text-rendering:geometricPrecision; image-rendering:optimizeQuality; fill-rule:evenodd; clip-rule:evenodd"
viewBox="0 0 4.49 4.89"
 xmlns:xlink="http://www.w3.org/1999/xlink"
 xmlns:xodm="http://www.corel.com/coreldraw/odm/2003">
 <defs>
  <style type="text/css">
   <![CDATA[
    .fil0 {fill:#A3F51E;fill-rule:nonzero}
   ]]>
  </style>
 </defs>
 <g id="Layer_x0020_1">
  <metadata id="CorelCorpID_0Corel-Layer"/>
  <path class="fil0" d="M4.21 2.11l-1.14 -0.49 -0.25 -0.11c-0.04,-0.02 -0.07,-0.07 -0.07,-0.11l0 -0.75c0,-0.23 -0.17,-0.51 -0.38,-0.62 -0.07,-0.04 -0.16,-0.04 -0.23,0 -0.21,0.11 -0.38,0.39 -0.38,0.62l0 0.75c0,0.04 -0.03,0.1 -0.07,0.11l-1.39 0.6c-0.15,0.06 -0.28,0.26 -0.28,0.42l0 0.32c0,0.21 0.16,0.31 0.35,0.23l1.22 -0.53c0.1,-0.04 0.17,0.01 0.17,0.11l0 0.27 0 0.44c0,0.06 -0.03,0.14 -0.07,0.18l-0.57 0.57c-0.06,0.06 -0.09,0.17 -0.06,0.26l0.11 0.33c0.04,0.14 0.21,0.21 0.34,0.14l0.58 -0.49c0.09,-0.08 0.23,-0.08 0.32,0l0.58 0.49c0.13,0.07 0.3,0 0.35,-0.14l0.11 -0.33c0.03,-0.08 0,-0.2 -0.06,-0.26l-0.57 -0.57c-0.04,-0.04 -0.07,-0.12 -0.07,-0.18l0 -0.71c0,-0.11 0.08,-0.15 0.17,-0.11l1.22 0.53c0.19,0.08 0.35,-0.02 0.35,-0.23l0 -0.32c0,-0.17 -0.12,-0.36 -0.28,-0.43z"/>
 </g>
</svg>
