<?xml version="1.0" encoding="UTF-8"?>
<!DOCTYPE svg PUBLIC "-//W3C//DTD SVG 1.1//EN" "http://www.w3.org/Graphics/SVG/1.1/DTD/svg11.dtd">
<!-- Creator: CorelDRAW -->
<svg xmlns="http://www.w3.org/2000/svg" xml:space="preserve" width="0.312504in" height="0.312504in" version="1.1" style="shape-rendering:geometricPrecision; text-rendering:geometricPrecision; image-rendering:optimizeQuality; fill-rule:evenodd; clip-rule:evenodd"
viewBox="0 0 6.23 6.23"
 xmlns:xlink="http://www.w3.org/1999/xlink"
 xmlns:xodm="http://www.corel.com/coreldraw/odm/2003">
 <defs>
  <style type="text/css">
   <![CDATA[
    .fil0 {fill:#A3F51E;fill-rule:nonzero}
   ]]>
  </style>
 </defs>
 <g id="Layer_x0020_1">
  <metadata id="CorelCorpID_0Corel-Layer"/>
  <g id="_2547098846272">
   <polygon class="fil0" points="3.96,0 2.26,0 2.26,1.36 3.96,1.36 "/>
   <path class="fil0" d="M4.43 0l0 1.36 1.76 0c-0.16,-0.86 -0.79,-1.35 -1.76,-1.36z"/>
   <path class="fil0" d="M-0 1.82l0 2.59c0,1.13 0.68,1.81 1.81,1.81l2.61 0c1.13,0 1.81,-0.68 1.81,-1.81l0 -2.59 -6.23 0zm3.87 2.59l-0.65 0.37c-0.14,0.08 -0.27,0.12 -0.4,0.12 -0.09,0 -0.18,-0.02 -0.26,-0.07 -0.18,-0.1 -0.28,-0.31 -0.28,-0.59l0 -0.75c0,-0.27 0.1,-0.49 0.28,-0.59 0.18,-0.11 0.41,-0.09 0.65,0.05l0.65 0.37c0.24,0.14 0.37,0.33 0.37,0.54 0,0.21 -0.13,0.39 -0.37,0.53z"/>
   <path class="fil0" d="M1.8 0c-0.97,0 -1.6,0.5 -1.76,1.36l1.76 0 0 -1.36z"/>
  </g>
 </g>
</svg>
