<svg width="36" height="36" viewBox="0 0 36 36" fill="none" xmlns="http://www.w3.org/2000/svg">
<path d="M22.095 3H13.905V9.54H22.095V3Z" fill="#C4A215"/>
<path d="M24.345 3V9.54H32.805C32.04 5.415 28.995 3.015 24.345 3Z" fill="#C4A215"/>
<path d="M3 11.79V24.285C3 29.745 6.255 33 11.715 33H24.285C29.745 33 33 29.745 33 24.285V11.79H3ZM21.66 24.27L18.54 26.07C17.88 26.445 17.235 26.64 16.635 26.64C16.185 26.64 15.78 26.535 15.405 26.325C14.535 25.83 14.055 24.81 14.055 23.49V19.89C14.055 18.57 14.535 17.55 15.405 17.055C16.275 16.545 17.385 16.635 18.54 17.31L21.66 19.11C22.815 19.77 23.445 20.7 23.445 21.705C23.445 22.71 22.8 23.595 21.66 24.27Z" fill="#C4A215"/>
<path d="M11.655 3C7.005 3.015 3.96 5.415 3.195 9.54H11.655V3Z" fill="#C4A215"/>
</svg>
