<?xml version="1.0" encoding="UTF-8"?>
<!DOCTYPE svg PUBLIC "-//W3C//DTD SVG 1.1//EN" "http://www.w3.org/Graphics/SVG/1.1/DTD/svg11.dtd">
<!-- Creator: CorelDRAW -->
<svg xmlns="http://www.w3.org/2000/svg" xml:space="preserve" width="0.312in" height="0.312in" version="1.1" style="shape-rendering:geometricPrecision; text-rendering:geometricPrecision; image-rendering:optimizeQuality; fill-rule:evenodd; clip-rule:evenodd"
viewBox="0 0 5.5 5.5"
 xmlns:xlink="http://www.w3.org/1999/xlink"
 xmlns:xodm="http://www.corel.com/coreldraw/odm/2003">
 <defs>
  <style type="text/css">
   <![CDATA[
    .fil0 {fill:#A3F51E;fill-rule:nonzero}
   ]]>
  </style>
 </defs>
 <g id="Layer_x0020_1">
  <metadata id="CorelCorpID_0Corel-Layer"/>
  <g id="_2547090469296">
   <path class="fil0" d="M5.49 4.06c-0.09,0.73 -0.69,1.33 -1.42,1.42 -0.44,0.06 -0.86,-0.07 -1.18,-0.3 -0.18,-0.13 -0.14,-0.42 0.08,-0.49 0.83,-0.25 1.48,-0.91 1.74,-1.74 0.07,-0.22 0.35,-0.26 0.49,-0.08 0.23,0.33 0.36,0.74 0.3,1.18z"/>
   <path class="fil0" d="M2.2 0c-1.22,0 -2.2,0.99 -2.2,2.2 0,1.22 0.99,2.2 2.2,2.2 1.22,0 2.2,-0.99 2.2,-2.2 -0,-1.22 -0.99,-2.2 -2.2,-2.2zm-0.26 1.89l0.66 0.23c0.24,0.09 0.36,0.25 0.36,0.51 0,0.3 -0.24,0.54 -0.53,0.54l-0.02 0 0 0.01c0,0.11 -0.09,0.21 -0.21,0.21 -0.11,0 -0.21,-0.09 -0.21,-0.21l0 -0.02c-0.31,-0.01 -0.55,-0.27 -0.55,-0.59 0,-0.11 0.09,-0.21 0.21,-0.21 0.11,0 0.21,0.09 0.21,0.21 0,0.1 0.07,0.18 0.16,0.18l0.41 0c0.06,0 0.11,-0.06 0.11,-0.13 0,-0.1 -0.02,-0.1 -0.08,-0.12l-0.66 -0.23c-0.24,-0.08 -0.36,-0.25 -0.36,-0.51 0,-0.3 0.24,-0.54 0.53,-0.54l0.02 0 0 -0.01c0,-0.11 0.09,-0.21 0.21,-0.21 0.11,0 0.21,0.09 0.21,0.21l0 0.02c0.31,0.01 0.55,0.27 0.55,0.59 0,0.11 -0.09,0.21 -0.21,0.21 -0.11,0 -0.21,-0.09 -0.21,-0.21 0,-0.1 -0.07,-0.18 -0.16,-0.18l-0.41 0c-0.06,0 -0.11,0.06 -0.11,0.13 -0,0.09 0.01,0.1 0.08,0.12z"/>
  </g>
 </g>
</svg>
