<?xml version="1.0" encoding="UTF-8"?>
<!DOCTYPE svg PUBLIC "-//W3C//DTD SVG 1.1//EN" "http://www.w3.org/Graphics/SVG/1.1/DTD/svg11.dtd">
<!-- Creator: CorelDRAW -->
<svg xmlns="http://www.w3.org/2000/svg" xml:space="preserve" width="8.16663in" height="0.932024in" version="1.1" style="shape-rendering:geometricPrecision; text-rendering:geometricPrecision; image-rendering:optimizeQuality; fill-rule:evenodd; clip-rule:evenodd"
viewBox="0 0 1181.58 134.85"
 xmlns:xlink="http://www.w3.org/1999/xlink"
 xmlns:xodm="http://www.corel.com/coreldraw/odm/2003">
 <defs>
  <style type="text/css">
   <![CDATA[
    .fil0 {fill:#CFED89}
   ]]>
  </style>
 </defs>
 <g id="Layer_x0020_1">
  <metadata id="CorelCorpID_0Corel-Layer"/>
  <path class="fil0" d="M908.5 0l0.55 0 221.61 0 0 1.89 -221.05 0 -21.42 38.18 -0.27 0.48 -0.55 0 -211.23 0 -67.9 0 -249.9 0 -33.95 0 -52.45 0 -20.48 18.15 -0.27 0.24 -0.36 0 -16.03 0 -124.06 0 -16.69 18.08 -0.28 0.3 -0.41 0 -92.41 0 0 -1.89 92 0 16.69 -18.08 0.28 -0.3 0.41 0 124.48 0 15.67 0 20.48 -18.15 0.27 -0.24 0.36 0 52.81 0 33.95 0 249.9 0 67.9 0 210.68 0 21.42 -38.18 0.27 -0.48zm-565.72 63.18l0.47 0 330.99 0 191.43 0 0.41 0 0.28 0.3 25.18 27.05 240.06 0 0 1.89 -240.47 0 -0.41 0 -0.28 -0.3 -25.18 -27.05 -191.02 0 -330.53 0 -20.46 26.97 -0.28 0.37 -0.47 0 -23.58 0 -23.57 0 -30.18 0 -13.2 0 -111.27 0 -28.29 0 -92.41 0 0 -1.89 92.41 0 28.29 0 111.27 0 13.2 0 30.18 0 23.57 0 23.11 0 20.46 -26.97 0.28 -0.37zm25.93 28.29l-0.45 0 -0.28 0.35 -24.23 29.83 -33.5 0 -79.21 0 -154.32 0 -19.54 -15.82 -0.26 -0.21 -0.33 0 -56.58 0 0 1.89 56.25 0 19.54 15.82 0.26 0.21 0.33 0 154.65 0 79.21 0 33.95 0 0.45 0 0.28 -0.35 24.23 -29.83 190.98 0 32.06 0 77.33 0 157.1 0 42.16 41.22 0.28 0.27 0.38 0 312.13 0 0 -1.89 -311.75 0 -42.16 -41.22 -0.28 -0.27 -0.38 0 -157.48 0 -77.33 0 -32.06 0 -191.43 0z"/>
 </g>
</svg>
