<svg width="65" height="64" viewBox="0 0 65 64" fill="none" xmlns="http://www.w3.org/2000/svg">
<g clip-path="url(#clip0_145_10659)">
<path d="M14.8505 38.6762L12.6227 46.9927L4.48037 47.1649C2.047 42.6516 0.666748 37.4877 0.666748 32.0002C0.666748 26.6938 1.95725 21.6898 4.24475 17.2837H4.2465L11.4955 18.6127L14.671 25.8182C14.0064 27.7558 13.6441 29.8358 13.6441 32.0002C13.6444 34.3492 14.0699 36.5998 14.8505 38.6762Z" fill="#FBBB00"/>
<path d="M64.1077 26.022C64.4752 27.9577 64.6669 29.9568 64.6669 32C64.6669 34.291 64.426 36.5257 63.9671 38.6813C62.4094 46.0167 58.339 52.422 52.7004 56.9547L52.6986 56.953L43.5681 56.4871L42.2759 48.4202C46.0174 46.226 48.9414 42.7921 50.4816 38.6813H33.3704V26.022H50.7312H64.1077Z" fill="#518EF8"/>
<path d="M52.6985 56.9531L52.7002 56.9549C47.2163 61.3628 40.2501 64.0001 32.6668 64.0001C20.4805 64.0001 9.88534 57.1888 4.48047 47.165L14.8506 38.6763C17.553 45.8885 24.5103 51.0226 32.6668 51.0226C36.1727 51.0226 39.4572 50.0749 42.2756 48.4204L52.6985 56.9531Z" fill="#28B446"/>
<path d="M53.0921 7.367L42.7255 15.854C39.8086 14.0308 36.3606 12.9775 32.6666 12.9775C24.3255 12.9775 17.238 18.3471 14.671 25.818L4.24638 17.2835H4.24463C9.57038 7.01538 20.2991 0 32.6666 0C40.431 0 47.5501 2.76575 53.0921 7.367Z" fill="#F14336"/>
</g>
<defs>
<clipPath id="clip0_145_10659">
<rect width="64" height="64" fill="white" transform="translate(0.666748)"/>
</clipPath>
</defs>
</svg>
