<svg width="263" height="392" viewBox="0 0 263 392" fill="none" xmlns="http://www.w3.org/2000/svg">
<g clip-path="url(#clip0_2035_22662)">
<path d="M-20.66 -134V438.273M46.9831 -134V438.273M114.626 -134V438.273M182.269 -134V438.273M249.912 -134V438.273M317.555 -134V438.273M385.198 -134V438.273M452.841 -134V438.273M520.484 -134V438.273M588.128 -134V438.273M655.771 -134V438.273M723.414 -134V438.273M-79.6875 -67.0483H782.312M-79.6875 -0.00389099H782.312M-79.6875 67.0406H782.312M-79.6875 134.085H782.312M-79.6875 201.129H782.312M-79.6875 268.174H782.312M-79.6875 335.218H782.312M-79.6875 402.263H782.312" stroke="url(#paint0_linear_2035_22662)" stroke-width="0.598611"/>
</g>
<defs>
<linearGradient id="paint0_linear_2035_22662" x1="235" y1="32" x2="97" y2="187.5" gradientUnits="userSpaceOnUse">
<stop stop-color="#E9E9E9"/>
<stop offset="1" stop-color="#F8F8F8"/>
</linearGradient>
<clipPath id="clip0_2035_22662">
<rect width="263" height="392" fill="white"/>
</clipPath>
</defs>
</svg>
