<svg width="351" height="330" viewBox="0 0 351 330" fill="none" xmlns="http://www.w3.org/2000/svg">
<g clip-path="url(#clip0_2755_158376)">
<path d="M51.5 -11.9349L17.5 116.272M17.5 116.272L155.5 -21L204.5 85.5M17.5 116.272L326.5 280.5L204.5 85.5M17.5 116.272L123.5 315.5M17.5 116.272H0M123.5 315.5L204.5 85.5M123.5 315.5L411 81.3065L245.489 -21L204.5 85.5" stroke="url(#paint0_linear_2755_158376)"/>
<circle cx="124.5" cy="316.5" r="9" fill="#68570C"/>
<rect x="193" y="71" width="24" height="24" rx="12" fill="#68570C"/>
<circle cx="205" cy="83" r="10" fill="url(#paint1_linear_2755_158376)"/>
<rect x="2" y="98" width="36" height="36" rx="18" fill="#68570C"/>
<circle cx="20" cy="116" r="13.5" fill="url(#paint2_linear_2755_158376)"/>
<rect x="314" y="268" width="31" height="31" rx="15.5" fill="#68570C"/>
<circle cx="329.5" cy="283.5" r="13.5" fill="url(#paint3_linear_2755_158376)"/>
</g>
<defs>
<linearGradient id="paint0_linear_2755_158376" x1="205.5" y1="-21" x2="205.5" y2="315.5" gradientUnits="userSpaceOnUse">
<stop stop-color="#FDD426" stop-opacity="0.5"/>
<stop offset="1" stop-color="#977F17" stop-opacity="0.1"/>
</linearGradient>
<linearGradient id="paint1_linear_2755_158376" x1="205" y1="73" x2="205" y2="93" gradientUnits="userSpaceOnUse">
<stop stop-color="#131313"/>
<stop offset="1" stop-color="#060606"/>
</linearGradient>
<linearGradient id="paint2_linear_2755_158376" x1="20" y1="102.5" x2="20" y2="129.5" gradientUnits="userSpaceOnUse">
<stop stop-color="#131313"/>
<stop offset="1" stop-color="#060606"/>
</linearGradient>
<linearGradient id="paint3_linear_2755_158376" x1="329.5" y1="270" x2="329.5" y2="297" gradientUnits="userSpaceOnUse">
<stop stop-color="#131313"/>
<stop offset="1" stop-color="#060606"/>
</linearGradient>
<clipPath id="clip0_2755_158376">
<rect width="351" height="330" fill="white"/>
</clipPath>
</defs>
</svg>
