<svg width="110" height="110" viewBox="0 0 110 110" fill="none" xmlns="http://www.w3.org/2000/svg">
<path d="M28.164 92.9823C28.6055 93.2917 28.9485 93.6467 29.193 94.0472C29.4267 94.4497 29.5465 94.8583 29.5525 95.2732C29.554 95.6943 29.4305 96.09 29.1819 96.4601L28.251 95.8076C28.4382 95.4709 28.4959 95.1151 28.424 94.7401C28.3413 94.367 28.0825 94.028 27.6474 93.7231C27.2315 93.4316 26.8337 93.3055 26.4538 93.3448C26.0631 93.3861 25.7537 93.5703 25.5255 93.8973C25.3466 94.1539 25.2716 94.4117 25.3005 94.6707C25.3295 94.9297 25.4204 95.1748 25.5734 95.4062C25.7264 95.6376 25.9484 95.9269 26.2396 96.2742C26.6006 96.6991 26.8751 97.0634 27.0633 97.3672C27.2451 97.6665 27.347 98.0052 27.3689 98.3835C27.38 98.7637 27.2402 99.1622 26.9494 99.5791C26.6945 99.9447 26.3758 100.204 25.9935 100.356C25.6111 100.508 25.1999 100.544 24.7599 100.465C24.3134 100.381 23.8727 100.187 23.4376 99.8821C22.8106 99.4426 22.4084 98.9268 22.2309 98.3345C22.047 97.7377 22.1107 97.1616 22.4218 96.6062L23.3815 97.2788C23.2345 97.5578 23.2123 97.8765 23.3149 98.2348C23.4129 98.5995 23.6571 98.9187 24.0473 99.1922C24.412 99.4478 24.7766 99.5601 25.1411 99.5291C25.5012 99.5046 25.7997 99.3223 26.0368 98.9824C26.2068 98.7387 26.2783 98.4928 26.2513 98.2447C26.2179 97.9921 26.1311 97.7546 25.9909 97.5322C25.8399 97.3118 25.6178 97.0224 25.3247 96.6642C24.9682 96.2329 24.6981 95.8622 24.5144 95.552C24.3262 95.2482 24.2234 94.904 24.2059 94.5193C24.1839 94.1411 24.3206 93.7403 24.6158 93.317C24.8439 92.9899 25.145 92.7426 25.519 92.5751C25.8931 92.4075 26.3122 92.3528 26.7766 92.4109C27.2409 92.4689 27.7034 92.6594 28.164 92.9823Z" fill="white"/>
<path d="M22.038 93.7131C21.4789 94.2814 20.8495 94.6649 20.1498 94.8634C19.4446 95.0675 18.7465 95.0807 18.0552 94.9029C17.3584 94.7196 16.7404 94.3614 16.2013 93.8283C15.5677 93.2019 15.1654 92.5019 14.9944 91.7283C14.8234 90.9548 14.9064 90.1795 15.2433 89.4024L16.152 90.3009C15.9679 90.8112 15.9355 91.3123 16.0548 91.804C16.1686 92.2902 16.4366 92.7421 16.8591 93.1597C17.2648 93.5609 17.722 93.8261 18.2308 93.9554C18.7396 94.0846 19.2583 94.0644 19.7871 93.8947C20.3104 93.7306 20.8022 93.4145 21.2627 92.9465C21.7177 92.484 22.0261 91.9866 22.188 91.4542C22.3445 90.9274 22.3547 90.41 22.2187 89.9018C22.0827 89.3936 21.8118 88.939 21.4061 88.5378C20.9836 88.1201 20.5319 87.8549 20.0509 87.742C19.5588 87.6292 19.0595 87.6687 18.553 87.8604L17.6442 86.9619C18.4092 86.619 19.1786 86.5279 19.9525 86.6885C20.721 86.8548 21.422 87.2511 22.0556 87.8775C22.5948 88.4106 22.9634 89.0223 23.1613 89.7126C23.3483 90.4031 23.3475 91.1003 23.1592 91.8044C22.9709 92.5085 22.5972 93.1447 22.038 93.7131Z" fill="white"/>
<path d="M15.8689 80.4429L14.2616 83.9633L15.0038 85.0186L17.7313 83.0908L18.3453 83.9638L11.675 88.6786L10.1568 86.52C9.80141 86.0148 9.58836 85.5286 9.5177 85.0614C9.44257 84.5879 9.49097 84.1611 9.663 83.7809C9.83502 83.4008 10.1092 83.0777 10.4857 82.8116C10.945 82.4869 11.4446 82.3349 11.9845 82.3555C12.5198 82.3697 13.0316 82.6016 13.5198 83.0513L15.1334 79.3972L15.8689 80.4429ZM14.3052 85.5124L13.401 84.2269C13.0681 83.7536 12.7036 83.4798 12.3075 83.4055C11.905 83.3357 11.5091 83.4384 11.12 83.7134C10.7244 83.993 10.5014 84.3279 10.4509 84.7178C10.3959 85.1014 10.5371 85.533 10.8745 86.0127L11.7787 87.2983L14.3052 85.5124Z" fill="white"/>
<path d="M12.7651 74.6813C13.0884 75.3678 13.2245 76.0693 13.1734 76.7857C13.1153 77.5056 12.8786 78.1671 12.4635 78.7703C12.0379 79.3698 11.4651 79.8399 10.745 80.1807C10.025 80.5215 9.3024 80.6644 8.57728 80.6095C7.84179 80.5508 7.18191 80.3136 6.59761 79.8978C6.00627 79.4853 5.54897 78.9359 5.22569 78.2494C4.89911 77.5559 4.76488 76.8492 4.82298 76.1293C4.87405 75.4129 5.10883 74.7565 5.52733 74.1604C5.94586 73.5643 6.51864 73.0941 7.24576 72.75C7.97288 72.4059 8.69901 72.2613 9.4241 72.3162C10.1492 72.3711 10.8074 72.6049 11.3988 73.0173C11.9831 73.4331 12.4385 73.9878 12.7651 74.6813ZM11.9286 75.0772C11.6853 74.5606 11.347 74.1539 10.9137 73.857C10.477 73.5531 9.98135 73.3895 9.42663 73.3665C8.8686 73.3364 8.29659 73.4599 7.71066 73.7372C7.11768 74.0178 6.65902 74.3821 6.33463 74.8298C5.99986 75.2738 5.80914 75.7579 5.76239 76.2819C5.71568 76.806 5.81562 77.3298 6.06223 77.8535C6.30886 78.3772 6.64883 78.7875 7.08212 79.0843C7.51544 79.3812 8.01113 79.5447 8.56916 79.5748C9.11682 79.6012 9.68714 79.4741 10.2801 79.1935C10.8661 78.9162 11.3264 78.5555 11.6612 78.1115C11.9926 77.6605 12.1817 77.1729 12.2284 76.6488C12.2718 76.1177 12.1719 75.5938 11.9286 75.0772Z" fill="white"/>
<path d="M9.47015 68.8109L8.68092 66.0581L9.51373 65.8182L10.5973 69.5977L2.75318 71.8577L2.45883 70.8311L9.47015 68.8109Z" fill="white"/>
<path d="M8.22282 63.7923L7.73799 60.9695L8.59194 60.8221L9.2576 64.6976L1.21428 66.086L1.03346 65.0332L8.22282 63.7923Z" fill="white"/>
<path d="M0.0974153 53.6901C0.131533 52.7986 0.328727 52.0348 0.689 51.3986C1.04177 50.7543 1.53287 50.272 2.1623 49.9516C2.79202 49.6234 3.52423 49.4754 4.3589 49.5075C5.19358 49.5396 5.91232 49.7434 6.51511 50.119C7.1104 50.4865 7.55929 51.005 7.86178 51.6745C8.15675 52.3358 8.28721 53.1123 8.25309 54.0038L8.15568 56.5492L0 56.2355L0.0974153 53.6901ZM7.37551 53.97C7.41591 52.9143 7.16979 52.0982 6.63721 51.5217C6.0968 50.9449 5.32345 50.6371 4.31715 50.5984C3.30306 50.5594 2.50051 50.8105 1.90951 51.3516C1.3188 51.8849 1.0034 52.6756 0.963298 53.7234L0.906734 55.2014L7.31894 55.448L7.37551 53.97Z" fill="white"/>
<path d="M9.48118 44.6335C9.31362 45.3738 8.98945 46.0102 8.50869 46.5428C8.02028 47.0737 7.42718 47.4484 6.72935 47.6668C6.02562 47.8759 5.2855 47.8921 4.50898 47.7155C3.73246 47.5388 3.07559 47.2049 2.53841 46.7135C1.99532 46.2129 1.6216 45.6182 1.41721 44.9298C1.20519 44.2396 1.18297 43.5244 1.35053 42.784C1.51981 42.0362 1.84866 41.3967 2.33704 40.8658C2.81781 40.3332 3.40625 39.9615 4.10237 39.7507C4.79848 39.5399 5.5386 39.5237 6.32274 39.702C7.10687 39.8804 7.76754 40.2152 8.30472 40.7066C8.84191 41.1979 9.21648 41.7887 9.42852 42.4789C9.63292 43.1673 9.65046 43.8856 9.48118 44.6335ZM8.57905 44.4283C8.70515 43.8711 8.68889 43.3419 8.53022 42.8403C8.37328 42.3312 8.08352 41.8961 7.66091 41.5351C7.24003 41.1665 6.71364 40.9104 6.08176 40.7667C5.44228 40.6212 4.85717 40.6245 4.32643 40.7767C3.78981 40.9194 3.34199 41.1827 2.98295 41.5665C2.62392 41.9503 2.38049 42.4245 2.25267 42.9893C2.12485 43.554 2.14026 44.0871 2.29891 44.5887C2.45756 45.0902 2.74733 45.5252 3.16821 45.8938C3.58321 46.253 4.11046 46.5054 4.74995 46.6508C5.38182 46.7946 5.96607 46.795 6.50269 46.6523C7.04105 46.5019 7.48972 46.2349 7.84876 45.8511C8.20954 45.4597 8.45294 44.9854 8.57905 44.4283Z" fill="white"/>
<path d="M7.77413 26.3938L14.1171 32.0626L13.6019 33.1428L6.85703 32.0179L11.9351 36.6377L11.4355 37.7124L3.07668 36.2433L3.56661 35.2161L10.5779 36.5987L5.18289 31.8271L5.69807 30.7468L12.7286 32.0347L7.27899 27.432L7.77413 26.3938Z" fill="white"/>
<path d="M19.8973 23.9173L19.2462 24.7629L11.4829 24.1827L16.6273 28.1638L15.9761 29.0094L9.50626 24.0025L10.1574 23.1569L17.9114 23.7299L12.7763 19.756L13.4274 18.9104L19.8973 23.9173Z" fill="white"/>
<path d="M38.987 11.1291C38.4813 11.3151 37.9941 11.3941 37.527 11.3659C37.064 11.3277 36.6607 11.1926 36.3183 10.96C35.9726 10.7204 35.7194 10.3925 35.5593 9.97628L36.6257 9.58418C36.7938 9.93081 37.0517 10.1819 37.4001 10.3372C37.7526 10.4827 38.1776 10.4639 38.6765 10.2805C39.1526 10.1054 39.4834 9.85041 39.6688 9.51553C39.8583 9.17075 39.8849 8.81088 39.7478 8.43618C39.6403 8.14228 39.4719 7.93332 39.2439 7.80875C39.0152 7.68444 38.7628 7.61888 38.486 7.61229C38.2092 7.6057 37.8452 7.62285 37.3947 7.66347C36.8406 7.71716 36.3854 7.73448 36.0292 7.71541C35.6799 7.69382 35.3449 7.58359 35.0229 7.38525C34.705 7.17703 34.4594 6.83387 34.2847 6.35631C34.1315 5.93752 34.1015 5.52758 34.1963 5.12598C34.2903 4.72464 34.4957 4.36569 34.8125 4.04914C35.1362 3.73007 35.5472 3.47894 36.046 3.29553C36.764 3.03152 37.416 2.99602 38.0025 3.18878C38.596 3.37902 39.0304 3.76109 39.3073 4.33449L38.2079 4.73872C38.0633 4.45847 37.8153 4.25791 37.4639 4.13703C37.1092 4.00906 36.7082 4.02731 36.2616 4.19153C35.8438 4.34514 35.5433 4.58066 35.3601 4.89809C35.1742 5.20817 35.1525 5.55792 35.295 5.94732C35.3972 6.22651 35.5574 6.42598 35.7759 6.54572C36.0012 6.66293 36.2453 6.72735 36.5077 6.73925C36.7743 6.74126 37.1383 6.72412 37.5991 6.68807C38.1558 6.64172 38.6137 6.63175 38.9726 6.65817C39.3288 6.67723 39.6692 6.78961 39.9939 6.99531C40.316 7.19365 40.5657 7.53529 40.7431 8.0202C40.8802 8.39491 40.9103 8.78396 40.8334 9.18734C40.7565 9.59073 40.5612 9.96676 40.2482 10.3152C39.9346 10.664 39.5147 10.9351 38.987 11.1291Z" fill="white"/>
<path d="M41.8881 5.67582C41.7421 4.89112 41.7881 4.1541 42.0247 3.46504C42.2605 2.76814 42.6488 2.18606 43.1887 1.7189C43.7373 1.25013 44.3835 0.9462 45.1274 0.807102C46.0023 0.64352 46.8057 0.712218 47.5363 1.01346C48.2675 1.31457 48.8547 1.82572 49.2986 2.54676L48.0439 2.78137C47.7314 2.33827 47.3397 2.02542 46.8687 1.84282C46.4056 1.65874 45.8827 1.62118 45.2992 1.73028C44.7395 1.83494 44.2609 2.05976 43.8642 2.4046C43.4683 2.7493 43.1881 3.18779 43.025 3.71982C42.8605 4.24414 42.8384 4.82942 42.9586 5.47565C43.0774 6.11418 43.3085 6.6521 43.6519 7.08942C43.9939 7.51904 44.4123 7.82293 44.9056 8.00137C45.3996 8.17969 45.9268 8.21641 46.4865 8.11175C47.07 8.00265 47.545 7.78249 47.9121 7.45113C48.2858 7.11059 48.5387 6.67721 48.6708 6.15098L49.9255 5.91637C49.7694 6.74165 49.4048 7.42676 48.8309 7.97192C48.2564 8.50923 47.531 8.85981 46.6562 9.02339C45.9122 9.16249 45.2009 9.11639 44.5221 8.88508C43.8504 8.64444 43.2797 8.24567 42.8105 7.68858C42.342 7.13135 42.034 6.46052 41.8881 5.67582Z" fill="white"/>
<path d="M56.2755 8.16806L54.3042 4.83871L53.0162 4.84936L53.0437 8.19479L51.9782 8.2036L51.9109 0.0219685L54.5455 0.000182936C55.1617 -0.00491248 55.6821 0.096436 56.1054 0.304241C56.536 0.511985 56.8589 0.794965 57.0726 1.1532C57.2863 1.51144 57.3951 1.92141 57.3989 2.38311C57.4035 2.94655 57.2437 3.44483 56.9194 3.87795C56.6024 4.31101 56.121 4.60064 55.4745 4.74686L57.5518 8.15751L56.2755 8.16806ZM53.0091 3.99246L54.5782 3.97948C55.1556 3.97471 55.5877 3.83027 55.8744 3.54616C56.1604 3.25422 56.3022 2.86958 56.2982 2.39221C56.2942 1.90703 56.1462 1.5326 55.8557 1.26892C55.5725 1.00517 55.1382 0.875718 54.5527 0.880559L52.9836 0.893534L53.0091 3.99246Z" fill="white"/>
<path d="M62.7705 8.88209C62.023 8.75936 61.3696 8.47366 60.8103 8.02498C60.2523 7.56855 59.8427 6.99777 59.5831 6.31281C59.3319 5.6213 59.271 4.88175 59.3997 4.094C59.5284 3.30626 59.8208 2.62867 60.2776 2.06133C60.7429 1.48745 61.3127 1.07744 61.9856 0.831055C62.6597 0.576945 63.3705 0.511253 64.118 0.63398C64.8727 0.757893 65.5298 1.04817 66.0879 1.50457C66.6472 1.95325 67.053 2.51948 67.3054 3.20326C67.5579 3.88704 67.6187 4.6266 67.4888 5.42206C67.3588 6.21753 67.0658 6.89899 66.609 7.46632C66.1522 8.03366 65.5867 8.44436 64.9126 8.6985C64.2398 8.94488 63.5252 9.006 62.7705 8.88209ZM62.92 7.96692C63.4826 8.05929 64.0082 8.01079 64.4982 7.82159C64.9954 7.63359 65.4112 7.31725 65.7449 6.87244C66.0865 6.42894 66.3094 5.88662 66.4141 5.24562C66.5201 4.59689 66.4814 4.01166 66.2975 3.48979C66.1228 2.96151 65.8337 2.52944 65.4295 2.19345C65.0253 1.85747 64.5383 1.64271 63.9685 1.54915C63.3986 1.45559 62.8687 1.5034 62.3788 1.69259C61.8888 1.88177 61.4737 2.19823 61.1321 2.64173C60.7996 3.07881 60.5804 3.62172 60.4744 4.27045C60.3697 4.91145 60.4047 5.4961 60.5794 6.02438C60.7621 6.55397 61.0548 6.98663 61.459 7.32261C61.8704 7.6598 62.3574 7.87455 62.92 7.96692Z" fill="white"/>
<path d="M69.4599 9.48508L72.1712 10.3885L71.8979 11.2129L68.1754 9.97246L70.7498 2.20823L71.7609 2.54517L69.4599 9.48508Z" fill="white"/>
<path d="M74.2936 11.2869L76.8925 12.477L76.5325 13.2671L72.9643 11.6332L76.3554 4.19097L77.3247 4.6348L74.2936 11.2869Z" fill="white"/>
<path d="M87.1844 10.2299C87.9012 10.7587 88.4213 11.3512 88.7441 12.007C89.0779 12.6613 89.2007 13.3397 89.1117 14.0416C89.0291 14.7482 88.7404 15.4388 88.2453 16.1133C87.7503 16.7878 87.1786 17.2696 86.5302 17.5589C85.8928 17.8467 85.2126 17.9279 84.4901 17.8031C83.7788 17.6767 83.0644 17.349 82.3475 16.8203L80.3008 15.3107L85.1377 8.72034L87.1844 10.2299ZM82.868 16.1111C83.7169 16.7372 84.529 16.9913 85.3037 16.8729C86.0836 16.7486 86.7714 16.2795 87.3682 15.4663C87.9696 14.6468 88.2128 13.8401 88.0978 13.046C87.9893 12.2567 87.5138 11.5514 86.6709 10.9296L85.4824 10.0531L81.6796 15.2346L82.868 16.1111Z" fill="white"/>
<path d="M89.4019 23.0942C88.8835 22.5405 88.5389 21.9149 88.3679 21.2176C88.2021 20.5143 88.2245 19.8121 88.4347 19.1103C88.6556 18.4085 89.0566 17.7848 89.6373 17.2386C90.2179 16.6923 90.8615 16.3334 91.5685 16.1624C92.2862 15.9913 92.9867 16.0134 93.6705 16.2293C94.3596 16.4394 94.9633 16.8213 95.4816 17.375C96.0049 17.9341 96.3492 18.565 96.5151 19.2682C96.6861 19.9655 96.664 20.6624 96.4488 21.3589C96.233 22.0548 95.8325 22.6791 95.2462 23.2306C94.6598 23.7822 94.0129 24.1433 93.3064 24.3149C92.5994 24.4859 91.9014 24.4664 91.2124 24.2564C90.5285 24.0405 89.9252 23.6533 89.4019 23.0942ZM90.0764 22.4596C90.4661 22.8759 90.9129 23.1588 91.4164 23.3079C91.925 23.4623 92.447 23.4653 92.9819 23.3163C93.5218 23.1726 94.0285 22.879 94.501 22.4345C94.9792 21.9847 95.3036 21.4964 95.4752 20.9707C95.6576 20.445 95.6903 19.9253 95.5744 19.4126C95.4579 18.8994 95.2021 18.4317 94.807 18.0096C94.4114 17.5869 93.9621 17.3013 93.459 17.1527C92.9555 17.0036 92.4335 17.0007 91.8936 17.1444C91.3643 17.2881 90.8606 17.5848 90.3824 18.0346C89.91 18.4791 89.5825 18.9642 89.4002 19.4899C89.2228 20.0209 89.1926 20.5433 89.3091 21.0566C89.4305 21.5752 89.6863 22.0429 90.0764 22.4596Z" fill="white"/>
<path d="M105.44 31.8685L97.2065 33.9745L96.6007 32.9426L101.3 27.9637L94.6409 29.604L94.031 28.5881L99.9171 22.4597L100.493 23.441L95.4315 28.4974L102.394 26.6785L102.999 27.7104L98.0054 32.8358L104.858 30.877L105.44 31.8685Z" fill="white"/>
<path d="M100.712 43.3302L100.377 42.3162L105.197 36.1881L99.0282 38.238L98.6929 37.2241L106.451 34.646L106.786 35.66L101.977 41.7843L108.135 39.7381L108.47 40.7521L100.712 43.3302Z" fill="white"/>
<path d="M101.67 60.1897C101.731 59.6532 101.879 59.1813 102.113 58.7754C102.355 58.3777 102.656 58.077 103.017 57.8746C103.386 57.6723 103.792 57.5925 104.235 57.6358L104.106 58.7671C103.722 58.7623 103.382 58.8807 103.087 59.1231C102.8 59.3738 102.626 59.763 102.565 60.2922C102.508 60.7973 102.587 61.2081 102.802 61.5244C103.025 61.8489 103.334 62.0341 103.729 62.0794C104.039 62.1149 104.301 62.0577 104.515 61.9093C104.728 61.7602 104.9 61.5635 105.03 61.3184C105.16 61.0734 105.308 60.7396 105.474 60.3177C105.674 59.7972 105.863 59.3816 106.04 59.071C106.216 58.7677 106.464 58.517 106.786 58.3175C107.114 58.1261 107.53 58.06 108.034 58.1177C108.476 58.1683 108.855 58.3253 109.171 58.5903C109.486 58.8546 109.714 59.1997 109.854 59.6255C109.993 60.0587 110.033 60.5395 109.973 61.0687C109.886 61.8305 109.625 62.4305 109.19 62.8696C108.754 63.316 108.219 63.5338 107.584 63.5246L107.716 62.3583C108.031 62.3545 108.321 62.2222 108.586 61.9617C108.86 61.7012 109.023 61.3338 109.077 60.86C109.128 60.4168 109.052 60.0419 108.852 59.7354C108.659 59.4297 108.357 59.2534 107.945 59.2063C107.651 59.1726 107.401 59.2268 107.196 59.3687C106.991 59.518 106.824 59.7079 106.695 59.9376C106.574 60.1755 106.426 60.5094 106.251 60.9384C106.043 61.458 105.847 61.8727 105.662 62.1824C105.485 62.493 105.232 62.7476 104.903 62.9463C104.582 63.1458 104.165 63.2163 103.653 63.1577C103.258 63.1125 102.898 62.9649 102.572 62.715C102.247 62.4652 102 62.1215 101.829 61.6848C101.659 61.2474 101.606 60.7495 101.67 60.1897Z" fill="white"/>
<path d="M105.226 65.2481C105.991 65.4716 106.626 65.8454 107.133 66.368C107.647 66.8934 107.989 67.5034 108.162 68.1973C108.331 68.8996 108.31 69.6149 108.099 70.3431C107.849 71.1996 107.426 71.8874 106.828 72.405C106.23 72.9233 105.51 73.2179 104.668 73.2896L105.025 72.0613C105.56 71.9817 106.016 71.7724 106.391 71.4335C106.764 71.1023 107.033 70.6514 107.199 70.0802C107.359 69.5322 107.374 69.0027 107.246 68.4922C107.118 67.9824 106.854 67.5338 106.454 67.1479C106.062 66.7641 105.551 66.4802 104.921 66.2962C104.299 66.1143 103.716 66.0783 103.172 66.1882C102.635 66.3003 102.176 66.5374 101.794 66.8982C101.413 67.2597 101.142 67.7148 100.983 68.2627C100.817 68.834 100.798 69.3582 100.927 69.8362C101.062 70.3242 101.334 70.746 101.743 71.1016L101.385 72.33C100.721 71.8179 100.276 71.1825 100.049 70.4232C99.8302 69.6667 99.8455 68.8596 100.095 68.0031C100.306 67.2748 100.669 66.6592 101.181 66.1563C101.698 65.6641 102.311 65.3334 103.018 65.1651C103.726 64.9974 104.462 65.0246 105.226 65.2481Z" fill="white"/>
<path d="M96.4996 76.9874L100.354 76.7379L100.929 75.5826L97.9429 74.0886L98.4188 73.1328L105.721 76.7866L104.545 79.1498C104.27 79.7026 103.943 80.1215 103.566 80.4052C103.186 80.6955 102.788 80.8555 102.373 80.8838C101.957 80.9121 101.544 80.8231 101.131 80.6169C100.629 80.3653 100.258 79.9963 100.02 79.51C99.7795 79.0303 99.7406 78.4688 99.9041 77.825L95.9296 78.1323L96.4996 76.9874ZM101.694 75.9653L100.993 77.3727C100.735 77.8906 100.667 78.3422 100.79 78.7273C100.919 79.1152 101.197 79.4165 101.623 79.6296C102.056 79.8463 102.456 79.8841 102.822 79.7443C103.185 79.611 103.498 79.2818 103.759 78.7567L104.46 77.3492L101.694 75.9653Z" fill="white"/>
<path d="M92.9085 82.4584C93.3584 81.8475 93.9101 81.3949 94.5635 81.1005C95.2232 80.8109 95.9167 80.7059 96.6432 80.7867C97.3716 80.878 98.0559 81.161 98.6965 81.6351C99.3371 82.1092 99.8052 82.6792 100.1 83.3455C100.398 84.0223 100.502 84.7177 100.414 85.4303C100.332 86.1476 100.066 86.8117 99.6159 87.4226C99.1617 88.0394 98.6043 88.4932 97.9446 88.7829C97.2912 89.0772 96.6034 89.181 95.8813 89.0943C95.1591 89.0076 94.4749 88.7246 93.828 88.2458C93.1811 87.7671 92.7098 87.1948 92.4145 86.5285C92.1193 85.8622 92.0126 85.1704 92.0945 84.4531C92.1827 83.7405 92.4543 83.0752 92.9085 82.4584ZM93.6528 83.0092C93.3141 83.469 93.1175 83.96 93.062 84.4834C93.0021 85.0127 93.0932 85.5279 93.3359 86.0285C93.5738 86.5356 93.9535 86.9818 94.4748 87.3675C95.0023 87.758 95.5395 87.9905 96.0867 88.0644C96.6353 88.1495 97.1508 88.0886 97.6334 87.8813C98.116 87.674 98.5287 87.3375 98.8717 86.8718C99.2147 86.4061 99.4139 85.9115 99.4695 85.3881C99.525 84.8647 99.4334 84.3501 99.1955 83.843C98.9592 83.3471 98.5772 82.9039 98.0497 82.5134C97.5284 82.1276 96.9934 81.8922 96.4448 81.8071C95.8913 81.7285 95.3737 81.7923 94.8911 81.9996C94.4041 82.2129 93.9914 82.5494 93.6528 83.0092Z" fill="white"/>
<path d="M89.3153 88.1508L87.2733 90.1541L86.6672 89.5333L89.4708 86.7828L95.1793 92.6305L94.4177 93.3777L89.3153 88.1508Z" fill="white"/>
<path d="M85.5046 91.6338L83.2587 93.4043L82.7231 92.7214L85.8066 90.2906L90.8517 96.7221L90.0141 97.3824L85.5046 91.6338Z" fill="white"/>
<path d="M80.5358 103.603C79.7385 103.999 78.9749 104.191 78.2455 104.178C77.5123 104.176 76.8547 103.974 76.2731 103.573C75.6844 103.176 75.2044 102.602 74.8332 101.852C74.4621 101.102 74.2968 100.372 74.3375 99.6612C74.3744 98.9615 74.6141 98.3182 75.0558 97.7316C75.4938 97.1557 76.1118 96.6693 76.909 96.2728L79.1854 95.1409L82.8121 102.471L80.5358 103.603ZM77.2993 97.0615C76.3552 97.531 75.7578 98.1382 75.5078 98.8828C75.2605 99.6346 75.3614 100.462 75.8088 101.367C76.2598 102.278 76.8636 102.865 77.6204 103.126C78.3699 103.391 79.2132 103.291 80.1507 102.824L81.4725 102.167L78.621 96.4043L77.2993 97.0615Z" fill="white"/>
<path d="M68.1117 99.6883C68.84 99.4794 69.5525 99.4582 70.2493 99.6247C70.9483 99.7986 71.5617 100.14 72.0881 100.648C72.6097 101.166 72.9796 101.809 73.1986 102.576C73.4176 103.343 73.4417 104.081 73.2702 104.79C73.0937 105.508 72.753 106.123 72.2494 106.633C71.748 107.151 71.1332 107.515 70.4049 107.724C69.6696 107.935 68.9518 107.953 68.2528 107.779C67.556 107.613 66.9479 107.275 66.4285 106.764C65.9091 106.254 65.5391 105.611 65.318 104.836C65.0968 104.061 65.0717 103.32 65.2432 102.611C65.4148 101.903 65.7513 101.289 66.2527 100.771C66.7562 100.26 67.3764 99.8992 68.1117 99.6883ZM68.3661 100.58C67.818 100.737 67.3634 101.006 67.0008 101.387C66.6313 101.769 66.3899 102.233 66.2775 102.778C66.1574 103.326 66.1868 103.911 66.365 104.536C66.5453 105.168 66.8295 105.681 67.218 106.074C67.601 106.477 68.0463 106.744 68.5549 106.875C69.0635 107.006 69.5953 106.992 70.1505 106.832C70.7056 106.673 71.1645 106.403 71.527 106.022C71.8896 105.642 72.1302 105.178 72.2503 104.631C72.3649 104.093 72.332 103.508 72.1516 102.876C71.9734 102.252 71.6928 101.738 71.3099 101.335C70.9192 100.934 70.4703 100.668 69.9617 100.537C69.4461 100.408 68.9143 100.423 68.3661 100.58Z" fill="white"/>
<path d="M53.0182 110L54.8931 101.691L56.0854 101.62L58.3704 108.08L59.9427 101.389L61.1226 101.307L63.8889 109.35L62.7551 109.417L60.5661 102.598L59.0146 109.641L57.8223 109.713L55.5412 102.923L54.1637 109.931L53.0182 110Z" fill="white"/>
<path d="M44.9871 100.593L46.0409 100.751L49.3165 107.831L50.2794 101.388L51.3332 101.546L50.1222 109.649L49.0684 109.491L45.7911 102.423L44.8299 108.854L43.7761 108.696L44.9871 100.593Z" fill="white"/>
</svg>
