<svg width="56" height="55" viewBox="0 0 56 55" fill="none" xmlns="http://www.w3.org/2000/svg">
<path d="M55.3248 27.1923C55.3248 26.9826 55.3208 26.7679 55.3118 26.5623C55.2996 26.1854 55.2775 25.8085 55.2482 25.4357C55.2441 25.3414 55.2392 25.2513 55.231 25.1571C55.1666 24.4377 55.081 23.7216 54.961 23.0194C54.7041 21.4512 54.3142 19.9305 53.8044 18.4696C53.6583 18.037 53.496 17.6167 53.3288 17.1972C53.2603 17.0341 53.1918 16.8719 53.1232 16.7089C52.8834 16.1476 52.6265 15.5995 52.3524 15.0595L52.0954 14.5712C51.1745 12.8448 50.0692 11.225 48.8048 9.74279C48.6637 9.57565 48.5177 9.4085 48.3725 9.24135C47.9915 8.80874 47.5886 8.38843 47.1774 7.98204C46.8773 7.67806 46.5689 7.38636 46.2516 7.10368C41.376 2.69071 34.9106 0 27.8285 0C20.7505 0 14.29 2.68661 9.41035 7.10368C9.09303 7.38636 8.78468 7.67806 8.48041 7.98204C8.06929 8.38433 7.6704 8.80874 7.28538 9.24135C7.13937 9.4085 6.99417 9.57565 6.85223 9.74279C5.59276 11.225 4.48747 12.8448 3.56652 14.5712L3.30956 15.0595C3.03548 15.5995 2.77445 16.1476 2.5387 16.7089C2.47018 16.8719 2.40167 17.0341 2.33315 17.1972C2.16185 17.6167 2.00278 18.037 1.8535 18.4696C1.34367 19.9305 0.953759 21.452 0.696806 23.0194C0.580974 23.7216 0.49126 24.4377 0.431712 25.1571C0.422739 25.2513 0.418639 25.3414 0.41456 25.4357C0.384378 25.8085 0.363186 26.1854 0.350135 26.5623C0.341162 26.7679 0.337066 26.9818 0.337066 27.1923C0.332987 27.2956 0.333008 27.398 0.333008 27.5012C0.333008 27.8994 0.341961 28.3025 0.358275 28.6966C0.388457 29.4676 0.456977 30.2263 0.551601 30.976C0.64133 31.6954 0.761245 32.4115 0.907259 33.1137C0.979858 33.4652 1.06144 33.8118 1.14709 34.1592C1.2931 34.7548 1.46439 35.3415 1.64875 35.9199C1.93996 36.8155 2.27441 37.6939 2.65127 38.5509C2.70674 38.6795 2.7671 38.8081 2.82665 38.9368C3.10073 39.5365 3.39602 40.1191 3.70926 40.6894C3.77778 40.818 3.85038 40.9466 3.92788 41.0712C4.27945 41.6922 4.65631 42.301 5.05928 42.8876C5.46632 43.4915 5.89458 44.079 6.35301 44.6484C6.97867 45.4325 7.64675 46.1822 8.35806 46.8934C9.11179 47.6521 9.90875 48.3674 10.7489 49.0311C15.4344 52.7591 21.3566 54.9885 27.7877 54.9983C27.8024 54.9983 27.8179 55 27.8326 55C27.8497 55 27.8669 54.9975 27.884 54.9975C34.3151 54.9853 40.234 52.7558 44.9163 49.0303C45.7556 48.3666 46.5526 47.6505 47.3071 46.8926C48.0184 46.1814 48.6865 45.4317 49.3122 44.6476C49.7706 44.0773 50.1988 43.4907 50.6059 42.8868C51.0089 42.3002 51.3857 41.6914 51.7373 41.0703C51.814 40.9458 51.8874 40.8172 51.9559 40.6885C52.2684 40.1191 52.5644 39.5365 52.8385 38.936C52.894 38.8073 52.9544 38.6787 53.0098 38.55C53.3867 37.693 53.7212 36.8147 54.0124 35.9191C54.1967 35.3407 54.368 34.754 54.514 34.1584C54.5997 33.8118 54.6813 33.4644 54.7539 33.1129C54.8999 32.4099 55.0198 31.6946 55.1095 30.9752C55.2041 30.2255 55.2727 29.4668 55.3028 28.6958C55.324 28.3017 55.333 27.8986 55.333 27.5004C55.3297 27.398 55.3297 27.2956 55.3248 27.1923ZM52.3173 23.0194C52.4462 23.7216 52.5449 24.4336 52.6134 25.1571C52.6224 25.2513 52.6305 25.3414 52.6346 25.4357H45.165C45.046 23.0366 44.7343 20.6974 44.2368 18.4696H51.0276C51.5978 19.9264 52.0351 21.4471 52.3173 23.0194ZM42.7391 27.6298C42.7391 29.8896 42.5523 32.0772 42.2089 34.1592H37.0437C37.224 32.0289 37.3178 29.8191 37.3178 27.5676C37.3178 27.4422 37.3154 27.3177 37.3145 27.1923H42.7317C42.7342 27.339 42.7391 27.4832 42.7391 27.6298ZM12.9212 27.6298C12.9212 27.4832 12.9261 27.339 12.9277 27.1923H18.3449C18.3441 27.3177 18.3417 27.4422 18.3417 27.5676C18.3417 29.8183 18.4355 32.0281 18.6158 34.1592H13.4506C13.108 32.0772 12.9212 29.8896 12.9212 27.6298ZM35.1676 27.5676C35.1676 29.8445 35.0607 32.0567 34.8657 34.1592H28.8987V27.1923H35.1643C35.1651 27.3177 35.1676 27.4414 35.1676 27.5676ZM20.4936 27.5676C20.4936 27.4422 20.496 27.3177 20.4968 27.1923H26.7624V34.1592H20.7954C20.6012 32.0559 20.4936 29.8445 20.4936 27.5676ZM28.8987 4.08031C29.9983 4.62599 31.0261 5.9951 31.9202 7.98119H28.8987V4.08031ZM26.7624 4.08031V7.98119H23.7409C24.635 5.99428 25.6628 4.62599 26.7624 4.08031ZM26.7624 9.74199V16.7089H21.337C21.7693 14.0665 22.351 11.7035 23.0435 9.74199H26.7624ZM26.7624 18.4696V25.4357H20.5262C20.5963 22.9998 20.7856 20.6556 21.0752 18.4696H26.7624ZM26.7624 35.9199V42.8868H22.2767C21.731 40.8262 21.2897 38.473 20.9822 35.9199H26.7624ZM26.7624 44.6476V51.0549C25.2476 50.3035 23.869 47.9848 22.7923 44.6476H26.7624ZM28.8987 51.0549V44.6476H32.8697C31.7921 47.9848 30.4127 50.3035 28.8987 51.0549ZM28.8987 42.886V35.9191H34.6789C34.3722 38.4714 33.9309 40.8245 33.3844 42.886H28.8987ZM28.8987 25.4357V18.4696H34.586C34.8755 20.6564 35.064 22.9998 35.1349 25.4357H28.8987ZM28.8987 16.7089V9.74199H32.6176C33.3102 11.7027 33.8918 14.0665 34.3241 16.7089H28.8987ZM35.0395 9.74199H38.1237C39.3808 11.7379 40.429 14.0927 41.2064 16.7089H36.5478C36.1734 14.1918 35.6684 11.8411 35.0395 9.74199ZM34.4595 7.98119C33.9464 6.55143 33.3828 5.3126 32.7775 4.27449C34.2711 5.14955 35.6554 6.40887 36.8887 7.98119H34.4595ZM22.8828 4.27369C22.2775 5.31262 21.7139 6.55145 21.2008 7.98039H18.7716C20.0049 6.40889 21.3892 5.14957 22.8828 4.27369ZM20.6216 9.74199C19.9927 11.8411 19.4878 14.1918 19.1133 16.7089H14.4548C15.2321 14.0927 16.2804 11.7387 17.5374 9.74199H20.6216ZM18.8735 18.4696C18.6044 20.6966 18.4355 23.0358 18.3727 25.4357H12.9832C13.1129 22.9948 13.4571 20.6564 13.9833 18.4696H18.8735ZM18.7895 35.9199C19.0611 38.3927 19.4535 40.7361 19.9584 42.8868H16.1001C15.1163 40.8049 14.3283 38.4591 13.7834 35.9199H18.7895ZM20.4079 44.6476C20.5735 45.2433 20.7472 45.8233 20.9316 46.3813C21.545 48.2347 22.24 49.7931 22.9954 51.0491C20.6975 49.7365 18.6525 47.5178 17.0153 44.6476H20.4079ZM32.6657 51.0483C33.4219 49.7923 34.1169 48.2339 34.7295 46.3805C34.9139 45.8233 35.0876 45.2424 35.2532 44.6468H38.6466C37.0078 47.5169 34.9636 49.7357 32.6657 51.0483ZM35.7027 42.886C36.2076 40.736 36.6 38.3927 36.8716 35.9191H41.8777C41.3328 38.4575 40.5448 40.804 39.561 42.886H35.7027ZM37.2876 25.4357C37.224 23.035 37.056 20.6958 36.7868 18.4696H41.677C42.2032 20.6564 42.5474 22.9957 42.6771 25.4357H37.2876ZM49.096 14.5704C49.1947 14.7334 49.2885 14.8956 49.3831 15.0587C49.6956 15.5945 49.9876 16.1468 50.2617 16.708H43.7946C43.1045 14.1959 42.1738 11.8493 41.0196 9.74114H45.258C46.7263 11.1815 48.016 12.8055 49.096 14.5704ZM43.2563 7.98119H39.9632C39.0683 6.61043 38.096 5.40764 37.0592 4.38756C38.8432 5.10203 40.5277 6.01316 42.0824 7.10288C42.4805 7.38146 42.8753 7.67229 43.2563 7.98119ZM13.5779 7.10288C15.1326 6.01234 16.8187 5.10123 18.6019 4.38676C17.5651 5.40684 16.592 6.60961 15.6979 7.98119H12.4041C12.7858 7.67229 13.1798 7.38146 13.5779 7.10288ZM6.27308 15.0587C6.36688 14.8956 6.46558 14.7334 6.56428 14.5704C7.6443 12.8006 8.93803 11.1816 10.4071 9.74199H14.6416C13.4873 11.8493 12.5566 14.1967 11.8665 16.7089H5.39455C5.66945 16.1476 5.96065 15.5945 6.27308 15.0587ZM3.04283 25.1571C3.11135 24.4328 3.21006 23.7216 3.34302 23.0194C3.62608 21.4471 4.06248 19.9264 4.63267 18.4696H11.4244C10.9268 20.6974 10.6152 23.0366 10.4961 25.4357H3.02162C3.0257 25.3414 3.03467 25.2513 3.04283 25.1571ZM3.57794 33.1137C3.41072 32.4156 3.28265 31.6995 3.17987 30.976C3.07301 30.2263 3.00449 29.4676 2.96533 28.6966C2.9482 28.2984 2.93516 27.8994 2.93516 27.5012C2.93516 27.398 2.93514 27.2956 2.93922 27.1923H10.4422C10.4406 27.3382 10.4357 27.4832 10.4357 27.6298C10.4357 29.8585 10.6046 32.0469 10.9292 34.1592H3.84304C3.74515 33.8118 3.65952 33.4652 3.57794 33.1137ZM6.97623 41.0695C6.89058 40.945 6.80901 40.8164 6.72744 40.6877C6.37178 40.1183 6.03326 39.5357 5.72491 38.9352C5.65639 38.8065 5.59195 38.6779 5.52751 38.5492C5.10333 37.6963 4.72648 36.8188 4.40101 35.9183H11.2441C11.7368 38.3854 12.4497 40.7279 13.3682 42.8852H8.28221C7.81562 42.2994 7.38327 41.6955 6.97623 41.0695ZM12.2417 46.8926C11.3803 46.1986 10.5662 45.4489 9.80842 44.6476H14.1831C14.5535 45.3826 14.9475 46.0929 15.3684 46.7722C16.2298 48.1618 17.1703 49.3834 18.1728 50.4363C17.2005 50.0258 16.2575 49.5579 15.3521 49.0311C14.259 48.3961 13.2181 47.6808 12.2417 46.8926ZM43.4186 46.8926C42.4422 47.6808 41.4005 48.3961 40.3082 49.0303C39.4036 49.5587 38.4598 50.0266 37.4867 50.4379C38.49 49.3842 39.4313 48.1626 40.2927 46.7722C40.7137 46.0929 41.1077 45.3826 41.478 44.6476H45.8527C45.0941 45.4481 44.28 46.1978 43.4186 46.8926ZM50.1328 38.55C50.0683 38.6787 50.0039 38.8073 49.9362 38.936C49.6279 39.5357 49.2893 40.1183 48.9337 40.6885C48.8529 40.8172 48.7714 40.9458 48.6849 41.0703C48.2778 41.6963 47.8455 42.3002 47.3781 42.8868H42.2929C43.2114 40.7303 43.9235 38.3878 44.417 35.9199H51.2593C50.9338 36.8196 50.557 37.6979 50.1328 38.55ZM44.7311 34.1592C45.0557 32.0469 45.2246 29.8585 45.2246 27.6298C45.2246 27.484 45.2197 27.339 45.2181 27.1923H52.7162C52.7202 27.2956 52.7202 27.398 52.7202 27.5012C52.7202 27.8994 52.7113 28.2976 52.6942 28.6966C52.6599 29.4676 52.5873 30.2263 52.4796 30.976C52.3809 31.7003 52.248 32.4156 52.0856 33.1137C52.0041 33.4652 51.9143 33.8118 51.8156 34.1592H44.7311Z" fill="#FDD426"/>
</svg>
