<svg width="81" height="122" viewBox="0 0 81 122" fill="none" xmlns="http://www.w3.org/2000/svg">
<path d="M5.53474 33.632C6.16809 17.1159 20.0699 4.24022 36.586 4.87279C53.1021 5.50614 65.9778 19.408 65.3452 35.9241C64.7119 52.4402 50.81 65.3158 34.294 64.6825C17.7779 64.0507 4.90139 50.1481 5.53474 33.632Z" fill="url(#paint0_linear_145_5951)"/>
<path d="M21.9289 3.74202C4.7424 11.1459 -3.24286 31.0895 4.12882 48.1999C11.4997 65.3103 31.4791 73.2068 48.6648 65.8037C65.8513 58.3998 73.8358 38.4555 66.4649 21.3458C59.094 4.23461 39.1154 -3.66187 21.9289 3.74202ZM46.6083 61.0293C32.0427 67.304 15.1708 60.6355 8.92369 46.1341C2.67656 31.6328 9.41983 14.7904 23.9855 8.51568C38.5511 2.24094 55.4229 8.91026 61.6701 23.4108C67.9172 37.9122 61.1739 54.7545 46.6083 61.0293Z" fill="#FDD426"/>
<path d="M5.5345 33.6327C6.16785 17.1166 20.0697 4.24095 36.5858 4.87352C53.1019 5.50687 65.9776 19.4087 65.345 35.9248C64.7116 52.4409 50.8098 65.3165 34.2937 64.6832C17.7776 64.0514 4.90115 50.1488 5.5345 33.6327Z" fill="url(#paint1_linear_145_5951)"/>
<path d="M51.5473 60.559L42.9136 64.2788L46.6171 72.8745L55.2508 69.1546L51.5473 60.559Z" fill="#FDD426"/>
<path d="M78.7198 108.847C80.8924 113.476 78.7074 119.022 73.8906 121.097C69.0738 123.172 63.5389 120.952 61.6713 116.192L50.6132 88.059L49.2011 84.4671L48.1476 81.771L46.7348 78.1791L44.9721 73.6883L56.9317 68.5358L58.9845 72.9016L60.6247 76.3953L61.8601 79.0131L63.4995 82.5068L78.7198 108.847Z" fill="#FDD426"/>
<path d="M59.8951 74.7023L47.4181 80.078L45.9723 76.4101L58.2228 71.1325L59.8951 74.7023Z" fill="#FDD426"/>
<path d="M62.8284 80.9482L49.942 86.4996L48.4962 82.8317L61.1552 77.3785L62.8284 80.9482Z" fill="#FDD426"/>
<defs>
<linearGradient id="paint0_linear_145_5951" x1="35.6787" y1="4.85154" x2="45.2233" y2="64.2395" gradientUnits="userSpaceOnUse">
<stop stop-color="#574F0E"/>
<stop offset="1" stop-color="#584F0E"/>
</linearGradient>
<linearGradient id="paint1_linear_145_5951" x1="35.6785" y1="4.85227" x2="38.5313" y2="63.0031" gradientUnits="userSpaceOnUse">
<stop stop-color="#FDD426" stop-opacity="0.38"/>
<stop offset="1" stop-color="#FDD426" stop-opacity="0.12"/>
</linearGradient>
</defs>
</svg>
