<?xml version="1.0" encoding="UTF-8"?>
<!DOCTYPE svg PUBLIC "-//W3C//DTD SVG 1.1//EN" "http://www.w3.org/Graphics/SVG/1.1/DTD/svg11.dtd">
<!-- Creator: CorelDRAW -->
<svg xmlns="http://www.w3.org/2000/svg" xml:space="preserve" width="2.99772in" height="1.67013in" version="1.1" style="shape-rendering:geometricPrecision; text-rendering:geometricPrecision; image-rendering:optimizeQuality; fill-rule:evenodd; clip-rule:evenodd"
viewBox="0 0 122.88 68.46"
 xmlns:xlink="http://www.w3.org/1999/xlink"
 xmlns:xodm="http://www.corel.com/coreldraw/odm/2003">
 <defs>
  <style type="text/css">
   <![CDATA[
    .str0 {stroke:black;stroke-width:0.21;stroke-linecap:round;stroke-miterlimit:22.9256}
    .fil1 {fill:none;fill-rule:nonzero}
    .fil0 {fill:#A3F51E;fill-rule:nonzero}
   ]]>
  </style>
 </defs>
 <g id="Layer_x0020_1">
  <metadata id="CorelCorpID_0Corel-Layer"/>
  <g id="_2511264698288">
   <rect class="fil0" x="87.53" width="6.32" height="68.46"/>
   <path class="fil0" d="M87.53 37.92c0,-1.75 1.41,-3.16 3.16,-3.16 1.75,0 3.16,1.41 3.16,3.16l0 30.54 -6.32 0 0 -30.54z"/>
   <rect class="fil0" x="96.92" width="6.32" height="68.46"/>
   <path class="fil0" d="M96.72 44.19c0,-1.77 1.43,-3.2 3.2,-3.2 1.77,0 3.2,1.43 3.2,3.2l0 24.12 -6.4 0 0 -24.12z"/>
   <rect class="fil0" x="106.74" width="6.32" height="68.46"/>
   <path class="fil0" d="M106.54 26.69c0,-1.77 1.43,-3.2 3.2,-3.2 1.77,0 3.2,1.43 3.2,3.2l0 41.63 -6.4 0 0 -41.63z"/>
   <rect class="fil0" x="116.56" width="6.32" height="68.46"/>
   <path class="fil0" d="M116.36 44.19c0,-1.77 1.43,-3.2 3.2,-3.2 1.77,0 3.2,1.43 3.2,3.2l0 24.12 -6.4 0 0 -24.12z"/>
   <rect class="fil0" x="78.05" width="6.32" height="68.46"/>
   <path class="fil0" d="M78.05 43.18c0,-1.74 1.41,-3.16 3.16,-3.16 1.75,0 3.16,1.41 3.16,3.16l0 25.28 -6.32 0 0 -25.28z"/>
   <rect class="fil0" x="68.57" width="6.32" height="68.46"/>
   <path class="fil0" d="M68.57 36.86c0,-1.75 1.41,-3.16 3.16,-3.16 1.74,0 3.16,1.41 3.16,3.16l0 31.6 -6.32 0 0 -31.6z"/>
   <rect class="fil0" x="59.09" width="6.32" height="68.46"/>
   <path class="fil0" d="M59.09 44.24c0,-1.75 1.41,-3.16 3.16,-3.16 1.75,0 3.16,1.41 3.16,3.16l0 24.22 -6.32 0 0 -24.22z"/>
   <rect class="fil0" x="49.61" width="6.32" height="68.46"/>
   <path class="fil0" d="M49.61 50.56c0,-1.75 1.41,-3.16 3.16,-3.16 1.75,0 3.16,1.41 3.16,3.16l0 17.9 -6.32 0 0 -17.9z"/>
   <rect class="fil0" x="40.13" width="6.32" height="68.46"/>
   <path class="fil0" d="M40.13 43.18c0,-1.74 1.41,-3.16 3.16,-3.16 1.75,0 3.16,1.41 3.16,3.16l0 25.28 -6.32 0 0 -25.28z"/>
   <rect class="fil0" x="30.65" width="6.32" height="68.46"/>
   <path class="fil0" d="M30.65 46.34c0,-1.75 1.41,-3.16 3.16,-3.16 1.75,0 3.16,1.41 3.16,3.16l0 22.12 -6.32 0 0 -22.12z"/>
   <rect class="fil0" x="21.17" width="6.32" height="68.46"/>
   <path class="fil0" d="M21.17 38.97c0,-1.75 1.41,-3.16 3.16,-3.16 1.75,0 3.16,1.41 3.16,3.16l0 29.49 -6.32 0 0 -29.49z"/>
   <rect class="fil0" x="11.69" width="6.32" height="68.46"/>
   <path class="fil0" d="M11.69 56.87c0,-1.75 1.41,-3.16 3.16,-3.16 1.75,0 3.16,1.41 3.16,3.16l0 11.59 -6.32 0 0 -11.59z"/>
   <rect class="fil0" x="2.21" width="6.32" height="68.46"/>
   <path class="fil0" d="M2.21 65.3c0,-1.75 1.41,-3.16 3.16,-3.16 1.75,0 3.16,1.41 3.16,3.16l0 3.16 -6.32 0 0 -3.16z"/>
   <polyline class="fil1 str0" points="0.11,52.14 5.9,54.24 14.85,44.24 24.33,24.22 33.81,34.23 43.29,31.07 52.77,38.44 62.25,31.07 71.2,24.75 81.21,31.07 91.21,24.22 99.92,27.97 109.74,11.53 120.2,19 "/>
   <circle class="fil0" cx="43.29" cy="31.6" r="2.11"/>
  </g>
 </g>
</svg>
