<svg width="91" height="55" viewBox="0 0 91 55" fill="none" xmlns="http://www.w3.org/2000/svg">
<mask id="path-1-outside-1_1516_10361" maskUnits="userSpaceOnUse" x="-2" y="-0.827637" width="94" height="57" fill="black">
<rect fill="white" x="-2" y="-0.827637" width="94" height="57"/>
<path d="M20.4591 54.7796C16.4111 54.7796 12.5402 54.1724 8.84636 52.958C5.15256 51.693 2.24306 50.0738 0.117855 48.1004L2.92615 42.1802C4.95016 43.9512 7.53076 45.4186 10.668 46.5824C13.8052 47.7462 17.0689 48.3281 20.4591 48.3281C23.5457 48.3281 26.0504 47.9739 27.9732 47.2655C29.896 46.5571 31.3128 45.5957 32.2236 44.3813C33.1344 43.1163 33.5898 41.6995 33.5898 40.1309C33.5898 38.3093 32.9826 36.8419 31.7682 35.7287C30.6044 34.6155 29.0611 33.73 27.1383 33.0722C25.2661 32.3638 23.1915 31.7566 20.9145 31.2506C18.6375 30.7446 16.3352 30.1627 14.0076 29.5049C11.7306 28.7965 9.63066 27.911 7.70786 26.8484C5.83566 25.7858 4.31766 24.369 3.15385 22.598C1.99005 20.7764 1.40815 18.4488 1.40815 15.6152C1.40815 12.8828 2.11656 10.3781 3.53336 8.10106C5.00076 5.77346 7.22716 3.92656 10.2126 2.56036C13.2486 1.14356 17.0942 0.435162 21.7494 0.435162C24.836 0.435162 27.8973 0.839961 30.9333 1.64956C33.9693 2.45916 36.6005 3.62296 38.8269 5.14096L36.3222 11.213C34.0452 9.69496 31.6417 8.60706 29.1117 7.94926C26.5817 7.24086 24.1276 6.88666 21.7494 6.88666C18.764 6.88666 16.3099 7.26616 14.3871 8.02516C12.4643 8.78416 11.0475 9.79616 10.1367 11.0612C9.27646 12.3262 8.84636 13.743 8.84636 15.3116C8.84636 17.1838 9.42826 18.6765 10.5921 19.7897C11.8065 20.9029 13.3498 21.7884 15.222 22.4462C17.1448 23.104 19.2447 23.7112 21.5217 24.2678C23.7987 24.7738 26.0757 25.3557 28.3527 26.0135C30.6803 26.6713 32.7802 27.5315 34.6524 28.5941C36.5752 29.6567 38.1185 31.0735 39.2823 32.8445C40.4461 34.6155 41.028 36.8925 41.028 39.6755C41.028 42.3573 40.2943 44.862 38.8269 47.1896C37.3595 49.4666 35.0825 51.3135 31.9959 52.7303C28.9599 54.0965 25.1143 54.7796 20.4591 54.7796ZM59.0234 23.9642H86.3474V30.4157H59.0234V23.9642ZM59.7065 47.5691H90.6737V54.1724H52.1165V1.04236H89.6111V7.64566H59.7065V47.5691Z"/>
</mask>
<path d="M20.4591 54.7796C16.4111 54.7796 12.5402 54.1724 8.84636 52.958C5.15256 51.693 2.24306 50.0738 0.117855 48.1004L2.92615 42.1802C4.95016 43.9512 7.53076 45.4186 10.668 46.5824C13.8052 47.7462 17.0689 48.3281 20.4591 48.3281C23.5457 48.3281 26.0504 47.9739 27.9732 47.2655C29.896 46.5571 31.3128 45.5957 32.2236 44.3813C33.1344 43.1163 33.5898 41.6995 33.5898 40.1309C33.5898 38.3093 32.9826 36.8419 31.7682 35.7287C30.6044 34.6155 29.0611 33.73 27.1383 33.0722C25.2661 32.3638 23.1915 31.7566 20.9145 31.2506C18.6375 30.7446 16.3352 30.1627 14.0076 29.5049C11.7306 28.7965 9.63066 27.911 7.70786 26.8484C5.83566 25.7858 4.31766 24.369 3.15385 22.598C1.99005 20.7764 1.40815 18.4488 1.40815 15.6152C1.40815 12.8828 2.11656 10.3781 3.53336 8.10106C5.00076 5.77346 7.22716 3.92656 10.2126 2.56036C13.2486 1.14356 17.0942 0.435162 21.7494 0.435162C24.836 0.435162 27.8973 0.839961 30.9333 1.64956C33.9693 2.45916 36.6005 3.62296 38.8269 5.14096L36.3222 11.213C34.0452 9.69496 31.6417 8.60706 29.1117 7.94926C26.5817 7.24086 24.1276 6.88666 21.7494 6.88666C18.764 6.88666 16.3099 7.26616 14.3871 8.02516C12.4643 8.78416 11.0475 9.79616 10.1367 11.0612C9.27646 12.3262 8.84636 13.743 8.84636 15.3116C8.84636 17.1838 9.42826 18.6765 10.5921 19.7897C11.8065 20.9029 13.3498 21.7884 15.222 22.4462C17.1448 23.104 19.2447 23.7112 21.5217 24.2678C23.7987 24.7738 26.0757 25.3557 28.3527 26.0135C30.6803 26.6713 32.7802 27.5315 34.6524 28.5941C36.5752 29.6567 38.1185 31.0735 39.2823 32.8445C40.4461 34.6155 41.028 36.8925 41.028 39.6755C41.028 42.3573 40.2943 44.862 38.8269 47.1896C37.3595 49.4666 35.0825 51.3135 31.9959 52.7303C28.9599 54.0965 25.1143 54.7796 20.4591 54.7796ZM59.0234 23.9642H86.3474V30.4157H59.0234V23.9642ZM59.7065 47.5691H90.6737V54.1724H52.1165V1.04236H89.6111V7.64566H59.7065V47.5691Z" fill="#FDD426" fill-opacity="0.24"/>
<path d="M8.84636 52.958L8.52234 53.9041L8.53403 53.9079L8.84636 52.958ZM0.117855 48.1004L-0.785647 47.6718L-1.09989 48.3342L-0.562596 48.8332L0.117855 48.1004ZM2.92616 42.1802L3.58466 41.4276L2.58943 40.5568L2.02265 41.7516L2.92616 42.1802ZM10.668 46.5824L10.3201 47.5199L10.668 46.5824ZM27.9732 47.2655L28.3189 48.2038L27.9732 47.2655ZM32.2236 44.3813L33.0236 44.9813L33.0294 44.9735L33.0351 44.9656L32.2236 44.3813ZM31.7682 35.7287L31.0769 36.4513L31.0846 36.4586L31.0924 36.4658L31.7682 35.7287ZM27.1383 33.0722L26.7844 34.0074L26.7994 34.0131L26.8146 34.0183L27.1383 33.0722ZM20.9145 31.2506L21.1314 30.2744L20.9145 31.2506ZM14.0076 29.5049L13.7105 30.4597L13.723 30.4636L13.7356 30.4672L14.0076 29.5049ZM7.70786 26.8484L7.21422 27.7181L7.22417 27.7236L7.70786 26.8484ZM3.15385 22.598L2.31109 23.1364L2.31815 23.1471L3.15385 22.598ZM3.53336 8.10106L2.68741 7.56775L2.6843 7.57276L3.53336 8.10106ZM10.2126 2.56036L10.6287 3.4697L10.6354 3.46655L10.2126 2.56036ZM30.9333 1.64956L30.6756 2.6158L30.9333 1.64956ZM38.8269 5.14096L39.7513 5.52229L40.0608 4.77197L39.3902 4.31473L38.8269 5.14096ZM36.3222 11.213L35.7675 12.045L36.7817 12.7212L37.2466 11.5943L36.3222 11.213ZM29.1117 7.94926L28.842 8.91222L28.851 8.91474L28.86 8.91708L29.1117 7.94926ZM10.1367 11.0612L9.32512 10.4769L9.31728 10.4878L9.30973 10.4988L10.1367 11.0612ZM10.5921 19.7897L9.90083 20.5123L9.9085 20.5196L9.91633 20.5268L10.5921 19.7897ZM15.222 22.4462L14.8905 23.3897L14.8983 23.3923L15.222 22.4462ZM21.5217 24.2678L21.2842 25.2392L21.2944 25.2417L21.3047 25.2439L21.5217 24.2678ZM28.3527 26.0135L28.0751 26.9742L28.0807 26.9758L28.3527 26.0135ZM34.6524 28.5941L34.1587 29.4638L34.1687 29.4693L34.6524 28.5941ZM39.2823 32.8445L40.118 32.2953L39.2823 32.8445ZM38.8269 47.1896L39.6675 47.7313L39.6728 47.7229L38.8269 47.1896ZM31.9959 52.7303L32.4062 53.6422L32.413 53.6391L31.9959 52.7303ZM20.4591 53.7796C16.5128 53.7796 12.7476 53.1879 9.15868 52.008L8.53403 53.9079C12.3327 55.1568 16.3094 55.7796 20.4591 55.7796V53.7796ZM9.17035 52.0119C5.56562 50.7774 2.79195 49.2188 0.798306 47.3676L-0.562596 48.8332C1.69416 50.9287 4.73949 52.6085 8.52236 53.904L9.17035 52.0119ZM1.02136 48.5289L3.82966 42.6087L2.02265 41.7516L-0.785647 47.6718L1.02136 48.5289ZM2.26765 42.9327C4.40241 44.8007 7.0958 46.3238 10.3201 47.5199L11.0158 45.6448C7.96571 44.5133 5.4979 43.1017 3.58466 41.4276L2.26765 42.9327ZM10.3201 47.5199C13.5701 48.7256 16.9517 49.3281 20.4591 49.3281V47.3281C17.186 47.3281 14.0402 46.7668 11.0158 45.6448L10.3201 47.5199ZM20.4591 49.3281C23.6099 49.3281 26.2442 48.9681 28.3189 48.2038L27.6275 46.3271C25.8565 46.9796 23.4814 47.3281 20.4591 47.3281V49.3281ZM28.3189 48.2038C30.361 47.4515 31.9632 46.3951 33.0236 44.9813L31.4236 43.7813C30.6623 44.7962 29.4309 45.6627 27.6275 46.3271L28.3189 48.2038ZM33.0351 44.9656C34.0693 43.5292 34.5898 41.9078 34.5898 40.1309H32.5898C32.5898 41.4912 32.1995 42.7033 31.412 43.797L33.0351 44.9656ZM34.5898 40.1309C34.5898 38.0619 33.888 36.3153 32.4439 34.9915L31.0924 36.4658C32.0771 37.3684 32.5898 38.5566 32.5898 40.1309H34.5898ZM32.4594 35.006C31.167 33.7699 29.4872 32.8188 27.4619 32.126L26.8146 34.0183C28.6349 34.6411 30.0417 35.4611 31.0769 36.4513L32.4594 35.006ZM27.4921 32.1369C25.5688 31.4091 23.4475 30.7891 21.1314 30.2744L20.6975 32.2267C22.9354 32.724 24.9634 33.3184 26.7844 34.0074L27.4921 32.1369ZM21.1314 30.2744C18.8735 29.7726 16.5896 29.1954 14.2795 28.5426L13.7356 30.4672C16.0807 31.1299 18.4014 31.7165 20.6975 32.2267L21.1314 30.2744ZM14.3046 28.55C12.0869 27.8601 10.0502 27.0003 8.19154 25.9731L7.22417 27.7236C9.21112 28.8217 11.3742 29.7329 13.7105 30.4597L14.3046 28.55ZM8.20146 25.9787C6.46481 24.993 5.06491 23.6852 3.98956 22.0488L2.31815 23.1471C3.5704 25.0527 5.2065 26.5785 7.21425 27.718L8.20146 25.9787ZM3.99655 22.0596C2.96287 20.4416 2.40815 18.3162 2.40815 15.6152H0.408155C0.408155 18.5813 1.01724 21.1111 2.31116 23.1364L3.99655 22.0596ZM2.40815 15.6152C2.40815 13.0658 3.06621 10.7447 4.38241 8.62936L2.6843 7.57276C1.1669 10.0114 0.408155 12.6997 0.408155 15.6152H2.40815ZM4.37928 8.63436C5.7244 6.50072 7.7854 4.77083 10.6287 3.46967L9.79643 1.65105C6.66892 3.08229 4.27711 5.04619 2.68743 7.56776L4.37928 8.63436ZM10.6354 3.46655C13.4979 2.13071 17.1869 1.43516 21.7494 1.43516V-0.564838C17.0014 -0.564838 12.9992 0.156414 9.78967 1.65418L10.6354 3.46655ZM21.7494 1.43516C24.7474 1.43516 27.7221 1.8282 30.6756 2.6158L31.1909 0.683325C28.0724 -0.148281 24.9245 -0.564838 21.7494 -0.564838V1.43516ZM30.6756 2.6158C33.6203 3.40104 36.1444 4.52235 38.2635 5.96719L39.3902 4.31473C37.0565 2.72357 34.3182 1.51728 31.1909 0.683325L30.6756 2.6158ZM37.9024 4.75963L35.3977 10.8316L37.2466 11.5943L39.7513 5.52229L37.9024 4.75963ZM36.8769 10.3809C34.5115 8.804 32.0062 7.66858 29.3633 6.98144L28.86 8.91708C31.2772 9.54554 33.5788 10.5859 35.7675 12.045L36.8769 10.3809ZM29.3813 6.9863C26.7726 6.25586 24.2277 5.88666 21.7494 5.88666V7.88666C24.0274 7.88666 26.3907 8.22586 28.842 8.91222L29.3813 6.9863ZM21.7494 5.88666C18.6894 5.88666 16.0993 6.2742 14.0199 7.095L14.7542 8.95531C16.5205 8.25812 18.8385 7.88666 21.7494 7.88666V5.88666ZM14.0199 7.095C11.9757 7.9019 10.3789 9.01328 9.32512 10.4769L10.9482 11.6455C11.716 10.579 12.9528 9.66642 14.7542 8.95531L14.0199 7.095ZM9.30973 10.4988C8.33375 11.9341 7.84636 13.5478 7.84636 15.3116H9.84636C9.84636 13.9381 10.2192 12.7182 10.9636 11.6235L9.30973 10.4988ZM7.84636 15.3116C7.84636 17.4084 8.50744 19.1795 9.90083 20.5123L11.2833 19.067C10.3491 18.1734 9.84636 16.9591 9.84636 15.3116H7.84636ZM9.91633 20.5268C11.2485 21.748 12.9163 22.696 14.8905 23.3896L15.5534 21.5027C13.7832 20.8807 12.3644 20.0577 11.2678 19.0525L9.91633 20.5268ZM14.8983 23.3923C16.8533 24.0612 18.9824 24.6765 21.2842 25.2392L21.7591 23.2964C19.5069 22.7458 17.4362 22.1468 15.5456 21.5L14.8983 23.3923ZM21.3047 25.2439C23.561 25.7454 25.8178 26.3221 28.0751 26.9742L28.6302 25.0527C26.3335 24.3893 24.0363 23.8022 21.7386 23.2916L21.3047 25.2439ZM28.0807 26.9758C30.3403 27.6144 32.3644 28.4453 34.1588 29.4637L35.146 27.7244C33.1959 26.6176 31.0202 25.7282 28.6246 25.0512L28.0807 26.9758ZM34.1687 29.4693C35.9548 30.4564 37.3752 31.7633 38.4466 33.3936L40.118 32.2953C38.8617 30.3836 37.1955 28.8569 35.136 27.7188L34.1687 29.4693ZM38.4466 33.3936C39.4743 34.9576 40.028 37.0275 40.028 39.6755H42.028C42.028 36.7574 41.4178 34.2733 40.118 32.2953L38.4466 33.3936ZM40.028 39.6755C40.028 42.1634 39.3504 44.4839 37.9809 46.6563L39.6728 47.7229C41.2381 45.24 42.028 42.5511 42.028 39.6755H40.028ZM37.9863 46.6479C36.6455 48.7284 34.5358 50.4641 31.5787 51.8214L32.413 53.6391C35.6291 52.1629 38.0734 50.2047 39.6674 47.7313L37.9863 46.6479ZM31.5855 51.8183C28.7191 53.1082 25.0254 53.7796 20.4591 53.7796V55.7796C25.2031 55.7796 29.2006 55.0847 32.4062 53.6422L31.5855 51.8183ZM59.0234 23.9642V22.9642H58.0234V23.9642H59.0234ZM86.3474 23.9642H87.3474V22.9642H86.3474V23.9642ZM86.3474 30.4157V31.4157H87.3474V30.4157H86.3474ZM59.0234 30.4157H58.0234V31.4157H59.0234V30.4157ZM59.7065 47.5691H58.7065V48.5691H59.7065V47.5691ZM90.6737 47.5691H91.6737V46.5691H90.6737V47.5691ZM90.6737 54.1724V55.1724H91.6737V54.1724H90.6737ZM52.1165 54.1724H51.1165V55.1724H52.1165V54.1724ZM52.1165 1.04236V0.0423584H51.1165V1.04236H52.1165ZM89.6111 1.04236H90.6111V0.0423584H89.6111V1.04236ZM89.6111 7.64566V8.64566H90.6111V7.64566H89.6111ZM59.7065 7.64566V6.64566H58.7065V7.64566H59.7065ZM59.0234 24.9642H86.3474V22.9642H59.0234V24.9642ZM85.3474 23.9642V30.4157H87.3474V23.9642H85.3474ZM86.3474 29.4157H59.0234V31.4157H86.3474V29.4157ZM60.0234 30.4157V23.9642H58.0234V30.4157H60.0234ZM59.7065 48.5691H90.6737V46.5691H59.7065V48.5691ZM89.6737 47.5691V54.1724H91.6737V47.5691H89.6737ZM90.6737 53.1724H52.1165V55.1724H90.6737V53.1724ZM53.1165 54.1724V1.04236H51.1165V54.1724H53.1165ZM52.1165 2.04236H89.6111V0.0423584H52.1165V2.04236ZM88.6111 1.04236V7.64566H90.6111V1.04236H88.6111ZM89.6111 6.64566H59.7065V8.64566H89.6111V6.64566ZM58.7065 7.64566V47.5691H60.7065V7.64566H58.7065Z" fill="#FDD426" mask="url(#path-1-outside-1_1516_10361)"/>
</svg>
