<svg width="672" height="667" viewBox="0 0 672 667" fill="none" xmlns="http://www.w3.org/2000/svg">
<g clip-path="url(#clip0_2755_159214)">
<rect x="151" width="531" height="667" rx="16" fill="#F8F8F8"/>
<rect x="173" y="554" width="260" height="89" rx="12" fill="white"/>
<path d="M248 596.5C248 613.345 234.345 627 217.5 627C200.655 627 187 613.345 187 596.5C187 579.655 200.655 566 217.5 566C234.345 566 248 579.655 248 596.5ZM196.016 596.5C196.016 608.365 205.635 617.984 217.5 617.984C229.365 617.984 238.984 608.365 238.984 596.5C238.984 584.635 229.365 575.016 217.5 575.016C205.635 575.016 196.016 584.635 196.016 596.5Z" fill="#F8F8F8"/>
<path d="M248 596.5C248 613.345 234.345 627 217.5 627C200.655 627 187 613.345 187 596.5C187 579.655 200.655 566 217.5 566C234.345 566 248 579.655 248 596.5ZM196.016 596.5C196.016 608.365 205.635 617.984 217.5 617.984C229.365 617.984 238.984 608.365 238.984 596.5C238.984 584.635 229.365 575.016 217.5 575.016C205.635 575.016 196.016 584.635 196.016 596.5Z" fill="#FDD426"/>
<path d="M206.63 592.25V590.794H209.542V601H207.932V592.25H206.63ZM211.735 595.764C211.735 594.149 212.005 592.889 212.547 591.984C213.097 591.069 214.04 590.612 215.375 590.612C216.709 590.612 217.647 591.069 218.189 591.984C218.739 592.889 219.015 594.149 219.015 595.764C219.015 597.397 218.739 598.676 218.189 599.6C217.647 600.515 216.709 600.972 215.375 600.972C214.04 600.972 213.097 600.515 212.547 599.6C212.005 598.676 211.735 597.397 211.735 595.764ZM217.447 595.764C217.447 595.008 217.395 594.369 217.293 593.846C217.199 593.323 217.003 592.899 216.705 592.572C216.406 592.236 215.963 592.068 215.375 592.068C214.787 592.068 214.343 592.236 214.045 592.572C213.746 592.899 213.545 593.323 213.443 593.846C213.349 594.369 213.303 595.008 213.303 595.764C213.303 596.548 213.349 597.206 213.443 597.738C213.536 598.27 213.732 598.699 214.031 599.026C214.339 599.353 214.787 599.516 215.375 599.516C215.963 599.516 216.406 599.353 216.705 599.026C217.013 598.699 217.213 598.27 217.307 597.738C217.4 597.206 217.447 596.548 217.447 595.764ZM220.703 595.764C220.703 594.149 220.974 592.889 221.515 591.984C222.066 591.069 223.009 590.612 224.343 590.612C225.678 590.612 226.616 591.069 227.157 591.984C227.708 592.889 227.983 594.149 227.983 595.764C227.983 597.397 227.708 598.676 227.157 599.6C226.616 600.515 225.678 600.972 224.343 600.972C223.009 600.972 222.066 600.515 221.515 599.6C220.974 598.676 220.703 597.397 220.703 595.764ZM226.415 595.764C226.415 595.008 226.364 594.369 226.261 593.846C226.168 593.323 225.972 592.899 225.673 592.572C225.375 592.236 224.931 592.068 224.343 592.068C223.755 592.068 223.312 592.236 223.013 592.572C222.715 592.899 222.514 593.323 222.411 593.846C222.318 594.369 222.271 595.008 222.271 595.764C222.271 596.548 222.318 597.206 222.411 597.738C222.505 598.27 222.701 598.699 222.999 599.026C223.307 599.353 223.755 599.516 224.343 599.516C224.931 599.516 225.375 599.353 225.673 599.026C225.981 598.699 226.182 598.27 226.275 597.738C226.369 597.206 226.415 596.548 226.415 595.764Z" fill="#636A79"/>
<path d="M264.256 585.098C263.603 585.098 263.015 584.986 262.492 584.762C261.969 584.529 261.559 584.202 261.26 583.782C260.961 583.362 260.812 582.872 260.812 582.312H262.52C262.557 582.732 262.721 583.077 263.01 583.348C263.309 583.619 263.724 583.754 264.256 583.754C264.807 583.754 265.236 583.623 265.544 583.362C265.852 583.091 266.006 582.746 266.006 582.326C266.006 581.999 265.908 581.733 265.712 581.528C265.525 581.323 265.287 581.164 264.998 581.052C264.718 580.94 264.326 580.819 263.822 580.688C263.187 580.52 262.669 580.352 262.268 580.184C261.876 580.007 261.54 579.736 261.26 579.372C260.98 579.008 260.84 578.523 260.84 577.916C260.84 577.356 260.98 576.866 261.26 576.446C261.54 576.026 261.932 575.704 262.436 575.48C262.94 575.256 263.523 575.144 264.186 575.144C265.129 575.144 265.899 575.382 266.496 575.858C267.103 576.325 267.439 576.969 267.504 577.79H265.74C265.712 577.435 265.544 577.132 265.236 576.88C264.928 576.628 264.522 576.502 264.018 576.502C263.561 576.502 263.187 576.619 262.898 576.852C262.609 577.085 262.464 577.421 262.464 577.86C262.464 578.159 262.553 578.406 262.73 578.602C262.917 578.789 263.15 578.938 263.43 579.05C263.71 579.162 264.093 579.283 264.578 579.414C265.222 579.591 265.745 579.769 266.146 579.946C266.557 580.123 266.902 580.399 267.182 580.772C267.471 581.136 267.616 581.626 267.616 582.242C267.616 582.737 267.481 583.203 267.21 583.642C266.949 584.081 266.561 584.435 266.048 584.706C265.544 584.967 264.947 585.098 264.256 585.098ZM270.311 576.264C270.022 576.264 269.779 576.166 269.583 575.97C269.387 575.774 269.289 575.531 269.289 575.242C269.289 574.953 269.387 574.71 269.583 574.514C269.779 574.318 270.022 574.22 270.311 574.22C270.591 574.22 270.829 574.318 271.025 574.514C271.221 574.71 271.319 574.953 271.319 575.242C271.319 575.531 271.221 575.774 271.025 575.97C270.829 576.166 270.591 576.264 270.311 576.264ZM271.095 577.286V585H269.499V577.286H271.095ZM275.053 578.588V582.858C275.053 583.147 275.118 583.357 275.249 583.488C275.389 583.609 275.622 583.67 275.949 583.67H276.929V585H275.669C274.95 585 274.399 584.832 274.017 584.496C273.634 584.16 273.443 583.614 273.443 582.858V578.588H272.533V577.286H273.443V575.368H275.053V577.286H276.929V578.588H275.053ZM285.47 580.954C285.47 581.243 285.451 581.505 285.414 581.738H279.52C279.566 582.354 279.795 582.849 280.206 583.222C280.616 583.595 281.12 583.782 281.718 583.782C282.576 583.782 283.183 583.423 283.538 582.704H285.26C285.026 583.413 284.602 583.997 283.986 584.454C283.379 584.902 282.623 585.126 281.718 585.126C280.98 585.126 280.318 584.963 279.73 584.636C279.151 584.3 278.694 583.833 278.358 583.236C278.031 582.629 277.868 581.929 277.868 581.136C277.868 580.343 278.026 579.647 278.344 579.05C278.67 578.443 279.123 577.977 279.702 577.65C280.29 577.323 280.962 577.16 281.718 577.16C282.446 577.16 283.094 577.319 283.664 577.636C284.233 577.953 284.676 578.401 284.994 578.98C285.311 579.549 285.47 580.207 285.47 580.954ZM283.804 580.45C283.794 579.862 283.584 579.391 283.174 579.036C282.763 578.681 282.254 578.504 281.648 578.504C281.097 578.504 280.626 578.681 280.234 579.036C279.842 579.381 279.608 579.853 279.534 580.45H283.804ZM297.481 578.168C297.481 578.663 297.364 579.129 297.131 579.568C296.898 580.007 296.524 580.366 296.011 580.646C295.498 580.917 294.84 581.052 294.037 581.052H292.273V585H290.677V575.27H294.037C294.784 575.27 295.414 575.401 295.927 575.662C296.45 575.914 296.837 576.259 297.089 576.698C297.35 577.137 297.481 577.627 297.481 578.168ZM294.037 579.75C294.644 579.75 295.096 579.615 295.395 579.344C295.694 579.064 295.843 578.672 295.843 578.168C295.843 577.104 295.241 576.572 294.037 576.572H292.273V579.75H294.037ZM306.073 580.954C306.073 581.243 306.054 581.505 306.017 581.738H300.123C300.17 582.354 300.398 582.849 300.809 583.222C301.22 583.595 301.724 583.782 302.321 583.782C303.18 583.782 303.786 583.423 304.141 582.704H305.863C305.63 583.413 305.205 583.997 304.589 584.454C303.982 584.902 303.226 585.126 302.321 585.126C301.584 585.126 300.921 584.963 300.333 584.636C299.754 584.3 299.297 583.833 298.961 583.236C298.634 582.629 298.471 581.929 298.471 581.136C298.471 580.343 298.63 579.647 298.947 579.05C299.274 578.443 299.726 577.977 300.305 577.65C300.893 577.323 301.565 577.16 302.321 577.16C303.049 577.16 303.698 577.319 304.267 577.636C304.836 577.953 305.28 578.401 305.597 578.98C305.914 579.549 306.073 580.207 306.073 580.954ZM304.407 580.45C304.398 579.862 304.188 579.391 303.777 579.036C303.366 578.681 302.858 578.504 302.251 578.504C301.7 578.504 301.229 578.681 300.837 579.036C300.445 579.381 300.212 579.853 300.137 580.45H304.407ZM309.24 578.406C309.473 578.014 309.781 577.711 310.164 577.496C310.556 577.272 311.018 577.16 311.55 577.16V578.812H311.144C310.518 578.812 310.042 578.971 309.716 579.288C309.398 579.605 309.24 580.156 309.24 580.94V585H307.644V577.286H309.24V578.406ZM316.251 578.588H314.823V585H313.213V578.588H312.303V577.286H313.213V576.74C313.213 575.853 313.446 575.209 313.913 574.808C314.389 574.397 315.131 574.192 316.139 574.192V575.522C315.653 575.522 315.313 575.615 315.117 575.802C314.921 575.979 314.823 576.292 314.823 576.74V577.286H316.251V578.588ZM321.011 585.126C320.283 585.126 319.625 584.963 319.037 584.636C318.449 584.3 317.987 583.833 317.651 583.236C317.315 582.629 317.147 581.929 317.147 581.136C317.147 580.352 317.32 579.657 317.665 579.05C318.011 578.443 318.482 577.977 319.079 577.65C319.677 577.323 320.344 577.16 321.081 577.16C321.819 577.16 322.486 577.323 323.083 577.65C323.681 577.977 324.152 578.443 324.497 579.05C324.843 579.657 325.015 580.352 325.015 581.136C325.015 581.92 324.838 582.615 324.483 583.222C324.129 583.829 323.643 584.3 323.027 584.636C322.421 584.963 321.749 585.126 321.011 585.126ZM321.011 583.74C321.422 583.74 321.805 583.642 322.159 583.446C322.523 583.25 322.817 582.956 323.041 582.564C323.265 582.172 323.377 581.696 323.377 581.136C323.377 580.576 323.27 580.105 323.055 579.722C322.841 579.33 322.556 579.036 322.201 578.84C321.847 578.644 321.464 578.546 321.053 578.546C320.643 578.546 320.26 578.644 319.905 578.84C319.56 579.036 319.285 579.33 319.079 579.722C318.874 580.105 318.771 580.576 318.771 581.136C318.771 581.967 318.981 582.611 319.401 583.068C319.831 583.516 320.367 583.74 321.011 583.74ZM328.189 578.406C328.422 578.014 328.73 577.711 329.113 577.496C329.505 577.272 329.967 577.16 330.499 577.16V578.812H330.093C329.468 578.812 328.992 578.971 328.665 579.288C328.348 579.605 328.189 580.156 328.189 580.94V585H326.593V577.286H328.189V578.406ZM341.304 577.16C341.911 577.16 342.452 577.286 342.928 577.538C343.413 577.79 343.791 578.163 344.062 578.658C344.342 579.153 344.482 579.75 344.482 580.45V585H342.9V580.688C342.9 579.997 342.727 579.47 342.382 579.106C342.037 578.733 341.565 578.546 340.968 578.546C340.371 578.546 339.895 578.733 339.54 579.106C339.195 579.47 339.022 579.997 339.022 580.688V585H337.44V580.688C337.44 579.997 337.267 579.47 336.922 579.106C336.577 578.733 336.105 578.546 335.508 578.546C334.911 578.546 334.435 578.733 334.08 579.106C333.735 579.47 333.562 579.997 333.562 580.688V585H331.966V577.286H333.562V578.168C333.823 577.851 334.155 577.603 334.556 577.426C334.957 577.249 335.387 577.16 335.844 577.16C336.46 577.16 337.011 577.291 337.496 577.552C337.981 577.813 338.355 578.191 338.616 578.686C338.849 578.219 339.213 577.851 339.708 577.58C340.203 577.3 340.735 577.16 341.304 577.16ZM345.981 581.108C345.981 580.333 346.14 579.647 346.457 579.05C346.784 578.453 347.222 577.991 347.773 577.664C348.333 577.328 348.949 577.16 349.621 577.16C350.228 577.16 350.755 577.281 351.203 577.524C351.66 577.757 352.024 578.051 352.295 578.406V577.286H353.905V585H352.295V583.852C352.024 584.216 351.656 584.519 351.189 584.762C350.722 585.005 350.19 585.126 349.593 585.126C348.93 585.126 348.324 584.958 347.773 584.622C347.222 584.277 346.784 583.801 346.457 583.194C346.14 582.578 345.981 581.883 345.981 581.108ZM352.295 581.136C352.295 580.604 352.183 580.142 351.959 579.75C351.744 579.358 351.46 579.059 351.105 578.854C350.75 578.649 350.368 578.546 349.957 578.546C349.546 578.546 349.164 578.649 348.809 578.854C348.454 579.05 348.165 579.344 347.941 579.736C347.726 580.119 347.619 580.576 347.619 581.108C347.619 581.64 347.726 582.107 347.941 582.508C348.165 582.909 348.454 583.217 348.809 583.432C349.173 583.637 349.556 583.74 349.957 583.74C350.368 583.74 350.75 583.637 351.105 583.432C351.46 583.227 351.744 582.928 351.959 582.536C352.183 582.135 352.295 581.668 352.295 581.136ZM359.893 577.16C360.5 577.16 361.041 577.286 361.517 577.538C362.003 577.79 362.381 578.163 362.651 578.658C362.922 579.153 363.057 579.75 363.057 580.45V585H361.475V580.688C361.475 579.997 361.303 579.47 360.957 579.106C360.612 578.733 360.141 578.546 359.543 578.546C358.946 578.546 358.47 578.733 358.115 579.106C357.77 579.47 357.597 579.997 357.597 580.688V585H356.001V577.286H357.597V578.168C357.859 577.851 358.19 577.603 358.591 577.426C359.002 577.249 359.436 577.16 359.893 577.16ZM364.561 581.136C364.561 580.343 364.72 579.647 365.037 579.05C365.364 578.443 365.812 577.977 366.381 577.65C366.95 577.323 367.604 577.16 368.341 577.16C369.274 577.16 370.044 577.384 370.651 577.832C371.267 578.271 371.682 578.901 371.897 579.722H370.175C370.035 579.339 369.811 579.041 369.503 578.826C369.195 578.611 368.808 578.504 368.341 578.504C367.688 578.504 367.165 578.737 366.773 579.204C366.39 579.661 366.199 580.305 366.199 581.136C366.199 581.967 366.39 582.615 366.773 583.082C367.165 583.549 367.688 583.782 368.341 583.782C369.265 583.782 369.876 583.376 370.175 582.564H371.897C371.673 583.348 371.253 583.973 370.637 584.44C370.021 584.897 369.256 585.126 368.341 585.126C367.604 585.126 366.95 584.963 366.381 584.636C365.812 584.3 365.364 583.833 365.037 583.236C364.72 582.629 364.561 581.929 364.561 581.136ZM380.558 580.954C380.558 581.243 380.539 581.505 380.502 581.738H374.608C374.654 582.354 374.883 582.849 375.294 583.222C375.704 583.595 376.208 583.782 376.806 583.782C377.664 583.782 378.271 583.423 378.626 582.704H380.347C380.114 583.413 379.69 583.997 379.074 584.454C378.467 584.902 377.711 585.126 376.806 585.126C376.068 585.126 375.406 584.963 374.818 584.636C374.239 584.3 373.782 583.833 373.446 583.236C373.119 582.629 372.956 581.929 372.956 581.136C372.956 580.343 373.114 579.647 373.432 579.05C373.758 578.443 374.211 577.977 374.79 577.65C375.378 577.323 376.05 577.16 376.806 577.16C377.534 577.16 378.182 577.319 378.752 577.636C379.321 577.953 379.764 578.401 380.082 578.98C380.399 579.549 380.558 580.207 380.558 580.954ZM378.892 580.45C378.882 579.862 378.672 579.391 378.262 579.036C377.851 578.681 377.342 578.504 376.736 578.504C376.185 578.504 375.714 578.681 375.322 579.036C374.93 579.381 374.696 579.853 374.622 580.45H378.892Z" fill="#636A79"/>
<rect x="260" y="603" width="159" height="7" rx="3.5" fill="#F1F2F4"/>
<rect x="260" y="616" width="127" height="7" rx="3.5" fill="#F1F2F4"/>
<rect x="453" y="554" width="186" height="89" rx="12" fill="white"/>
<path d="M528 596.5C528 613.345 514.345 627 497.5 627C480.655 627 467 613.345 467 596.5C467 579.655 480.655 566 497.5 566C514.345 566 528 579.655 528 596.5ZM476.016 596.5C476.016 608.365 485.635 617.984 497.5 617.984C509.365 617.984 518.984 608.365 518.984 596.5C518.984 584.635 509.365 575.016 497.5 575.016C485.635 575.016 476.016 584.635 476.016 596.5Z" fill="#F8F8F8"/>
<path d="M523.492 596.5C525.982 596.5 528.034 598.529 527.668 600.992C526.734 607.259 523.864 613.122 519.403 617.725C513.889 623.415 506.377 626.736 498.458 626.985C490.539 627.234 482.833 624.391 476.973 619.059C471.113 613.726 467.558 606.323 467.06 598.415C466.563 590.508 469.162 582.717 474.308 576.692C479.453 570.667 486.742 566.881 494.63 566.135C502.518 565.39 510.386 567.743 516.57 572.697C521.573 576.705 525.155 582.162 526.867 588.263C527.539 590.66 525.757 592.93 523.287 593.242C520.817 593.554 518.606 591.777 517.786 589.426C516.467 585.644 514.106 582.275 510.933 579.733C506.577 576.244 501.034 574.586 495.478 575.111C489.922 575.637 484.788 578.303 481.164 582.547C477.539 586.791 475.708 592.279 476.058 597.849C476.409 603.419 478.913 608.634 483.041 612.39C487.169 616.146 492.597 618.149 498.175 617.973C503.753 617.798 509.044 615.459 512.928 611.451C515.757 608.531 517.678 604.893 518.513 600.975C519.031 598.54 521.002 596.5 523.492 596.5Z" fill="#FDD426"/>
<path d="M490.828 598.228C490.921 598.695 491.122 599.049 491.43 599.292C491.738 599.535 492.153 599.656 492.676 599.656C493.339 599.656 493.824 599.395 494.132 598.872C494.44 598.349 494.594 597.458 494.594 596.198C494.37 596.515 494.053 596.763 493.642 596.94C493.241 597.108 492.802 597.192 492.326 597.192C491.719 597.192 491.169 597.071 490.674 596.828C490.179 596.576 489.787 596.207 489.498 595.722C489.218 595.227 489.078 594.63 489.078 593.93C489.078 592.903 489.377 592.087 489.974 591.48C490.581 590.864 491.411 590.556 492.466 590.556C493.735 590.556 494.636 590.981 495.168 591.83C495.709 592.67 495.98 593.963 495.98 595.708C495.98 596.912 495.877 597.897 495.672 598.662C495.476 599.427 495.131 600.006 494.636 600.398C494.141 600.79 493.455 600.986 492.578 600.986C491.579 600.986 490.809 600.725 490.268 600.202C489.727 599.679 489.423 599.021 489.358 598.228H490.828ZM492.606 595.848C493.166 595.848 493.605 595.675 493.922 595.33C494.249 594.975 494.412 594.509 494.412 593.93C494.412 593.286 494.239 592.787 493.894 592.432C493.558 592.068 493.096 591.886 492.508 591.886C491.92 591.886 491.453 592.073 491.108 592.446C490.772 592.81 490.604 593.291 490.604 593.888C490.604 594.457 490.767 594.929 491.094 595.302C491.43 595.666 491.934 595.848 492.606 595.848ZM499.449 595.666C498.478 595.181 497.993 594.415 497.993 593.37C497.993 592.866 498.119 592.404 498.371 591.984C498.623 591.564 499.001 591.233 499.505 590.99C500.009 590.738 500.625 590.612 501.353 590.612C502.071 590.612 502.683 590.738 503.187 590.99C503.7 591.233 504.083 591.564 504.335 591.984C504.587 592.404 504.713 592.866 504.713 593.37C504.713 593.893 504.577 594.355 504.307 594.756C504.045 595.148 503.695 595.451 503.257 595.666C503.789 595.862 504.209 596.184 504.517 596.632C504.825 597.071 504.979 597.589 504.979 598.186C504.979 598.793 504.825 599.329 504.517 599.796C504.209 600.263 503.779 600.622 503.229 600.874C502.678 601.126 502.053 601.252 501.353 601.252C500.653 601.252 500.027 601.126 499.477 600.874C498.935 600.622 498.511 600.263 498.203 599.796C497.895 599.329 497.741 598.793 497.741 598.186C497.741 597.579 497.895 597.057 498.203 596.618C498.511 596.179 498.926 595.862 499.449 595.666ZM503.187 593.566C503.187 593.043 503.023 592.642 502.697 592.362C502.37 592.082 501.922 591.942 501.353 591.942C500.793 591.942 500.349 592.082 500.023 592.362C499.696 592.642 499.533 593.048 499.533 593.58C499.533 594.047 499.701 594.429 500.037 594.728C500.382 595.017 500.821 595.162 501.353 595.162C501.885 595.162 502.323 595.013 502.669 594.714C503.014 594.415 503.187 594.033 503.187 593.566ZM501.353 596.366C500.737 596.366 500.233 596.52 499.841 596.828C499.458 597.127 499.267 597.561 499.267 598.13C499.267 598.662 499.453 599.096 499.827 599.432C500.2 599.759 500.709 599.922 501.353 599.922C501.987 599.922 502.487 599.754 502.851 599.418C503.224 599.082 503.411 598.653 503.411 598.13C503.411 597.57 503.219 597.136 502.837 596.828C502.463 596.52 501.969 596.366 501.353 596.366Z" fill="#636A79"/>
<path d="M544.256 585.098C543.603 585.098 543.015 584.986 542.492 584.762C541.969 584.529 541.559 584.202 541.26 583.782C540.961 583.362 540.812 582.872 540.812 582.312H542.52C542.557 582.732 542.721 583.077 543.01 583.348C543.309 583.619 543.724 583.754 544.256 583.754C544.807 583.754 545.236 583.623 545.544 583.362C545.852 583.091 546.006 582.746 546.006 582.326C546.006 581.999 545.908 581.733 545.712 581.528C545.525 581.323 545.287 581.164 544.998 581.052C544.718 580.94 544.326 580.819 543.822 580.688C543.187 580.52 542.669 580.352 542.268 580.184C541.876 580.007 541.54 579.736 541.26 579.372C540.98 579.008 540.84 578.523 540.84 577.916C540.84 577.356 540.98 576.866 541.26 576.446C541.54 576.026 541.932 575.704 542.436 575.48C542.94 575.256 543.523 575.144 544.186 575.144C545.129 575.144 545.899 575.382 546.496 575.858C547.103 576.325 547.439 576.969 547.504 577.79H545.74C545.712 577.435 545.544 577.132 545.236 576.88C544.928 576.628 544.522 576.502 544.018 576.502C543.561 576.502 543.187 576.619 542.898 576.852C542.609 577.085 542.464 577.421 542.464 577.86C542.464 578.159 542.553 578.406 542.73 578.602C542.917 578.789 543.15 578.938 543.43 579.05C543.71 579.162 544.093 579.283 544.578 579.414C545.222 579.591 545.745 579.769 546.146 579.946C546.557 580.123 546.902 580.399 547.182 580.772C547.471 581.136 547.616 581.626 547.616 582.242C547.616 582.737 547.481 583.203 547.21 583.642C546.949 584.081 546.561 584.435 546.048 584.706C545.544 584.967 544.947 585.098 544.256 585.098ZM551.095 576.558V579.414H554.455V580.716H551.095V583.698H554.875V585H549.499V575.256H554.875V576.558H551.095ZM561.279 585.098C560.374 585.098 559.538 584.888 558.773 584.468C558.017 584.039 557.415 583.446 556.967 582.69C556.528 581.925 556.309 581.066 556.309 580.114C556.309 579.162 556.528 578.308 556.967 577.552C557.415 576.796 558.017 576.208 558.773 575.788C559.538 575.359 560.374 575.144 561.279 575.144C562.194 575.144 563.029 575.359 563.785 575.788C564.55 576.208 565.152 576.796 565.591 577.552C566.03 578.308 566.249 579.162 566.249 580.114C566.249 581.066 566.03 581.925 565.591 582.69C565.152 583.446 564.55 584.039 563.785 584.468C563.029 584.888 562.194 585.098 561.279 585.098ZM561.279 583.712C561.923 583.712 562.497 583.567 563.001 583.278C563.505 582.979 563.897 582.559 564.177 582.018C564.466 581.467 564.611 580.833 564.611 580.114C564.611 579.395 564.466 578.765 564.177 578.224C563.897 577.683 563.505 577.267 563.001 576.978C562.497 576.689 561.923 576.544 561.279 576.544C560.635 576.544 560.061 576.689 559.557 576.978C559.053 577.267 558.656 577.683 558.367 578.224C558.087 578.765 557.947 579.395 557.947 580.114C557.947 580.833 558.087 581.467 558.367 582.018C558.656 582.559 559.053 582.979 559.557 583.278C560.061 583.567 560.635 583.712 561.279 583.712Z" fill="#636A79"/>
<rect x="540" y="603" width="85" height="7" rx="3.5" fill="#F1F2F4"/>
<rect x="540" y="616" width="51" height="7" rx="3.5" fill="#F1F2F4"/>
<g filter="url(#filter0_d_2755_159214)">
<rect x="64" y="34" width="298" height="271" rx="12" fill="url(#paint0_linear_2755_159214)" shape-rendering="crispEdges"/>
<g filter="url(#filter1_d_2755_159214)">
<rect x="80.7031" y="50" width="38.4848" height="38.4848" rx="19.2424" transform="rotate(1.0478 80.7031 50)" fill="#F8F8F8"/>
<g clip-path="url(#clip1_2755_159214)">
<path d="M93.2902 71.8204L92.4542 74.7274L89.5929 74.7356C88.7672 73.1346 88.3155 71.3118 88.3508 69.3843C88.3849 67.5203 88.8703 65.7709 89.7021 64.2378L89.7028 64.2378L92.2406 64.7512L93.3097 67.3027C93.0638 67.9791 92.9232 68.7074 92.9093 69.4676C92.8943 70.2928 93.0293 71.0861 93.2902 71.8204Z" fill="#FBBB00"/>
<path d="M110.672 67.6936C110.789 68.3759 110.843 69.0794 110.83 69.797C110.815 70.6018 110.716 71.3852 110.541 72.1395C109.947 74.7062 108.476 76.93 106.466 78.4859L106.466 78.4853L103.261 78.263L102.859 75.4211C104.188 74.6743 105.237 73.4869 105.804 72.0528L99.7937 71.9429L99.875 67.4961L105.973 67.6076L110.672 67.6936Z" fill="#518EF8"/>
<path d="M106.464 78.4837L106.465 78.4844C104.51 79.9975 102.047 80.8791 99.3828 80.8304C95.1021 80.7521 91.4242 78.2915 89.59 74.7357L93.2872 71.8205C94.1901 74.3713 96.601 76.2195 99.4662 76.2719C100.698 76.2944 101.857 75.9826 102.858 75.4195L106.464 78.4837Z" fill="#28B446"/>
<path d="M106.924 61.0696L103.228 63.9842C102.215 63.325 101.01 62.9329 99.7128 62.9091C96.7829 62.8555 94.2588 64.6962 93.3091 67.304L89.7021 64.2391L89.7015 64.2391C91.6382 60.6665 95.4519 58.2711 99.7962 58.3506C102.524 58.4004 105.007 59.4177 106.924 61.0696Z" fill="#F14336"/>
</g>
</g>
<rect x="129.184" y="50" width="216.818" height="39.1822" rx="10" fill="#F8F8F8"/>
<path d="M145.62 74.0898L143.256 67.7298H144.348L146.448 73.4898H145.932L148.116 67.7298H149.088L151.224 73.4898H150.72L152.868 67.7298H153.9L151.524 74.0898H150.42L148.416 68.8338H148.752L146.724 74.0898H145.62ZM156.319 74.0898L153.955 67.7298H155.047L157.147 73.4898H156.631L158.815 67.7298H159.787L161.923 73.4898H161.419L163.567 67.7298H164.599L162.223 74.0898H161.119L159.115 68.8338H159.451L157.423 74.0898H156.319ZM167.018 74.0898L164.654 67.7298H165.746L167.846 73.4898H167.33L169.514 67.7298H170.486L172.622 73.4898H172.118L174.266 67.7298H175.298L172.922 74.0898H171.818L169.814 68.8338H170.15L168.122 74.0898H167.018ZM176.345 74.1618C176.121 74.1618 175.929 74.0858 175.769 73.9338C175.609 73.7738 175.529 73.5738 175.529 73.3338C175.529 73.0938 175.609 72.8978 175.769 72.7458C175.929 72.5938 176.121 72.5178 176.345 72.5178C176.561 72.5178 176.745 72.5938 176.897 72.7458C177.057 72.8978 177.137 73.0938 177.137 73.3338C177.137 73.5738 177.057 73.7738 176.897 73.9338C176.745 74.0858 176.561 74.1618 176.345 74.1618ZM178.665 76.4898C178.361 76.4898 178.065 76.4378 177.777 76.3338C177.489 76.2378 177.241 76.0938 177.033 75.9018L177.525 75.0378C177.685 75.1898 177.861 75.3058 178.053 75.3858C178.245 75.4658 178.449 75.5058 178.665 75.5058C178.945 75.5058 179.177 75.4338 179.361 75.2898C179.545 75.1458 179.717 74.8898 179.877 74.5218L180.273 73.6458L180.393 73.5018L182.889 67.7298H184.017L180.933 74.7258C180.749 75.1738 180.541 75.5258 180.309 75.7818C180.085 76.0378 179.837 76.2178 179.565 76.3218C179.293 76.4338 178.993 76.4898 178.665 76.4898ZM180.177 74.2938L177.273 67.7298H178.473L180.945 73.3938L180.177 74.2938ZM187.64 74.1618C187 74.1618 186.432 74.0218 185.936 73.7418C185.44 73.4618 185.048 73.0778 184.76 72.5898C184.472 72.0938 184.328 71.5338 184.328 70.9098C184.328 70.2778 184.472 69.7178 184.76 69.2298C185.048 68.7418 185.44 68.3618 185.936 68.0898C186.432 67.8098 187 67.6698 187.64 67.6698C188.272 67.6698 188.836 67.8098 189.332 68.0898C189.836 68.3618 190.228 68.7418 190.508 69.2298C190.796 69.7098 190.94 70.2698 190.94 70.9098C190.94 71.5418 190.796 72.1018 190.508 72.5898C190.228 73.0778 189.836 73.4618 189.332 73.7418C188.836 74.0218 188.272 74.1618 187.64 74.1618ZM187.64 73.1538C188.048 73.1538 188.412 73.0618 188.732 72.8778C189.06 72.6938 189.316 72.4338 189.5 72.0978C189.684 71.7538 189.776 71.3578 189.776 70.9098C189.776 70.4538 189.684 70.0618 189.5 69.7338C189.316 69.3978 189.06 69.1378 188.732 68.9538C188.412 68.7698 188.048 68.6778 187.64 68.6778C187.232 68.6778 186.868 68.7698 186.548 68.9538C186.228 69.1378 185.972 69.3978 185.78 69.7338C185.588 70.0618 185.492 70.4538 185.492 70.9098C185.492 71.3578 185.588 71.7538 185.78 72.0978C185.972 72.4338 186.228 72.6938 186.548 72.8778C186.868 73.0618 187.232 73.1538 187.64 73.1538ZM195.209 74.1618C194.665 74.1618 194.185 74.0618 193.769 73.8618C193.361 73.6618 193.041 73.3578 192.809 72.9498C192.585 72.5338 192.473 72.0138 192.473 71.3898V67.7298H193.625V71.2578C193.625 71.8818 193.773 72.3498 194.069 72.6618C194.373 72.9738 194.797 73.1298 195.341 73.1298C195.741 73.1298 196.089 73.0498 196.385 72.8898C196.681 72.7218 196.909 72.4818 197.069 72.1698C197.229 71.8498 197.309 71.4658 197.309 71.0178V67.7298H198.461V74.0898H197.369V72.3738L197.549 72.8298C197.341 73.2538 197.029 73.5818 196.613 73.8138C196.197 74.0458 195.729 74.1618 195.209 74.1618ZM200.655 74.0898V67.7298H201.759V69.4578L201.651 69.0258C201.827 68.5858 202.123 68.2498 202.539 68.0178C202.955 67.7858 203.467 67.6698 204.075 67.6698V68.7858C204.027 68.7778 203.979 68.7738 203.931 68.7738C203.891 68.7738 203.851 68.7738 203.811 68.7738C203.195 68.7738 202.707 68.9578 202.347 69.3258C201.987 69.6938 201.807 70.2258 201.807 70.9218V74.0898H200.655ZM207.389 74.1618C206.861 74.1618 206.357 74.0898 205.877 73.9458C205.405 73.8018 205.033 73.6258 204.761 73.4178L205.241 72.5058C205.513 72.6898 205.849 72.8458 206.249 72.9738C206.649 73.1018 207.057 73.1658 207.473 73.1658C208.009 73.1658 208.393 73.0898 208.625 72.9378C208.865 72.7858 208.985 72.5738 208.985 72.3018C208.985 72.1018 208.913 71.9458 208.769 71.8338C208.625 71.7218 208.433 71.6378 208.193 71.5818C207.961 71.5258 207.701 71.4778 207.413 71.4378C207.125 71.3898 206.837 71.3338 206.549 71.2698C206.261 71.1978 205.997 71.1018 205.757 70.9818C205.517 70.8538 205.325 70.6818 205.181 70.4658C205.037 70.2418 204.965 69.9458 204.965 69.5778C204.965 69.1938 205.073 68.8578 205.289 68.5698C205.505 68.2818 205.809 68.0618 206.201 67.9098C206.601 67.7498 207.073 67.6698 207.617 67.6698C208.033 67.6698 208.453 67.7218 208.877 67.8258C209.309 67.9218 209.661 68.0618 209.933 68.2458L209.441 69.1578C209.153 68.9658 208.853 68.8338 208.541 68.7618C208.229 68.6898 207.917 68.6538 207.605 68.6538C207.101 68.6538 206.725 68.7378 206.477 68.9058C206.229 69.0658 206.105 69.2738 206.105 69.5298C206.105 69.7458 206.177 69.9138 206.321 70.0338C206.473 70.1458 206.665 70.2338 206.897 70.2978C207.137 70.3618 207.401 70.4178 207.689 70.4658C207.977 70.5058 208.265 70.5618 208.553 70.6338C208.841 70.6978 209.101 70.7898 209.333 70.9098C209.573 71.0298 209.765 71.1978 209.909 71.4138C210.061 71.6298 210.137 71.9178 210.137 72.2778C210.137 72.6618 210.025 72.9938 209.801 73.2738C209.577 73.5538 209.261 73.7738 208.853 73.9338C208.445 74.0858 207.957 74.1618 207.389 74.1618ZM211.576 74.0898V67.7298H212.728V74.0898H211.576ZM212.152 66.5058C211.928 66.5058 211.74 66.4338 211.588 66.2898C211.444 66.1458 211.372 65.9698 211.372 65.7618C211.372 65.5458 211.444 65.3658 211.588 65.2218C211.74 65.0778 211.928 65.0058 212.152 65.0058C212.376 65.0058 212.56 65.0778 212.704 65.2218C212.856 65.3578 212.932 65.5298 212.932 65.7378C212.932 65.9538 212.86 66.1378 212.716 66.2898C212.572 66.4338 212.384 66.5058 212.152 66.5058ZM217.112 74.1618C216.472 74.1618 215.976 73.9898 215.624 73.6458C215.272 73.3018 215.096 72.8098 215.096 72.1698V66.3378H216.248V72.1218C216.248 72.4658 216.332 72.7298 216.5 72.9138C216.676 73.0978 216.924 73.1898 217.244 73.1898C217.604 73.1898 217.904 73.0898 218.144 72.8898L218.504 73.7178C218.328 73.8698 218.116 73.9818 217.868 74.0538C217.628 74.1258 217.376 74.1618 217.112 74.1618ZM214.016 68.6778V67.7298H218.072V68.6778H214.016ZM222.518 74.1618C221.838 74.1618 221.238 74.0218 220.718 73.7418C220.206 73.4618 219.806 73.0778 219.518 72.5898C219.238 72.1018 219.098 71.5418 219.098 70.9098C219.098 70.2778 219.234 69.7178 219.506 69.2298C219.786 68.7418 220.166 68.3618 220.646 68.0898C221.134 67.8098 221.682 67.6698 222.29 67.6698C222.906 67.6698 223.45 67.8058 223.922 68.0778C224.394 68.3498 224.762 68.7338 225.026 69.2298C225.298 69.7178 225.434 70.2898 225.434 70.9458C225.434 70.9938 225.43 71.0498 225.422 71.1138C225.422 71.1778 225.418 71.2378 225.41 71.2938H219.998V70.4658H224.81L224.342 70.7538C224.35 70.3458 224.266 69.9818 224.09 69.6618C223.914 69.3418 223.67 69.0938 223.358 68.9178C223.054 68.7338 222.698 68.6418 222.29 68.6418C221.89 68.6418 221.534 68.7338 221.222 68.9178C220.91 69.0938 220.666 69.3458 220.49 69.6738C220.314 69.9938 220.226 70.3618 220.226 70.7778V70.9698C220.226 71.3938 220.322 71.7738 220.514 72.1098C220.714 72.4378 220.99 72.6938 221.342 72.8778C221.694 73.0618 222.098 73.1538 222.554 73.1538C222.93 73.1538 223.27 73.0898 223.574 72.9618C223.886 72.8338 224.158 72.6418 224.39 72.3858L225.026 73.1298C224.738 73.4658 224.378 73.7218 223.946 73.8978C223.522 74.0738 223.046 74.1618 222.518 74.1618ZM227.309 74.1618C227.085 74.1618 226.893 74.0858 226.733 73.9338C226.573 73.7738 226.493 73.5738 226.493 73.3338C226.493 73.0938 226.573 72.8978 226.733 72.7458C226.893 72.5938 227.085 72.5178 227.309 72.5178C227.525 72.5178 227.709 72.5938 227.861 72.7458C228.021 72.8978 228.101 73.0938 228.101 73.3338C228.101 73.5738 228.021 73.7738 227.861 73.9338C227.709 74.0858 227.525 74.1618 227.309 74.1618ZM232.384 74.1618C231.736 74.1618 231.156 74.0218 230.644 73.7418C230.14 73.4618 229.744 73.0778 229.456 72.5898C229.168 72.1018 229.024 71.5418 229.024 70.9098C229.024 70.2778 229.168 69.7178 229.456 69.2298C229.744 68.7418 230.14 68.3618 230.644 68.0898C231.156 67.8098 231.736 67.6698 232.384 67.6698C232.96 67.6698 233.472 67.7858 233.92 68.0178C234.376 68.2418 234.728 68.5778 234.976 69.0258L234.1 69.5898C233.892 69.2778 233.636 69.0498 233.332 68.9058C233.036 68.7538 232.716 68.6778 232.372 68.6778C231.956 68.6778 231.584 68.7698 231.256 68.9538C230.928 69.1378 230.668 69.3978 230.476 69.7338C230.284 70.0618 230.188 70.4538 230.188 70.9098C230.188 71.3658 230.284 71.7618 230.476 72.0978C230.668 72.4338 230.928 72.6938 231.256 72.8778C231.584 73.0618 231.956 73.1538 232.372 73.1538C232.716 73.1538 233.036 73.0818 233.332 72.9378C233.636 72.7858 233.892 72.5538 234.1 72.2418L234.976 72.7938C234.728 73.2338 234.376 73.5738 233.92 73.8138C233.472 74.0458 232.96 74.1618 232.384 74.1618ZM239.097 74.1618C238.457 74.1618 237.889 74.0218 237.393 73.7418C236.897 73.4618 236.505 73.0778 236.217 72.5898C235.929 72.0938 235.785 71.5338 235.785 70.9098C235.785 70.2778 235.929 69.7178 236.217 69.2298C236.505 68.7418 236.897 68.3618 237.393 68.0898C237.889 67.8098 238.457 67.6698 239.097 67.6698C239.729 67.6698 240.293 67.8098 240.789 68.0898C241.293 68.3618 241.685 68.7418 241.965 69.2298C242.253 69.7098 242.397 70.2698 242.397 70.9098C242.397 71.5418 242.253 72.1018 241.965 72.5898C241.685 73.0778 241.293 73.4618 240.789 73.7418C240.293 74.0218 239.729 74.1618 239.097 74.1618ZM239.097 73.1538C239.505 73.1538 239.869 73.0618 240.189 72.8778C240.517 72.6938 240.773 72.4338 240.957 72.0978C241.141 71.7538 241.233 71.3578 241.233 70.9098C241.233 70.4538 241.141 70.0618 240.957 69.7338C240.773 69.3978 240.517 69.1378 240.189 68.9538C239.869 68.7698 239.505 68.6778 239.097 68.6778C238.689 68.6778 238.325 68.7698 238.005 68.9538C237.685 69.1378 237.429 69.3978 237.237 69.7338C237.045 70.0618 236.949 70.4538 236.949 70.9098C236.949 71.3578 237.045 71.7538 237.237 72.0978C237.429 72.4338 237.685 72.6938 238.005 72.8778C238.325 73.0618 238.689 73.1538 239.097 73.1538ZM251.946 67.6698C252.458 67.6698 252.91 67.7698 253.302 67.9698C253.694 68.1698 253.998 68.4738 254.214 68.8818C254.438 69.2898 254.55 69.8058 254.55 70.4298V74.0898H253.398V70.5618C253.398 69.9458 253.254 69.4818 252.966 69.1698C252.678 68.8578 252.274 68.7018 251.754 68.7018C251.37 68.7018 251.034 68.7818 250.746 68.9418C250.458 69.1018 250.234 69.3378 250.074 69.6498C249.922 69.9618 249.846 70.3498 249.846 70.8138V74.0898H248.694V70.5618C248.694 69.9458 248.55 69.4818 248.262 69.1698C247.982 68.8578 247.578 68.7018 247.05 68.7018C246.674 68.7018 246.342 68.7818 246.054 68.9418C245.766 69.1018 245.542 69.3378 245.382 69.6498C245.222 69.9618 245.142 70.3498 245.142 70.8138V74.0898H243.99V67.7298H245.094V69.4218L244.914 68.9898C245.114 68.5738 245.422 68.2498 245.838 68.0178C246.254 67.7858 246.738 67.6698 247.29 67.6698C247.898 67.6698 248.422 67.8218 248.862 68.1258C249.302 68.4218 249.59 68.8738 249.726 69.4818L249.258 69.2898C249.45 68.8018 249.786 68.4098 250.266 68.1138C250.746 67.8178 251.306 67.6698 251.946 67.6698Z" fill="#636A79"/>
<g filter="url(#filter2_d_2755_159214)">
<rect x="80.6641" y="105.184" width="36.3624" height="36.3624" rx="4" transform="rotate(1.0478 80.6641 105.184)" fill="#F8F8F8"/>
<path d="M105.733 126.272C105.733 126.43 105.675 126.588 105.55 126.713C105.308 126.955 104.908 126.955 104.666 126.713L99.2331 121.28C98.8331 120.88 98.1831 120.88 97.7831 121.28L92.3497 126.713C92.1081 126.955 91.7081 126.955 91.4664 126.713C91.2247 126.472 91.2247 126.072 91.4664 125.83L96.8997 120.397C97.3247 119.972 97.8997 119.73 98.5081 119.73C99.1164 119.73 99.6914 119.963 100.116 120.397L105.55 125.83C105.666 125.955 105.733 126.113 105.733 126.272Z" fill="#518EF8"/>
</g>
<rect x="129.02" y="105.184" width="216.979" height="69" rx="10" fill="#FDD426"/>
<path d="M145.42 125.184L143.068 118.776H144.484L146.5 124.428H145.828L147.94 118.776H149.2L151.252 124.428H150.592L152.668 118.776H154L151.636 125.184H150.196L148.324 120.18H148.768L146.86 125.184H145.42ZM156.33 125.184L153.978 118.776H155.394L157.41 124.428H156.738L158.85 118.776H160.11L162.162 124.428H161.502L163.578 118.776H164.91L162.546 125.184H161.106L159.234 120.18H159.678L157.77 125.184H156.33ZM167.24 125.184L164.888 118.776H166.304L168.32 124.428H167.648L169.76 118.776H171.02L173.072 124.428H172.412L174.488 118.776H175.82L173.456 125.184H172.016L170.144 120.18H170.588L168.68 125.184H167.24ZM176.933 125.268C176.661 125.268 176.429 125.176 176.237 124.992C176.045 124.8 175.949 124.56 175.949 124.272C175.949 123.968 176.045 123.728 176.237 123.552C176.429 123.368 176.661 123.276 176.933 123.276C177.205 123.276 177.437 123.368 177.629 123.552C177.821 123.728 177.917 123.968 177.917 124.272C177.917 124.56 177.821 124.8 177.629 124.992C177.437 125.176 177.205 125.268 176.933 125.268ZM179.512 127.596C179.2 127.596 178.888 127.544 178.576 127.44C178.264 127.336 178.004 127.192 177.796 127.008L178.396 125.904C178.548 126.04 178.72 126.148 178.912 126.228C179.104 126.308 179.3 126.348 179.5 126.348C179.772 126.348 179.992 126.28 180.16 126.144C180.328 126.008 180.484 125.78 180.628 125.46L181 124.62L181.12 124.44L183.544 118.776H184.984L181.984 125.7C181.784 126.18 181.56 126.56 181.312 126.84C181.072 127.12 180.8 127.316 180.496 127.428C180.2 127.54 179.872 127.596 179.512 127.596ZM180.832 125.412L177.94 118.776H179.5L181.852 124.308L180.832 125.412ZM188.626 125.268C187.97 125.268 187.386 125.128 186.874 124.848C186.362 124.56 185.958 124.168 185.662 123.672C185.366 123.176 185.218 122.612 185.218 121.98C185.218 121.34 185.366 120.776 185.662 120.288C185.958 119.792 186.362 119.404 186.874 119.124C187.386 118.844 187.97 118.704 188.626 118.704C189.29 118.704 189.878 118.844 190.39 119.124C190.91 119.404 191.314 119.788 191.602 120.276C191.898 120.764 192.046 121.332 192.046 121.98C192.046 122.612 191.898 123.176 191.602 123.672C191.314 124.168 190.91 124.56 190.39 124.848C189.878 125.128 189.29 125.268 188.626 125.268ZM188.626 123.984C188.994 123.984 189.322 123.904 189.61 123.744C189.898 123.584 190.122 123.352 190.282 123.048C190.45 122.744 190.534 122.388 190.534 121.98C190.534 121.564 190.45 121.208 190.282 120.912C190.122 120.608 189.898 120.376 189.61 120.216C189.322 120.056 188.998 119.976 188.638 119.976C188.27 119.976 187.942 120.056 187.654 120.216C187.374 120.376 187.15 120.608 186.982 120.912C186.814 121.208 186.73 121.564 186.73 121.98C186.73 122.388 186.814 122.744 186.982 123.048C187.15 123.352 187.374 123.584 187.654 123.744C187.942 123.904 188.266 123.984 188.626 123.984ZM196.192 125.268C195.648 125.268 195.168 125.168 194.752 124.968C194.336 124.76 194.012 124.448 193.78 124.032C193.548 123.608 193.432 123.076 193.432 122.436V118.776H194.932V122.232C194.932 122.808 195.06 123.24 195.316 123.528C195.58 123.808 195.952 123.948 196.432 123.948C196.784 123.948 197.088 123.876 197.344 123.732C197.608 123.588 197.812 123.372 197.956 123.084C198.108 122.796 198.184 122.44 198.184 122.016V118.776H199.684V125.184H198.256V123.456L198.508 123.984C198.292 124.4 197.976 124.72 197.56 124.944C197.144 125.16 196.688 125.268 196.192 125.268ZM201.648 125.184V118.776H203.076V120.54L202.908 120.024C203.1 119.592 203.4 119.264 203.808 119.04C204.224 118.816 204.74 118.704 205.356 118.704V120.132C205.292 120.116 205.232 120.108 205.176 120.108C205.12 120.1 205.064 120.096 205.008 120.096C204.44 120.096 203.988 120.264 203.652 120.6C203.316 120.928 203.148 121.42 203.148 122.076V125.184H201.648ZM208.667 125.268C208.131 125.268 207.615 125.2 207.119 125.064C206.631 124.92 206.243 124.748 205.955 124.548L206.531 123.408C206.819 123.592 207.163 123.744 207.563 123.864C207.963 123.984 208.363 124.044 208.763 124.044C209.235 124.044 209.575 123.98 209.783 123.852C209.999 123.724 210.107 123.552 210.107 123.336C210.107 123.16 210.035 123.028 209.891 122.94C209.747 122.844 209.559 122.772 209.327 122.724C209.095 122.676 208.835 122.632 208.547 122.592C208.267 122.552 207.983 122.5 207.695 122.436C207.415 122.364 207.159 122.264 206.927 122.136C206.695 122 206.507 121.82 206.363 121.596C206.219 121.372 206.147 121.076 206.147 120.708C206.147 120.3 206.263 119.948 206.495 119.652C206.727 119.348 207.051 119.116 207.467 118.956C207.891 118.788 208.391 118.704 208.967 118.704C209.399 118.704 209.835 118.752 210.275 118.848C210.715 118.944 211.079 119.08 211.367 119.256L210.791 120.396C210.487 120.212 210.179 120.088 209.867 120.024C209.563 119.952 209.259 119.916 208.955 119.916C208.499 119.916 208.159 119.984 207.935 120.12C207.719 120.256 207.611 120.428 207.611 120.636C207.611 120.828 207.683 120.972 207.827 121.068C207.971 121.164 208.159 121.24 208.391 121.296C208.623 121.352 208.879 121.4 209.159 121.44C209.447 121.472 209.731 121.524 210.011 121.596C210.291 121.668 210.547 121.768 210.779 121.896C211.019 122.016 211.211 122.188 211.355 122.412C211.499 122.636 211.571 122.928 211.571 123.288C211.571 123.688 211.451 124.036 211.211 124.332C210.979 124.628 210.647 124.86 210.215 125.028C209.783 125.188 209.267 125.268 208.667 125.268ZM212.863 125.184V118.776H214.363V125.184H212.863ZM213.619 117.72C213.339 117.72 213.107 117.632 212.923 117.456C212.747 117.28 212.659 117.068 212.659 116.82C212.659 116.564 212.747 116.352 212.923 116.184C213.107 116.008 213.339 115.92 213.619 115.92C213.899 115.92 214.127 116.004 214.303 116.172C214.487 116.332 214.579 116.536 214.579 116.784C214.579 117.048 214.491 117.272 214.315 117.456C214.139 117.632 213.907 117.72 213.619 117.72ZM218.744 125.268C218.04 125.268 217.496 125.088 217.112 124.728C216.728 124.36 216.536 123.82 216.536 123.108V117.36H218.036V123.072C218.036 123.376 218.112 123.612 218.264 123.78C218.424 123.948 218.644 124.032 218.924 124.032C219.26 124.032 219.54 123.944 219.764 123.768L220.184 124.836C220.008 124.98 219.792 125.088 219.536 125.16C219.28 125.232 219.016 125.268 218.744 125.268ZM215.48 120.024V118.824H219.752V120.024H215.48ZM224.219 125.268C223.507 125.268 222.883 125.128 222.347 124.848C221.819 124.56 221.407 124.168 221.111 123.672C220.823 123.176 220.679 122.612 220.679 121.98C220.679 121.34 220.819 120.776 221.099 120.288C221.387 119.792 221.779 119.404 222.275 119.124C222.779 118.844 223.351 118.704 223.991 118.704C224.615 118.704 225.171 118.84 225.659 119.112C226.147 119.384 226.531 119.768 226.811 120.264C227.091 120.76 227.231 121.344 227.231 122.016C227.231 122.08 227.227 122.152 227.219 122.232C227.219 122.312 227.215 122.388 227.207 122.46H221.867V121.464H226.415L225.827 121.776C225.835 121.408 225.759 121.084 225.599 120.804C225.439 120.524 225.219 120.304 224.939 120.144C224.667 119.984 224.351 119.904 223.991 119.904C223.623 119.904 223.299 119.984 223.019 120.144C222.747 120.304 222.531 120.528 222.371 120.816C222.219 121.096 222.143 121.428 222.143 121.812V122.052C222.143 122.436 222.231 122.776 222.407 123.072C222.583 123.368 222.831 123.596 223.151 123.756C223.471 123.916 223.839 123.996 224.255 123.996C224.615 123.996 224.939 123.94 225.227 123.828C225.515 123.716 225.771 123.54 225.995 123.3L226.799 124.224C226.511 124.56 226.147 124.82 225.707 125.004C225.275 125.18 224.779 125.268 224.219 125.268ZM229.152 125.268C228.88 125.268 228.648 125.176 228.456 124.992C228.264 124.8 228.168 124.56 228.168 124.272C228.168 123.968 228.264 123.728 228.456 123.552C228.648 123.368 228.88 123.276 229.152 123.276C229.424 123.276 229.656 123.368 229.848 123.552C230.04 123.728 230.136 123.968 230.136 124.272C230.136 124.56 230.04 124.8 229.848 124.992C229.656 125.176 229.424 125.268 229.152 125.268ZM234.424 125.268C233.752 125.268 233.152 125.128 232.624 124.848C232.104 124.56 231.696 124.168 231.4 123.672C231.104 123.176 230.956 122.612 230.956 121.98C230.956 121.34 231.104 120.776 231.4 120.288C231.696 119.792 232.104 119.404 232.624 119.124C233.152 118.844 233.752 118.704 234.424 118.704C235.048 118.704 235.596 118.832 236.068 119.088C236.548 119.336 236.912 119.704 237.16 120.192L236.008 120.864C235.816 120.56 235.58 120.336 235.3 120.192C235.028 120.048 234.732 119.976 234.412 119.976C234.044 119.976 233.712 120.056 233.416 120.216C233.12 120.376 232.888 120.608 232.72 120.912C232.552 121.208 232.468 121.564 232.468 121.98C232.468 122.396 232.552 122.756 232.72 123.06C232.888 123.356 233.12 123.584 233.416 123.744C233.712 123.904 234.044 123.984 234.412 123.984C234.732 123.984 235.028 123.912 235.3 123.768C235.58 123.624 235.816 123.4 236.008 123.096L237.16 123.768C236.912 124.248 236.548 124.62 236.068 124.884C235.596 125.14 235.048 125.268 234.424 125.268ZM241.243 125.268C240.587 125.268 240.003 125.128 239.491 124.848C238.979 124.56 238.575 124.168 238.279 123.672C237.983 123.176 237.835 122.612 237.835 121.98C237.835 121.34 237.983 120.776 238.279 120.288C238.575 119.792 238.979 119.404 239.491 119.124C240.003 118.844 240.587 118.704 241.243 118.704C241.907 118.704 242.495 118.844 243.007 119.124C243.527 119.404 243.931 119.788 244.219 120.276C244.515 120.764 244.663 121.332 244.663 121.98C244.663 122.612 244.515 123.176 244.219 123.672C243.931 124.168 243.527 124.56 243.007 124.848C242.495 125.128 241.907 125.268 241.243 125.268ZM241.243 123.984C241.611 123.984 241.939 123.904 242.227 123.744C242.515 123.584 242.739 123.352 242.899 123.048C243.067 122.744 243.151 122.388 243.151 121.98C243.151 121.564 243.067 121.208 242.899 120.912C242.739 120.608 242.515 120.376 242.227 120.216C241.939 120.056 241.615 119.976 241.255 119.976C240.887 119.976 240.559 120.056 240.271 120.216C239.991 120.376 239.767 120.608 239.599 120.912C239.431 121.208 239.347 121.564 239.347 121.98C239.347 122.388 239.431 122.744 239.599 123.048C239.767 123.352 239.991 123.584 240.271 123.744C240.559 123.904 240.883 123.984 241.243 123.984ZM254.185 118.704C254.697 118.704 255.149 118.804 255.541 119.004C255.941 119.204 256.253 119.512 256.477 119.928C256.701 120.336 256.813 120.864 256.813 121.512V125.184H255.313V121.704C255.313 121.136 255.189 120.712 254.941 120.432C254.693 120.152 254.337 120.012 253.873 120.012C253.545 120.012 253.253 120.084 252.997 120.228C252.749 120.372 252.553 120.584 252.409 120.864C252.273 121.144 252.205 121.5 252.205 121.932V125.184H250.705V121.704C250.705 121.136 250.581 120.712 250.333 120.432C250.085 120.152 249.729 120.012 249.265 120.012C248.937 120.012 248.645 120.084 248.389 120.228C248.141 120.372 247.945 120.584 247.801 120.864C247.665 121.144 247.597 121.5 247.597 121.932V125.184H246.097V118.776H247.525V120.48L247.273 119.976C247.489 119.56 247.801 119.244 248.209 119.028C248.625 118.812 249.097 118.704 249.625 118.704C250.225 118.704 250.745 118.852 251.185 119.148C251.633 119.444 251.929 119.892 252.073 120.492L251.485 120.288C251.693 119.808 252.037 119.424 252.517 119.136C252.997 118.848 253.553 118.704 254.185 118.704Z" fill="#F8F9FB"/>
<rect x="143.02" y="140.184" width="188.979" height="7" rx="3.5" fill="white"/>
<rect x="143.02" y="153.184" width="167" height="7" rx="3.5" fill="white"/>
<g filter="url(#filter3_d_2755_159214)">
<rect x="80.6641" y="186.184" width="36.3624" height="36.3624" rx="4" transform="rotate(1.0478 80.6641 186.184)" fill="white"/>
<path d="M91.2826 202.119C91.2826 201.961 91.3409 201.802 91.4659 201.677C91.7076 201.436 92.1076 201.436 92.3492 201.677L97.7826 207.111C98.1826 207.511 98.8326 207.511 99.2326 207.111L104.666 201.677C104.908 201.436 105.308 201.436 105.549 201.677C105.791 201.919 105.791 202.319 105.549 202.561L100.116 207.994C99.6909 208.419 99.1159 208.661 98.5076 208.661C97.8992 208.661 97.3242 208.427 96.8992 207.994L91.4659 202.561C91.3492 202.436 91.2826 202.277 91.2826 202.119Z" fill="#C1C5CD"/>
</g>
<rect x="129.02" y="186.184" width="216.979" height="69" rx="10" fill="white"/>
<path d="M145.456 206.184L143.092 199.824H144.184L146.284 205.584H145.768L147.952 199.824H148.924L151.06 205.584H150.556L152.704 199.824H153.736L151.36 206.184H150.256L148.252 200.928H148.588L146.56 206.184H145.456ZM156.155 206.184L153.791 199.824H154.883L156.983 205.584H156.467L158.651 199.824H159.623L161.759 205.584H161.255L163.403 199.824H164.435L162.059 206.184H160.955L158.951 200.928H159.287L157.259 206.184H156.155ZM166.854 206.184L164.49 199.824H165.582L167.682 205.584H167.166L169.35 199.824H170.322L172.458 205.584H171.954L174.102 199.824H175.134L172.758 206.184H171.654L169.65 200.928H169.986L167.958 206.184H166.854ZM176.181 206.256C175.957 206.256 175.765 206.18 175.604 206.028C175.445 205.868 175.365 205.668 175.365 205.428C175.365 205.188 175.445 204.992 175.604 204.84C175.765 204.688 175.957 204.612 176.181 204.612C176.397 204.612 176.581 204.688 176.733 204.84C176.893 204.992 176.973 205.188 176.973 205.428C176.973 205.668 176.893 205.868 176.733 206.028C176.581 206.18 176.397 206.256 176.181 206.256ZM181.207 206.256C180.567 206.256 179.999 206.116 179.503 205.836C179.007 205.556 178.615 205.172 178.327 204.684C178.039 204.188 177.895 203.628 177.895 203.004C177.895 202.372 178.039 201.812 178.327 201.324C178.615 200.836 179.007 200.456 179.503 200.184C179.999 199.904 180.567 199.764 181.207 199.764C181.839 199.764 182.403 199.904 182.899 200.184C183.403 200.456 183.795 200.836 184.075 201.324C184.363 201.804 184.507 202.364 184.507 203.004C184.507 203.636 184.363 204.196 184.075 204.684C183.795 205.172 183.403 205.556 182.899 205.836C182.403 206.116 181.839 206.256 181.207 206.256ZM181.207 205.248C181.615 205.248 181.979 205.156 182.299 204.972C182.627 204.788 182.883 204.528 183.067 204.192C183.251 203.848 183.343 203.452 183.343 203.004C183.343 202.548 183.251 202.156 183.067 201.828C182.883 201.492 182.627 201.232 182.299 201.048C181.979 200.864 181.615 200.772 181.207 200.772C180.799 200.772 180.435 200.864 180.115 201.048C179.795 201.232 179.539 201.492 179.347 201.828C179.155 202.156 179.059 202.548 179.059 203.004C179.059 203.452 179.155 203.848 179.347 204.192C179.539 204.528 179.795 204.788 180.115 204.972C180.435 205.156 180.799 205.248 181.207 205.248ZM188.284 206.256C187.644 206.256 187.148 206.084 186.796 205.74C186.444 205.396 186.268 204.904 186.268 204.264V198.432H187.42V204.216C187.42 204.56 187.504 204.824 187.672 205.008C187.848 205.192 188.096 205.284 188.416 205.284C188.776 205.284 189.076 205.184 189.316 204.984L189.676 205.812C189.5 205.964 189.288 206.076 189.04 206.148C188.8 206.22 188.548 206.256 188.284 206.256ZM185.188 200.772V199.824H189.244V200.772H185.188ZM194.465 199.764C194.985 199.764 195.441 199.864 195.833 200.064C196.233 200.264 196.545 200.568 196.769 200.976C196.993 201.384 197.105 201.9 197.105 202.524V206.184H195.953V202.656C195.953 202.04 195.801 201.576 195.497 201.264C195.201 200.952 194.781 200.796 194.237 200.796C193.829 200.796 193.473 200.876 193.169 201.036C192.865 201.196 192.629 201.432 192.461 201.744C192.301 202.056 192.221 202.444 192.221 202.908V206.184H191.069V197.28H192.221V201.54L191.993 201.084C192.201 200.668 192.521 200.344 192.953 200.112C193.385 199.88 193.889 199.764 194.465 199.764ZM202.069 206.256C201.389 206.256 200.789 206.116 200.269 205.836C199.757 205.556 199.357 205.172 199.069 204.684C198.789 204.196 198.649 203.636 198.649 203.004C198.649 202.372 198.785 201.812 199.057 201.324C199.337 200.836 199.717 200.456 200.197 200.184C200.685 199.904 201.233 199.764 201.841 199.764C202.457 199.764 203.001 199.9 203.473 200.172C203.945 200.444 204.313 200.828 204.577 201.324C204.849 201.812 204.985 202.384 204.985 203.04C204.985 203.088 204.981 203.144 204.973 203.208C204.973 203.272 204.969 203.332 204.961 203.388H199.549V202.56H204.361L203.893 202.848C203.901 202.44 203.817 202.076 203.641 201.756C203.465 201.436 203.221 201.188 202.909 201.012C202.605 200.828 202.249 200.736 201.841 200.736C201.441 200.736 201.085 200.828 200.773 201.012C200.461 201.188 200.217 201.44 200.041 201.768C199.865 202.088 199.777 202.456 199.777 202.872V203.064C199.777 203.488 199.873 203.868 200.065 204.204C200.265 204.532 200.541 204.788 200.893 204.972C201.245 205.156 201.649 205.248 202.105 205.248C202.481 205.248 202.821 205.184 203.125 205.056C203.437 204.928 203.709 204.736 203.941 204.48L204.577 205.224C204.289 205.56 203.929 205.816 203.497 205.992C203.073 206.168 202.597 206.256 202.069 206.256ZM206.584 206.184V199.824H207.688V201.552L207.58 201.12C207.756 200.68 208.052 200.344 208.468 200.112C208.884 199.88 209.396 199.764 210.004 199.764V200.88C209.956 200.872 209.908 200.868 209.86 200.868C209.82 200.868 209.78 200.868 209.74 200.868C209.124 200.868 208.636 201.052 208.276 201.42C207.916 201.788 207.736 202.32 207.736 203.016V206.184H206.584ZM213.318 206.256C212.79 206.256 212.286 206.184 211.806 206.04C211.334 205.896 210.962 205.72 210.69 205.512L211.17 204.6C211.442 204.784 211.778 204.94 212.178 205.068C212.578 205.196 212.986 205.26 213.402 205.26C213.938 205.26 214.322 205.184 214.554 205.032C214.794 204.88 214.914 204.668 214.914 204.396C214.914 204.196 214.842 204.04 214.698 203.928C214.554 203.816 214.362 203.732 214.122 203.676C213.89 203.62 213.63 203.572 213.342 203.532C213.054 203.484 212.766 203.428 212.478 203.364C212.19 203.292 211.926 203.196 211.686 203.076C211.446 202.948 211.254 202.776 211.11 202.56C210.966 202.336 210.894 202.04 210.894 201.672C210.894 201.288 211.002 200.952 211.218 200.664C211.434 200.376 211.738 200.156 212.13 200.004C212.53 199.844 213.002 199.764 213.546 199.764C213.962 199.764 214.382 199.816 214.806 199.92C215.238 200.016 215.59 200.156 215.862 200.34L215.37 201.252C215.082 201.06 214.782 200.928 214.47 200.856C214.158 200.784 213.846 200.748 213.534 200.748C213.03 200.748 212.654 200.832 212.406 201C212.158 201.16 212.034 201.368 212.034 201.624C212.034 201.84 212.106 202.008 212.25 202.128C212.402 202.24 212.594 202.328 212.826 202.392C213.066 202.456 213.33 202.512 213.618 202.56C213.906 202.6 214.194 202.656 214.482 202.728C214.77 202.792 215.03 202.884 215.262 203.004C215.502 203.124 215.694 203.292 215.838 203.508C215.99 203.724 216.066 204.012 216.066 204.372C216.066 204.756 215.954 205.088 215.73 205.368C215.506 205.648 215.19 205.868 214.782 206.028C214.374 206.18 213.886 206.256 213.318 206.256ZM217.506 206.184V199.824H218.658V206.184H217.506ZM218.082 198.6C217.858 198.6 217.67 198.528 217.518 198.384C217.374 198.24 217.302 198.064 217.302 197.856C217.302 197.64 217.374 197.46 217.518 197.316C217.67 197.172 217.858 197.1 218.082 197.1C218.306 197.1 218.49 197.172 218.634 197.316C218.786 197.452 218.862 197.624 218.862 197.832C218.862 198.048 218.79 198.232 218.646 198.384C218.502 198.528 218.314 198.6 218.082 198.6ZM223.042 206.256C222.402 206.256 221.906 206.084 221.554 205.74C221.202 205.396 221.026 204.904 221.026 204.264V198.432H222.178V204.216C222.178 204.56 222.262 204.824 222.43 205.008C222.606 205.192 222.854 205.284 223.174 205.284C223.534 205.284 223.834 205.184 224.074 204.984L224.434 205.812C224.258 205.964 224.046 206.076 223.798 206.148C223.558 206.22 223.306 206.256 223.042 206.256ZM219.946 200.772V199.824H224.002V200.772H219.946ZM228.447 206.256C227.767 206.256 227.167 206.116 226.647 205.836C226.135 205.556 225.735 205.172 225.447 204.684C225.167 204.196 225.027 203.636 225.027 203.004C225.027 202.372 225.163 201.812 225.435 201.324C225.715 200.836 226.095 200.456 226.575 200.184C227.063 199.904 227.611 199.764 228.219 199.764C228.835 199.764 229.379 199.9 229.851 200.172C230.323 200.444 230.691 200.828 230.955 201.324C231.227 201.812 231.363 202.384 231.363 203.04C231.363 203.088 231.359 203.144 231.351 203.208C231.351 203.272 231.347 203.332 231.339 203.388H225.927V202.56H230.739L230.271 202.848C230.279 202.44 230.195 202.076 230.019 201.756C229.843 201.436 229.599 201.188 229.287 201.012C228.983 200.828 228.627 200.736 228.219 200.736C227.819 200.736 227.463 200.828 227.151 201.012C226.839 201.188 226.595 201.44 226.419 201.768C226.243 202.088 226.155 202.456 226.155 202.872V203.064C226.155 203.488 226.251 203.868 226.443 204.204C226.643 204.532 226.919 204.788 227.271 204.972C227.623 205.156 228.027 205.248 228.483 205.248C228.859 205.248 229.199 205.184 229.503 205.056C229.815 204.928 230.087 204.736 230.319 204.48L230.955 205.224C230.667 205.56 230.307 205.816 229.875 205.992C229.451 206.168 228.975 206.256 228.447 206.256ZM234.787 206.256C234.259 206.256 233.755 206.184 233.275 206.04C232.803 205.896 232.431 205.72 232.159 205.512L232.639 204.6C232.911 204.784 233.247 204.94 233.647 205.068C234.047 205.196 234.455 205.26 234.871 205.26C235.407 205.26 235.791 205.184 236.023 205.032C236.263 204.88 236.383 204.668 236.383 204.396C236.383 204.196 236.311 204.04 236.167 203.928C236.023 203.816 235.831 203.732 235.591 203.676C235.359 203.62 235.099 203.572 234.811 203.532C234.523 203.484 234.235 203.428 233.947 203.364C233.659 203.292 233.395 203.196 233.155 203.076C232.915 202.948 232.723 202.776 232.579 202.56C232.435 202.336 232.363 202.04 232.363 201.672C232.363 201.288 232.471 200.952 232.687 200.664C232.903 200.376 233.207 200.156 233.599 200.004C233.999 199.844 234.471 199.764 235.015 199.764C235.431 199.764 235.851 199.816 236.275 199.92C236.707 200.016 237.059 200.156 237.331 200.34L236.839 201.252C236.551 201.06 236.251 200.928 235.939 200.856C235.627 200.784 235.315 200.748 235.003 200.748C234.499 200.748 234.123 200.832 233.875 201C233.627 201.16 233.503 201.368 233.503 201.624C233.503 201.84 233.575 202.008 233.719 202.128C233.871 202.24 234.063 202.328 234.295 202.392C234.535 202.456 234.799 202.512 235.087 202.56C235.375 202.6 235.663 202.656 235.951 202.728C236.239 202.792 236.499 202.884 236.731 203.004C236.971 203.124 237.163 203.292 237.307 203.508C237.459 203.724 237.535 204.012 237.535 204.372C237.535 204.756 237.423 205.088 237.199 205.368C236.975 205.648 236.659 205.868 236.251 206.028C235.843 206.18 235.355 206.256 234.787 206.256ZM239.251 206.256C239.027 206.256 238.835 206.18 238.675 206.028C238.515 205.868 238.435 205.668 238.435 205.428C238.435 205.188 238.515 204.992 238.675 204.84C238.835 204.688 239.027 204.612 239.251 204.612C239.467 204.612 239.651 204.688 239.803 204.84C239.963 204.992 240.043 205.188 240.043 205.428C240.043 205.668 239.963 205.868 239.803 206.028C239.651 206.18 239.467 206.256 239.251 206.256ZM244.325 206.256C243.677 206.256 243.097 206.116 242.585 205.836C242.081 205.556 241.685 205.172 241.397 204.684C241.109 204.196 240.965 203.636 240.965 203.004C240.965 202.372 241.109 201.812 241.397 201.324C241.685 200.836 242.081 200.456 242.585 200.184C243.097 199.904 243.677 199.764 244.325 199.764C244.901 199.764 245.413 199.88 245.861 200.112C246.317 200.336 246.669 200.672 246.917 201.12L246.041 201.684C245.833 201.372 245.577 201.144 245.273 201C244.977 200.848 244.657 200.772 244.313 200.772C243.897 200.772 243.525 200.864 243.197 201.048C242.869 201.232 242.609 201.492 242.417 201.828C242.225 202.156 242.129 202.548 242.129 203.004C242.129 203.46 242.225 203.856 242.417 204.192C242.609 204.528 242.869 204.788 243.197 204.972C243.525 205.156 243.897 205.248 244.313 205.248C244.657 205.248 244.977 205.176 245.273 205.032C245.577 204.88 245.833 204.648 246.041 204.336L246.917 204.888C246.669 205.328 246.317 205.668 245.861 205.908C245.413 206.14 244.901 206.256 244.325 206.256ZM251.039 206.256C250.399 206.256 249.831 206.116 249.335 205.836C248.839 205.556 248.447 205.172 248.159 204.684C247.871 204.188 247.727 203.628 247.727 203.004C247.727 202.372 247.871 201.812 248.159 201.324C248.447 200.836 248.839 200.456 249.335 200.184C249.831 199.904 250.399 199.764 251.039 199.764C251.671 199.764 252.235 199.904 252.731 200.184C253.235 200.456 253.627 200.836 253.907 201.324C254.195 201.804 254.339 202.364 254.339 203.004C254.339 203.636 254.195 204.196 253.907 204.684C253.627 205.172 253.235 205.556 252.731 205.836C252.235 206.116 251.671 206.256 251.039 206.256ZM251.039 205.248C251.447 205.248 251.811 205.156 252.131 204.972C252.459 204.788 252.715 204.528 252.899 204.192C253.083 203.848 253.175 203.452 253.175 203.004C253.175 202.548 253.083 202.156 252.899 201.828C252.715 201.492 252.459 201.232 252.131 201.048C251.811 200.864 251.447 200.772 251.039 200.772C250.631 200.772 250.267 200.864 249.947 201.048C249.627 201.232 249.371 201.492 249.179 201.828C248.987 202.156 248.891 202.548 248.891 203.004C248.891 203.452 248.987 203.848 249.179 204.192C249.371 204.528 249.627 204.788 249.947 204.972C250.267 205.156 250.631 205.248 251.039 205.248ZM263.888 199.764C264.4 199.764 264.852 199.864 265.244 200.064C265.636 200.264 265.94 200.568 266.156 200.976C266.38 201.384 266.492 201.9 266.492 202.524V206.184H265.34V202.656C265.34 202.04 265.196 201.576 264.908 201.264C264.62 200.952 264.216 200.796 263.696 200.796C263.312 200.796 262.976 200.876 262.688 201.036C262.4 201.196 262.176 201.432 262.016 201.744C261.864 202.056 261.788 202.444 261.788 202.908V206.184H260.636V202.656C260.636 202.04 260.492 201.576 260.204 201.264C259.924 200.952 259.52 200.796 258.992 200.796C258.616 200.796 258.284 200.876 257.996 201.036C257.708 201.196 257.484 201.432 257.324 201.744C257.164 202.056 257.084 202.444 257.084 202.908V206.184H255.932V199.824H257.036V201.516L256.856 201.084C257.056 200.668 257.364 200.344 257.78 200.112C258.196 199.88 258.68 199.764 259.232 199.764C259.84 199.764 260.364 199.916 260.804 200.22C261.244 200.516 261.532 200.968 261.668 201.576L261.2 201.384C261.392 200.896 261.728 200.504 262.208 200.208C262.688 199.912 263.248 199.764 263.888 199.764Z" fill="#636A79"/>
<rect x="143.02" y="221.184" width="188.979" height="7" rx="3.5" fill="#F1F2F4"/>
<rect x="143.02" y="234.184" width="167" height="7" rx="3.5" fill="#F1F2F4"/>
<g filter="url(#filter4_d_2755_159214)">
<rect x="80.6641" y="267.184" width="36.3624" height="36.3624" rx="4" transform="rotate(1.0478 80.6641 267.184)" fill="white"/>
<path d="M91.2826 283.119C91.2826 282.961 91.3409 282.802 91.4659 282.677C91.7076 282.436 92.1076 282.436 92.3492 282.677L97.7826 288.111C98.1826 288.511 98.8326 288.511 99.2326 288.111L104.666 282.677C104.908 282.436 105.308 282.436 105.549 282.677C105.791 282.919 105.791 283.319 105.549 283.561L100.116 288.994C99.6909 289.419 99.1159 289.661 98.5076 289.661C97.8992 289.661 97.3242 289.427 96.8992 288.994L91.4659 283.561C91.3492 283.436 91.2826 283.277 91.2826 283.119Z" fill="#C1C5CD"/>
</g>
<rect x="129.02" y="267.184" width="216.979" height="69" rx="10" fill="white"/>
<path d="M145.456 287.184L143.092 280.824H144.184L146.284 286.584H145.768L147.952 280.824H148.924L151.06 286.584H150.556L152.704 280.824H153.736L151.36 287.184H150.256L148.252 281.928H148.588L146.56 287.184H145.456ZM156.155 287.184L153.791 280.824H154.883L156.983 286.584H156.467L158.651 280.824H159.623L161.759 286.584H161.255L163.403 280.824H164.435L162.059 287.184H160.955L158.951 281.928H159.287L157.259 287.184H156.155ZM166.854 287.184L164.49 280.824H165.582L167.682 286.584H167.166L169.35 280.824H170.322L172.458 286.584H171.954L174.102 280.824H175.134L172.758 287.184H171.654L169.65 281.928H169.986L167.958 287.184H166.854ZM176.181 287.256C175.957 287.256 175.765 287.18 175.604 287.028C175.445 286.868 175.365 286.668 175.365 286.428C175.365 286.188 175.445 285.992 175.604 285.84C175.765 285.688 175.957 285.612 176.181 285.612C176.397 285.612 176.581 285.688 176.733 285.84C176.893 285.992 176.973 286.188 176.973 286.428C176.973 286.668 176.893 286.868 176.733 287.028C176.581 287.18 176.397 287.256 176.181 287.256ZM181.207 287.256C180.567 287.256 179.999 287.116 179.503 286.836C179.007 286.556 178.615 286.172 178.327 285.684C178.039 285.188 177.895 284.628 177.895 284.004C177.895 283.372 178.039 282.812 178.327 282.324C178.615 281.836 179.007 281.456 179.503 281.184C179.999 280.904 180.567 280.764 181.207 280.764C181.839 280.764 182.403 280.904 182.899 281.184C183.403 281.456 183.795 281.836 184.075 282.324C184.363 282.804 184.507 283.364 184.507 284.004C184.507 284.636 184.363 285.196 184.075 285.684C183.795 286.172 183.403 286.556 182.899 286.836C182.403 287.116 181.839 287.256 181.207 287.256ZM181.207 286.248C181.615 286.248 181.979 286.156 182.299 285.972C182.627 285.788 182.883 285.528 183.067 285.192C183.251 284.848 183.343 284.452 183.343 284.004C183.343 283.548 183.251 283.156 183.067 282.828C182.883 282.492 182.627 282.232 182.299 282.048C181.979 281.864 181.615 281.772 181.207 281.772C180.799 281.772 180.435 281.864 180.115 282.048C179.795 282.232 179.539 282.492 179.347 282.828C179.155 283.156 179.059 283.548 179.059 284.004C179.059 284.452 179.155 284.848 179.347 285.192C179.539 285.528 179.795 285.788 180.115 285.972C180.435 286.156 180.799 286.248 181.207 286.248ZM188.284 287.256C187.644 287.256 187.148 287.084 186.796 286.74C186.444 286.396 186.268 285.904 186.268 285.264V279.432H187.42V285.216C187.42 285.56 187.504 285.824 187.672 286.008C187.848 286.192 188.096 286.284 188.416 286.284C188.776 286.284 189.076 286.184 189.316 285.984L189.676 286.812C189.5 286.964 189.288 287.076 189.04 287.148C188.8 287.22 188.548 287.256 188.284 287.256ZM185.188 281.772V280.824H189.244V281.772H185.188ZM194.465 280.764C194.985 280.764 195.441 280.864 195.833 281.064C196.233 281.264 196.545 281.568 196.769 281.976C196.993 282.384 197.105 282.9 197.105 283.524V287.184H195.953V283.656C195.953 283.04 195.801 282.576 195.497 282.264C195.201 281.952 194.781 281.796 194.237 281.796C193.829 281.796 193.473 281.876 193.169 282.036C192.865 282.196 192.629 282.432 192.461 282.744C192.301 283.056 192.221 283.444 192.221 283.908V287.184H191.069V278.28H192.221V282.54L191.993 282.084C192.201 281.668 192.521 281.344 192.953 281.112C193.385 280.88 193.889 280.764 194.465 280.764ZM202.069 287.256C201.389 287.256 200.789 287.116 200.269 286.836C199.757 286.556 199.357 286.172 199.069 285.684C198.789 285.196 198.649 284.636 198.649 284.004C198.649 283.372 198.785 282.812 199.057 282.324C199.337 281.836 199.717 281.456 200.197 281.184C200.685 280.904 201.233 280.764 201.841 280.764C202.457 280.764 203.001 280.9 203.473 281.172C203.945 281.444 204.313 281.828 204.577 282.324C204.849 282.812 204.985 283.384 204.985 284.04C204.985 284.088 204.981 284.144 204.973 284.208C204.973 284.272 204.969 284.332 204.961 284.388H199.549V283.56H204.361L203.893 283.848C203.901 283.44 203.817 283.076 203.641 282.756C203.465 282.436 203.221 282.188 202.909 282.012C202.605 281.828 202.249 281.736 201.841 281.736C201.441 281.736 201.085 281.828 200.773 282.012C200.461 282.188 200.217 282.44 200.041 282.768C199.865 283.088 199.777 283.456 199.777 283.872V284.064C199.777 284.488 199.873 284.868 200.065 285.204C200.265 285.532 200.541 285.788 200.893 285.972C201.245 286.156 201.649 286.248 202.105 286.248C202.481 286.248 202.821 286.184 203.125 286.056C203.437 285.928 203.709 285.736 203.941 285.48L204.577 286.224C204.289 286.56 203.929 286.816 203.497 286.992C203.073 287.168 202.597 287.256 202.069 287.256ZM206.584 287.184V280.824H207.688V282.552L207.58 282.12C207.756 281.68 208.052 281.344 208.468 281.112C208.884 280.88 209.396 280.764 210.004 280.764V281.88C209.956 281.872 209.908 281.868 209.86 281.868C209.82 281.868 209.78 281.868 209.74 281.868C209.124 281.868 208.636 282.052 208.276 282.42C207.916 282.788 207.736 283.32 207.736 284.016V287.184H206.584ZM213.318 287.256C212.79 287.256 212.286 287.184 211.806 287.04C211.334 286.896 210.962 286.72 210.69 286.512L211.17 285.6C211.442 285.784 211.778 285.94 212.178 286.068C212.578 286.196 212.986 286.26 213.402 286.26C213.938 286.26 214.322 286.184 214.554 286.032C214.794 285.88 214.914 285.668 214.914 285.396C214.914 285.196 214.842 285.04 214.698 284.928C214.554 284.816 214.362 284.732 214.122 284.676C213.89 284.62 213.63 284.572 213.342 284.532C213.054 284.484 212.766 284.428 212.478 284.364C212.19 284.292 211.926 284.196 211.686 284.076C211.446 283.948 211.254 283.776 211.11 283.56C210.966 283.336 210.894 283.04 210.894 282.672C210.894 282.288 211.002 281.952 211.218 281.664C211.434 281.376 211.738 281.156 212.13 281.004C212.53 280.844 213.002 280.764 213.546 280.764C213.962 280.764 214.382 280.816 214.806 280.92C215.238 281.016 215.59 281.156 215.862 281.34L215.37 282.252C215.082 282.06 214.782 281.928 214.47 281.856C214.158 281.784 213.846 281.748 213.534 281.748C213.03 281.748 212.654 281.832 212.406 282C212.158 282.16 212.034 282.368 212.034 282.624C212.034 282.84 212.106 283.008 212.25 283.128C212.402 283.24 212.594 283.328 212.826 283.392C213.066 283.456 213.33 283.512 213.618 283.56C213.906 283.6 214.194 283.656 214.482 283.728C214.77 283.792 215.03 283.884 215.262 284.004C215.502 284.124 215.694 284.292 215.838 284.508C215.99 284.724 216.066 285.012 216.066 285.372C216.066 285.756 215.954 286.088 215.73 286.368C215.506 286.648 215.19 286.868 214.782 287.028C214.374 287.18 213.886 287.256 213.318 287.256ZM217.506 287.184V280.824H218.658V287.184H217.506ZM218.082 279.6C217.858 279.6 217.67 279.528 217.518 279.384C217.374 279.24 217.302 279.064 217.302 278.856C217.302 278.64 217.374 278.46 217.518 278.316C217.67 278.172 217.858 278.1 218.082 278.1C218.306 278.1 218.49 278.172 218.634 278.316C218.786 278.452 218.862 278.624 218.862 278.832C218.862 279.048 218.79 279.232 218.646 279.384C218.502 279.528 218.314 279.6 218.082 279.6ZM223.042 287.256C222.402 287.256 221.906 287.084 221.554 286.74C221.202 286.396 221.026 285.904 221.026 285.264V279.432H222.178V285.216C222.178 285.56 222.262 285.824 222.43 286.008C222.606 286.192 222.854 286.284 223.174 286.284C223.534 286.284 223.834 286.184 224.074 285.984L224.434 286.812C224.258 286.964 224.046 287.076 223.798 287.148C223.558 287.22 223.306 287.256 223.042 287.256ZM219.946 281.772V280.824H224.002V281.772H219.946ZM228.447 287.256C227.767 287.256 227.167 287.116 226.647 286.836C226.135 286.556 225.735 286.172 225.447 285.684C225.167 285.196 225.027 284.636 225.027 284.004C225.027 283.372 225.163 282.812 225.435 282.324C225.715 281.836 226.095 281.456 226.575 281.184C227.063 280.904 227.611 280.764 228.219 280.764C228.835 280.764 229.379 280.9 229.851 281.172C230.323 281.444 230.691 281.828 230.955 282.324C231.227 282.812 231.363 283.384 231.363 284.04C231.363 284.088 231.359 284.144 231.351 284.208C231.351 284.272 231.347 284.332 231.339 284.388H225.927V283.56H230.739L230.271 283.848C230.279 283.44 230.195 283.076 230.019 282.756C229.843 282.436 229.599 282.188 229.287 282.012C228.983 281.828 228.627 281.736 228.219 281.736C227.819 281.736 227.463 281.828 227.151 282.012C226.839 282.188 226.595 282.44 226.419 282.768C226.243 283.088 226.155 283.456 226.155 283.872V284.064C226.155 284.488 226.251 284.868 226.443 285.204C226.643 285.532 226.919 285.788 227.271 285.972C227.623 286.156 228.027 286.248 228.483 286.248C228.859 286.248 229.199 286.184 229.503 286.056C229.815 285.928 230.087 285.736 230.319 285.48L230.955 286.224C230.667 286.56 230.307 286.816 229.875 286.992C229.451 287.168 228.975 287.256 228.447 287.256ZM234.787 287.256C234.259 287.256 233.755 287.184 233.275 287.04C232.803 286.896 232.431 286.72 232.159 286.512L232.639 285.6C232.911 285.784 233.247 285.94 233.647 286.068C234.047 286.196 234.455 286.26 234.871 286.26C235.407 286.26 235.791 286.184 236.023 286.032C236.263 285.88 236.383 285.668 236.383 285.396C236.383 285.196 236.311 285.04 236.167 284.928C236.023 284.816 235.831 284.732 235.591 284.676C235.359 284.62 235.099 284.572 234.811 284.532C234.523 284.484 234.235 284.428 233.947 284.364C233.659 284.292 233.395 284.196 233.155 284.076C232.915 283.948 232.723 283.776 232.579 283.56C232.435 283.336 232.363 283.04 232.363 282.672C232.363 282.288 232.471 281.952 232.687 281.664C232.903 281.376 233.207 281.156 233.599 281.004C233.999 280.844 234.471 280.764 235.015 280.764C235.431 280.764 235.851 280.816 236.275 280.92C236.707 281.016 237.059 281.156 237.331 281.34L236.839 282.252C236.551 282.06 236.251 281.928 235.939 281.856C235.627 281.784 235.315 281.748 235.003 281.748C234.499 281.748 234.123 281.832 233.875 282C233.627 282.16 233.503 282.368 233.503 282.624C233.503 282.84 233.575 283.008 233.719 283.128C233.871 283.24 234.063 283.328 234.295 283.392C234.535 283.456 234.799 283.512 235.087 283.56C235.375 283.6 235.663 283.656 235.951 283.728C236.239 283.792 236.499 283.884 236.731 284.004C236.971 284.124 237.163 284.292 237.307 284.508C237.459 284.724 237.535 285.012 237.535 285.372C237.535 285.756 237.423 286.088 237.199 286.368C236.975 286.648 236.659 286.868 236.251 287.028C235.843 287.18 235.355 287.256 234.787 287.256ZM239.251 287.256C239.027 287.256 238.835 287.18 238.675 287.028C238.515 286.868 238.435 286.668 238.435 286.428C238.435 286.188 238.515 285.992 238.675 285.84C238.835 285.688 239.027 285.612 239.251 285.612C239.467 285.612 239.651 285.688 239.803 285.84C239.963 285.992 240.043 286.188 240.043 286.428C240.043 286.668 239.963 286.868 239.803 287.028C239.651 287.18 239.467 287.256 239.251 287.256ZM244.325 287.256C243.677 287.256 243.097 287.116 242.585 286.836C242.081 286.556 241.685 286.172 241.397 285.684C241.109 285.196 240.965 284.636 240.965 284.004C240.965 283.372 241.109 282.812 241.397 282.324C241.685 281.836 242.081 281.456 242.585 281.184C243.097 280.904 243.677 280.764 244.325 280.764C244.901 280.764 245.413 280.88 245.861 281.112C246.317 281.336 246.669 281.672 246.917 282.12L246.041 282.684C245.833 282.372 245.577 282.144 245.273 282C244.977 281.848 244.657 281.772 244.313 281.772C243.897 281.772 243.525 281.864 243.197 282.048C242.869 282.232 242.609 282.492 242.417 282.828C242.225 283.156 242.129 283.548 242.129 284.004C242.129 284.46 242.225 284.856 242.417 285.192C242.609 285.528 242.869 285.788 243.197 285.972C243.525 286.156 243.897 286.248 244.313 286.248C244.657 286.248 244.977 286.176 245.273 286.032C245.577 285.88 245.833 285.648 246.041 285.336L246.917 285.888C246.669 286.328 246.317 286.668 245.861 286.908C245.413 287.14 244.901 287.256 244.325 287.256ZM251.039 287.256C250.399 287.256 249.831 287.116 249.335 286.836C248.839 286.556 248.447 286.172 248.159 285.684C247.871 285.188 247.727 284.628 247.727 284.004C247.727 283.372 247.871 282.812 248.159 282.324C248.447 281.836 248.839 281.456 249.335 281.184C249.831 280.904 250.399 280.764 251.039 280.764C251.671 280.764 252.235 280.904 252.731 281.184C253.235 281.456 253.627 281.836 253.907 282.324C254.195 282.804 254.339 283.364 254.339 284.004C254.339 284.636 254.195 285.196 253.907 285.684C253.627 286.172 253.235 286.556 252.731 286.836C252.235 287.116 251.671 287.256 251.039 287.256ZM251.039 286.248C251.447 286.248 251.811 286.156 252.131 285.972C252.459 285.788 252.715 285.528 252.899 285.192C253.083 284.848 253.175 284.452 253.175 284.004C253.175 283.548 253.083 283.156 252.899 282.828C252.715 282.492 252.459 282.232 252.131 282.048C251.811 281.864 251.447 281.772 251.039 281.772C250.631 281.772 250.267 281.864 249.947 282.048C249.627 282.232 249.371 282.492 249.179 282.828C248.987 283.156 248.891 283.548 248.891 284.004C248.891 284.452 248.987 284.848 249.179 285.192C249.371 285.528 249.627 285.788 249.947 285.972C250.267 286.156 250.631 286.248 251.039 286.248ZM263.888 280.764C264.4 280.764 264.852 280.864 265.244 281.064C265.636 281.264 265.94 281.568 266.156 281.976C266.38 282.384 266.492 282.9 266.492 283.524V287.184H265.34V283.656C265.34 283.04 265.196 282.576 264.908 282.264C264.62 281.952 264.216 281.796 263.696 281.796C263.312 281.796 262.976 281.876 262.688 282.036C262.4 282.196 262.176 282.432 262.016 282.744C261.864 283.056 261.788 283.444 261.788 283.908V287.184H260.636V283.656C260.636 283.04 260.492 282.576 260.204 282.264C259.924 281.952 259.52 281.796 258.992 281.796C258.616 281.796 258.284 281.876 257.996 282.036C257.708 282.196 257.484 282.432 257.324 282.744C257.164 283.056 257.084 283.444 257.084 283.908V287.184H255.932V280.824H257.036V282.516L256.856 282.084C257.056 281.668 257.364 281.344 257.78 281.112C258.196 280.88 258.68 280.764 259.232 280.764C259.84 280.764 260.364 280.916 260.804 281.22C261.244 281.516 261.532 281.968 261.668 282.576L261.2 282.384C261.392 281.896 261.728 281.504 262.208 281.208C262.688 280.912 263.248 280.764 263.888 280.764Z" fill="#636A79"/>
<rect x="143.02" y="302.184" width="188.979" height="7" rx="3.5" fill="#F1F2F4"/>
<rect x="143.02" y="315.184" width="167" height="7" rx="3.5" fill="#F1F2F4"/>
</g>
<path d="M414.5 -10.9349L380.5 117.272M380.5 117.272L518.5 -20L567.5 86.5M380.5 117.272L689.5 281.5L567.5 86.5M380.5 117.272L486.5 316.5M380.5 117.272H363M486.5 316.5L567.5 86.5M486.5 316.5L774 82.3065L608.489 -20L567.5 86.5" stroke="#EAEAEA"/>
<rect x="474" y="304" width="27" height="27" rx="13.5" fill="white"/>
<circle cx="487.5" cy="317.5" r="9" fill="#E5E5E5"/>
<rect x="550" y="72" width="36" height="36" rx="18" fill="white"/>
<circle cx="568" cy="90" r="13.5" fill="#E5E5E5"/>
<rect x="664" y="273" width="36" height="36" rx="18" fill="white"/>
<circle cx="682" cy="291" r="13.5" fill="#D9D9D9"/>
<rect x="369" y="104" width="27" height="27" rx="13.5" fill="white"/>
<circle cx="382.5" cy="117.5" r="9" fill="#E5E5E5"/>
<g filter="url(#filter5_d_2755_159214)">
<rect x="326.601" y="243.4" width="148" height="148" rx="74" transform="rotate(1.0478 326.601 243.4)" fill="#F8F8F8"/>
<rect x="326.601" y="243.4" width="148" height="148" rx="74" transform="rotate(1.0478 326.601 243.4)" stroke="#E5E5E5" stroke-width="11"/>
<rect x="341.816" y="259.18" width="117" height="117" rx="58.5" transform="rotate(1.0478 341.816 259.18)" fill="white"/>
<g clip-path="url(#clip2_2755_159214)">
<path d="M375.417 327.17L372.256 338.159L361.44 338.19C358.318 332.138 356.611 325.247 356.744 317.96C356.873 310.914 358.708 304.3 361.853 298.505L361.855 298.505L371.449 300.446L375.491 310.091C374.561 312.648 374.029 315.401 373.977 318.275C373.92 321.394 374.43 324.393 375.417 327.17Z" fill="#FBBB00"/>
<path d="M441.133 311.563C441.574 314.142 441.78 316.802 441.73 319.515C441.674 322.557 441.3 325.519 440.638 328.37C438.392 338.073 432.831 346.479 425.234 352.362L425.231 352.359L413.118 351.519L411.598 340.775C416.62 337.953 420.586 333.464 422.731 328.042L400.009 327.627L400.316 310.816L423.37 311.238L441.133 311.563Z" fill="#518EF8"/>
<path d="M425.229 352.359L425.232 352.361C417.843 358.081 408.528 361.414 398.458 361.23C382.276 360.934 368.372 351.632 361.438 338.19L375.415 327.17C378.828 336.813 387.942 343.799 398.773 343.997C403.429 344.082 407.813 342.904 411.596 340.775L425.229 352.359Z" fill="#28B446"/>
<path d="M426.955 286.524L412.983 297.542C409.154 295.05 404.601 293.568 399.696 293.478C388.62 293.275 379.078 300.233 375.488 310.092L361.852 298.506L361.85 298.505C369.171 285 383.588 275.945 400.011 276.245C410.322 276.434 419.708 280.279 426.955 286.524Z" fill="#F14336"/>
</g>
<path d="M438.426 388.969L420.319 396.381L427.975 415.282L446.618 407.622L438.426 388.969Z" fill="#E5E5E5"/>
<path d="M493.132 490.475C497.477 500.19 492.719 511.646 482.617 515.782C472.516 519.916 461.083 515.086 457.379 505.109L432.638 438.622L430.549 432.972L424.249 416.033L449.33 405.767L456.715 422.262L459.186 427.756L493.132 490.475Z" fill="#E5E5E5"/>
</g>
</g>
<defs>
<filter id="filter0_d_2755_159214" x="12.4652" y="-12.8498" width="447.919" height="452.103" filterUnits="userSpaceOnUse" color-interpolation-filters="sRGB">
<feFlood flood-opacity="0" result="BackgroundImageFix"/>
<feColorMatrix in="SourceAlpha" type="matrix" values="0 0 0 0 0 0 0 0 0 0 0 0 0 0 0 0 0 0 127 0" result="hardAlpha"/>
<feOffset dx="23.4249" dy="28.1099"/>
<feGaussianBlur stdDeviation="37.4798"/>
<feComposite in2="hardAlpha" operator="out"/>
<feColorMatrix type="matrix" values="0 0 0 0 0 0 0 0 0 0 0 0 0 0 0 0 0 0 0.06 0"/>
<feBlend mode="normal" in2="BackgroundImageFix" result="effect1_dropShadow_2755_159214"/>
<feBlend mode="normal" in="SourceGraphic" in2="effect1_dropShadow_2755_159214" result="shape"/>
</filter>
<filter id="filter1_d_2755_159214" x="28.4652" y="3.15021" width="189.099" height="189.103" filterUnits="userSpaceOnUse" color-interpolation-filters="sRGB">
<feFlood flood-opacity="0" result="BackgroundImageFix"/>
<feColorMatrix in="SourceAlpha" type="matrix" values="0 0 0 0 0 0 0 0 0 0 0 0 0 0 0 0 0 0 127 0" result="hardAlpha"/>
<feOffset dx="23.4249" dy="28.1099"/>
<feGaussianBlur stdDeviation="37.4798"/>
<feComposite in2="hardAlpha" operator="out"/>
<feColorMatrix type="matrix" values="0 0 0 0 0 0 0 0 0 0 0 0 0 0 0 0 0 0 0.06 0"/>
<feBlend mode="normal" in2="BackgroundImageFix" result="effect1_dropShadow_2755_159214"/>
<feBlend mode="normal" in="SourceGraphic" in2="effect1_dropShadow_2755_159214" result="shape"/>
</filter>
<filter id="filter2_d_2755_159214" x="28.4652" y="58.3338" width="186.939" height="186.939" filterUnits="userSpaceOnUse" color-interpolation-filters="sRGB">
<feFlood flood-opacity="0" result="BackgroundImageFix"/>
<feColorMatrix in="SourceAlpha" type="matrix" values="0 0 0 0 0 0 0 0 0 0 0 0 0 0 0 0 0 0 127 0" result="hardAlpha"/>
<feOffset dx="23.4249" dy="28.1099"/>
<feGaussianBlur stdDeviation="37.4798"/>
<feComposite in2="hardAlpha" operator="out"/>
<feColorMatrix type="matrix" values="0 0 0 0 0 0 0 0 0 0 0 0 0 0 0 0 0 0 0.06 0"/>
<feBlend mode="normal" in2="BackgroundImageFix" result="effect1_dropShadow_2755_159214"/>
<feBlend mode="normal" in="SourceGraphic" in2="effect1_dropShadow_2755_159214" result="shape"/>
</filter>
<filter id="filter3_d_2755_159214" x="28.4652" y="139.334" width="186.939" height="186.939" filterUnits="userSpaceOnUse" color-interpolation-filters="sRGB">
<feFlood flood-opacity="0" result="BackgroundImageFix"/>
<feColorMatrix in="SourceAlpha" type="matrix" values="0 0 0 0 0 0 0 0 0 0 0 0 0 0 0 0 0 0 127 0" result="hardAlpha"/>
<feOffset dx="23.4249" dy="28.1099"/>
<feGaussianBlur stdDeviation="37.4798"/>
<feComposite in2="hardAlpha" operator="out"/>
<feColorMatrix type="matrix" values="0 0 0 0 0 0 0 0 0 0 0 0 0 0 0 0 0 0 0.06 0"/>
<feBlend mode="normal" in2="BackgroundImageFix" result="effect1_dropShadow_2755_159214"/>
<feBlend mode="normal" in="SourceGraphic" in2="effect1_dropShadow_2755_159214" result="shape"/>
</filter>
<filter id="filter4_d_2755_159214" x="28.4652" y="220.334" width="186.939" height="186.939" filterUnits="userSpaceOnUse" color-interpolation-filters="sRGB">
<feFlood flood-opacity="0" result="BackgroundImageFix"/>
<feColorMatrix in="SourceAlpha" type="matrix" values="0 0 0 0 0 0 0 0 0 0 0 0 0 0 0 0 0 0 127 0" result="hardAlpha"/>
<feOffset dx="23.4249" dy="28.1099"/>
<feGaussianBlur stdDeviation="37.4798"/>
<feComposite in2="hardAlpha" operator="out"/>
<feColorMatrix type="matrix" values="0 0 0 0 0 0 0 0 0 0 0 0 0 0 0 0 0 0 0.06 0"/>
<feBlend mode="normal" in2="BackgroundImageFix" result="effect1_dropShadow_2755_159214"/>
<feBlend mode="normal" in="SourceGraphic" in2="effect1_dropShadow_2755_159214" result="shape"/>
</filter>
<filter id="filter5_d_2755_159214" x="268.2" y="192.392" width="324.927" height="427.939" filterUnits="userSpaceOnUse" color-interpolation-filters="sRGB">
<feFlood flood-opacity="0" result="BackgroundImageFix"/>
<feColorMatrix in="SourceAlpha" type="matrix" values="0 0 0 0 0 0 0 0 0 0 0 0 0 0 0 0 0 0 127 0" result="hardAlpha"/>
<feOffset dx="23.4249" dy="28.1099"/>
<feGaussianBlur stdDeviation="37.4798"/>
<feComposite in2="hardAlpha" operator="out"/>
<feColorMatrix type="matrix" values="0 0 0 0 0 0 0 0 0 0 0 0 0 0 0 0 0 0 0.06 0"/>
<feBlend mode="normal" in2="BackgroundImageFix" result="effect1_dropShadow_2755_159214"/>
<feBlend mode="normal" in="SourceGraphic" in2="effect1_dropShadow_2755_159214" result="shape"/>
</filter>
<linearGradient id="paint0_linear_2755_159214" x1="182.307" y1="67.6414" x2="320.082" y2="327.246" gradientUnits="userSpaceOnUse">
<stop stop-color="white"/>
<stop offset="1" stop-color="white" stop-opacity="0"/>
</linearGradient>
<clipPath id="clip0_2755_159214">
<rect width="672" height="667" rx="16" fill="white"/>
</clipPath>
<clipPath id="clip1_2755_159214">
<rect width="22.4848" height="22.4848" fill="white" transform="translate(88.5547 58.1445) rotate(1.0478)"/>
</clipPath>
<clipPath id="clip2_2755_159214">
<rect width="85" height="85" fill="white" transform="translate(357.52 275.469) rotate(1.0478)"/>
</clipPath>
</defs>
</svg>
