<svg width="421" height="353" viewBox="0 0 421 353" fill="none" xmlns="http://www.w3.org/2000/svg">
<g clip-path="url(#clip0_145_10564)">
<g opacity="0.5">
<rect opacity="0.27" x="93.5928" y="123.459" width="38.9257" height="40.9531" fill="url(#paint0_radial_145_10564)"/>
<rect opacity="0.27" x="249.701" y="164.817" width="38.9257" height="40.9531" fill="url(#paint1_radial_145_10564)"/>
<rect opacity="0.27" x="327.552" y="0.599854" width="38.9257" height="40.9531" fill="url(#paint2_radial_145_10564)"/>
<rect opacity="0.27" x="327.552" y="82.769" width="38.9257" height="40.9531" fill="url(#paint3_radial_145_10564)"/>
<rect opacity="0.27" x="250.217" y="42.1677" width="38.9257" height="40.9531" fill="url(#paint4_radial_145_10564)"/>
<path d="M-23.3984 -36.2986L-23.3984 288.893M15.6054 -36.2986L15.6054 288.893M54.6092 -36.2986L54.6092 288.893M93.613 -36.2986L93.6129 288.893M132.617 -36.2986L132.617 288.893M171.621 -36.2986L171.621 288.893M210.624 -36.2986L210.624 288.893M249.628 -36.2986L249.628 288.893M288.632 -36.2986L288.632 288.893M327.636 -36.2986L327.636 288.893M366.639 -36.2986L366.639 288.893M405.643 -36.2986V288.893M444.647 -36.2986V288.893M483.651 -36.2986V288.893M522.655 -36.2986V288.893M561.658 -36.2986V288.893M600.662 -36.2986V288.893M607.736 1.19269H-23.5896M607.736 42.0923H-23.5896M607.736 82.9918H-23.5896M607.736 123.891H-23.5896M607.736 164.791H-23.5896M607.736 205.691H-23.5896M607.736 246.59H-23.5896M607.736 287.49H-23.5896" stroke="url(#paint5_radial_145_10564)" stroke-width="0.405476"/>
</g>
<rect x="249.357" y="42.4659" width="40.0682" height="40.0682" rx="8.53409" fill="url(#paint6_linear_145_10564)"/>
<rect x="249.357" y="42.4659" width="40.0682" height="40.0682" rx="8.53409" stroke="#FDD426" stroke-width="0.931818"/>
<path d="M274.367 56.406C274.146 56.406 273.93 56.4716 273.746 56.5944C273.562 56.7173 273.419 56.8919 273.334 57.0962C273.25 57.3006 273.227 57.5254 273.271 57.7423C273.314 57.9592 273.42 58.1585 273.577 58.3148C273.733 58.4712 273.932 58.5777 274.149 58.6209C274.366 58.664 274.591 58.6419 274.795 58.5572C275 58.4726 275.174 58.3293 275.297 58.1454C275.42 57.9615 275.486 57.7453 275.486 57.5242C275.486 57.2276 275.368 56.9432 275.158 56.7335C274.948 56.5238 274.664 56.406 274.367 56.406ZM278.654 58.661C278.636 57.8878 278.491 57.1229 278.225 56.3967C277.988 55.7753 277.619 55.2126 277.144 54.7473C276.683 54.2697 276.119 53.9033 275.495 53.6757C274.77 53.4019 274.005 53.2538 273.231 53.2378C272.243 53.1819 271.926 53.1819 269.391 53.1819C266.857 53.1819 266.54 53.1819 265.552 53.2378C264.778 53.2538 264.012 53.4019 263.288 53.6757C262.665 53.9056 262.102 54.2717 261.639 54.7473C261.161 55.2088 260.795 55.7727 260.567 56.3967C260.293 57.121 260.145 57.8868 260.129 58.661C260.073 59.6487 260.073 59.9655 260.073 62.5001C260.073 65.0346 260.073 65.3514 260.129 66.3392C260.145 67.1134 260.293 67.8791 260.567 68.6035C260.795 69.2274 261.161 69.7914 261.639 70.2528C262.102 70.7284 262.665 71.0946 263.288 71.3244C264.012 71.5982 264.778 71.7463 265.552 71.7623C266.54 71.8182 266.857 71.8182 269.391 71.8182C271.926 71.8182 272.243 71.8182 273.231 71.7623C274.005 71.7463 274.77 71.5982 275.495 71.3244C276.119 71.0969 276.683 70.7304 277.144 70.2528C277.621 69.7893 277.991 69.2261 278.225 68.6035C278.491 67.8772 278.636 67.1123 278.654 66.3392C278.654 65.3514 278.71 65.0346 278.71 62.5001C278.71 59.9655 278.71 59.6487 278.654 58.661ZM276.976 66.2273C276.97 66.8188 276.863 67.4049 276.66 67.9605C276.511 68.366 276.272 68.7325 275.961 69.0321C275.659 69.3401 275.293 69.5786 274.889 69.731C274.334 69.9339 273.747 70.041 273.156 70.0478C272.224 70.0944 271.879 70.1037 269.429 70.1037C266.978 70.1037 266.633 70.1037 265.701 70.0478C265.087 70.0593 264.476 69.9647 263.894 69.7682C263.508 69.608 263.159 69.3702 262.869 69.0694C262.559 68.77 262.323 68.4033 262.179 67.9978C261.952 67.4342 261.825 66.8348 261.806 66.2273C261.806 65.2955 261.751 64.9507 261.751 62.5001C261.751 60.0494 261.751 59.7046 261.806 58.7728C261.811 58.1681 261.921 57.5688 262.133 57.0023C262.297 56.609 262.548 56.2584 262.869 55.9773C263.152 55.657 263.502 55.4025 263.894 55.2319C264.462 55.0269 265.06 54.9198 265.664 54.9151C266.596 54.9151 266.941 54.8592 269.391 54.8592C271.842 54.8592 272.187 54.8592 273.119 54.9151C273.71 54.9219 274.296 55.029 274.852 55.2319C275.275 55.389 275.655 55.6445 275.961 55.9773C276.266 56.2636 276.505 56.6135 276.66 57.0023C276.867 57.5698 276.974 58.1688 276.976 58.7728C277.023 59.7046 277.032 60.0494 277.032 62.5001C277.032 64.9507 277.023 65.2955 276.976 66.2273ZM269.391 57.7198C268.446 57.7217 267.523 58.0036 266.738 58.53C265.953 59.0564 265.342 59.8036 264.982 60.6772C264.621 61.5508 264.528 62.5117 264.714 63.4383C264.899 64.365 265.355 65.2159 266.024 65.8835C266.693 66.5511 267.545 67.0054 268.472 67.1891C269.399 67.3728 270.359 67.2776 271.232 66.9155C272.105 66.5534 272.851 65.9407 273.376 65.1548C273.901 64.3689 274.181 63.4451 274.181 62.5001C274.182 61.8712 274.059 61.2483 273.819 60.6671C273.578 60.086 273.225 59.5581 272.78 59.1139C272.335 58.6696 271.807 58.3178 271.225 58.0785C270.643 57.8393 270.02 57.7174 269.391 57.7198ZM269.391 65.603C268.778 65.603 268.178 65.421 267.668 65.0801C267.157 64.7391 266.76 64.2545 266.525 63.6875C266.29 63.1205 266.228 62.4966 266.348 61.8947C266.468 61.2928 266.763 60.7399 267.197 60.3059C267.631 59.872 268.184 59.5765 268.786 59.4567C269.388 59.337 270.012 59.3985 270.579 59.6333C271.146 59.8682 271.63 60.2659 271.971 60.7762C272.312 61.2864 272.494 61.8864 272.494 62.5001C272.494 62.9076 272.414 63.311 272.258 63.6875C272.102 64.064 271.874 64.4061 271.586 64.6942C271.297 64.9823 270.955 65.2109 270.579 65.3668C270.202 65.5228 269.799 65.603 269.391 65.603Z" fill="#FDD426"/>
<rect x="328.124" y="82.4571" width="39.31" height="39.31" rx="8.54291" fill="url(#paint7_linear_145_10564)"/>
<rect x="328.124" y="82.4571" width="39.31" height="39.31" rx="8.54291" stroke="#FDD426" stroke-width="0.914186"/>
<path d="M350.632 96.0058H352.35V93.0987C351.518 93.0122 350.682 92.9695 349.845 92.9707C347.359 92.9707 345.658 94.4883 345.658 97.2674V99.6626H342.852V102.917H345.658V111.254H349.023V102.917H351.82L352.24 99.6626H349.023V97.5874C349.023 96.6275 349.279 96.0058 350.632 96.0058Z" fill="#FDD426"/>
<g clip-path="url(#clip1_145_10564)">
<path d="M356.667 15.2024C355.952 15.5141 355.196 15.7213 354.423 15.8175C355.238 15.3338 355.848 14.5678 356.136 13.6646C355.373 14.1174 354.537 14.4363 353.666 14.6075C353.132 14.0372 352.439 13.6407 351.677 13.4696C350.914 13.2985 350.118 13.3605 349.391 13.6478C348.665 13.935 348.041 14.4341 347.602 15.0803C347.163 15.7264 346.928 16.4897 346.928 17.271C346.928 17.5798 346.954 17.8767 347.019 18.1593C345.469 18.0833 343.953 17.6811 342.569 16.979C341.186 16.277 339.966 15.2908 338.99 14.085C338.49 14.9422 338.335 15.9578 338.557 16.925C338.78 17.8922 339.363 18.7383 340.187 19.291C339.57 19.2744 338.967 19.1099 338.427 18.8112V18.854C338.428 19.7534 338.739 20.625 339.307 21.3221C339.876 22.0192 340.667 22.4992 341.548 22.6813C341.215 22.7691 340.871 22.8122 340.526 22.8095C340.279 22.8139 340.032 22.7916 339.789 22.743C340.041 23.5161 340.526 24.1922 341.178 24.6781C341.83 25.1641 342.616 25.436 343.429 25.4565C342.05 26.5348 340.35 27.1197 338.599 27.1178C338.28 27.1178 337.973 27.1035 337.667 27.0643C339.448 28.2121 341.524 28.8193 343.642 28.8123C350.81 28.8123 354.729 22.8748 354.729 17.7282C354.729 17.556 354.723 17.3898 354.715 17.2247C355.483 16.6749 356.145 15.9896 356.667 15.2024Z" fill="#FDD426"/>
</g>
</g>
<defs>
<radialGradient id="paint0_radial_145_10564" cx="0" cy="0" r="1" gradientUnits="userSpaceOnUse" gradientTransform="translate(113.143 124.241) rotate(90.1245) scale(40.1716 38.1833)">
<stop stop-color="#FFD10D"/>
<stop offset="1" stop-color="#998326" stop-opacity="0.24"/>
</radialGradient>
<radialGradient id="paint1_radial_145_10564" cx="0" cy="0" r="1" gradientUnits="userSpaceOnUse" gradientTransform="translate(269.251 165.599) rotate(90.1245) scale(40.1716 38.1833)">
<stop stop-color="#FFD10D"/>
<stop offset="1" stop-color="#998326" stop-opacity="0.24"/>
</radialGradient>
<radialGradient id="paint2_radial_145_10564" cx="0" cy="0" r="1" gradientUnits="userSpaceOnUse" gradientTransform="translate(347.103 1.3814) rotate(90.1245) scale(40.1716 38.1833)">
<stop stop-color="#FFD10D"/>
<stop offset="1" stop-color="#998326" stop-opacity="0.24"/>
</radialGradient>
<radialGradient id="paint3_radial_145_10564" cx="0" cy="0" r="1" gradientUnits="userSpaceOnUse" gradientTransform="translate(347.103 83.5506) rotate(90.1245) scale(40.1716 38.1833)">
<stop stop-color="#FFD10D"/>
<stop offset="1" stop-color="#998326" stop-opacity="0.24"/>
</radialGradient>
<radialGradient id="paint4_radial_145_10564" cx="0" cy="0" r="1" gradientUnits="userSpaceOnUse" gradientTransform="translate(269.767 42.9493) rotate(90.1245) scale(40.1716 38.1833)">
<stop stop-color="#FFD10D"/>
<stop offset="1" stop-color="#998326" stop-opacity="0.24"/>
</radialGradient>
<radialGradient id="paint5_radial_145_10564" cx="0" cy="0" r="1" gradientUnits="userSpaceOnUse" gradientTransform="translate(288.83 88.9935) rotate(89.0703) scale(199.926 388.134)">
<stop stop-color="#FFCF01" stop-opacity="0.54"/>
<stop offset="1" stop-opacity="0.24"/>
</radialGradient>
<linearGradient id="paint6_linear_145_10564" x1="289.891" y1="57.3067" x2="248.891" y2="57.3067" gradientUnits="userSpaceOnUse">
<stop stop-color="#FDD426" stop-opacity="0.38"/>
<stop offset="1" stop-color="#FDD426" stop-opacity="0.16"/>
</linearGradient>
<linearGradient id="paint7_linear_145_10564" x1="367.891" y1="97.017" x2="327.667" y2="97.017" gradientUnits="userSpaceOnUse">
<stop stop-color="#FDD426" stop-opacity="0.38"/>
<stop offset="1" stop-color="#FDD426" stop-opacity="0.16"/>
</linearGradient>
<clipPath id="clip0_145_10564">
<rect x="0.333496" width="421" height="353" rx="12" fill="white"/>
</clipPath>
<clipPath id="clip1_145_10564">
<rect width="19" height="19" fill="white" transform="translate(337.667 11)"/>
</clipPath>
</defs>
</svg>
