<svg width="187" height="249" viewBox="0 0 187 249" fill="none" xmlns="http://www.w3.org/2000/svg">
<g clip-path="url(#clip0_1598_15138)">
<path fill-rule="evenodd" clip-rule="evenodd" d="M57.2158 76.6227L19.0724 76.4727C14.0144 76.4526 9.17144 74.4241 5.60892 70.8334C2.04639 67.2428 0.056066 62.384 0.0757394 57.326L0.225767 19.1825C0.245883 14.1245 2.27437 9.28155 5.86503 5.71903C9.45569 2.15651 14.3144 0.16618 19.3725 0.185854L57.5159 0.335882C62.574 0.355777 67.4171 2.38419 70.9797 5.9749C74.5422 9.5656 76.5325 14.4245 76.5126 19.4826L76.3626 57.626C76.3427 62.6841 74.3143 67.5272 70.7235 71.0898C67.1328 74.6523 62.274 76.6426 57.2158 76.6227Z" fill="#FF2D20"/>
<path fill-rule="evenodd" clip-rule="evenodd" d="M35.9758 21.7072L57.4315 21.7916C60.1817 21.8022 62.831 20.7563 64.8323 18.8698C66.8335 16.9832 68.0338 14.4002 68.1854 11.6542C68.3369 8.90811 67.4281 6.20871 65.6466 4.11344C63.8651 2.01818 61.347 0.687073 58.6123 0.395026C58.2476 0.373328 57.8866 0.33734 57.5159 0.335882L19.3725 0.185854C14.3144 0.16618 9.45569 2.15651 5.86503 5.71903C2.27437 9.28155 0.245883 14.1245 0.225767 19.1825L0.0757393 57.326C0.113263 47.842 3.91661 38.7614 10.6491 32.0817C17.3817 25.4019 26.4919 21.6701 35.9758 21.7072Z" fill="url(#paint0_linear_1598_15138)"/>
<path fill-rule="evenodd" clip-rule="evenodd" d="M57.3678 38.4793C53.5958 38.4645 49.9041 39.5685 46.7595 41.6518C43.6149 43.7351 41.1587 46.7041 39.7015 50.1833C38.2443 53.6625 37.8516 57.4957 38.5729 61.1982C39.2942 64.9006 41.0973 68.306 43.754 70.9837C46.4107 73.6615 49.8019 75.4912 53.4985 76.2417C57.1952 76.9921 61.0313 76.6295 64.5219 75.1997C68.0125 73.7699 71.0007 71.3372 73.1087 68.2091C75.2166 65.081 76.3497 61.3981 76.3645 57.6261L76.5145 19.4826C76.4946 24.5408 74.4662 29.3838 70.8755 32.9464C67.2848 36.509 62.4259 38.4992 57.3678 38.4793Z" fill="url(#paint1_linear_1598_15138)"/>
<path fill-rule="evenodd" clip-rule="evenodd" d="M57.3678 38.4793C53.5958 38.4645 49.9041 39.5685 46.7595 41.6518C43.6149 43.7351 41.1587 46.7041 39.7015 50.1833C38.2443 53.6625 37.8516 57.4957 38.5729 61.1982C39.2942 64.9006 41.0973 68.306 43.754 70.9837C46.4107 73.6615 49.8019 75.4912 53.4985 76.2417C57.1952 76.9921 61.0313 76.6295 64.5219 75.1997C68.0125 73.7699 71.0007 71.3372 73.1087 68.2091C75.2166 65.081 76.3497 61.3981 76.3645 57.6261L76.5145 19.4826C76.4946 24.5408 74.4662 29.3838 70.8755 32.9464C67.2848 36.509 62.4259 38.4992 57.3678 38.4793Z" fill="url(#paint2_linear_1598_15138)"/>
<g clip-path="url(#clip1_1598_15138)">
<path d="M59.9063 27.1819C59.9212 27.2362 59.9287 27.2923 59.9289 27.3485V36.0955C59.9289 36.2078 59.899 36.3181 59.8422 36.4152C59.7855 36.5124 59.7038 36.5929 59.6056 36.6488L52.2003 40.8756V49.2535C52.2003 49.4815 52.078 49.6919 51.8786 49.8067L36.4206 58.6287C36.3852 58.6486 36.3466 58.6614 36.308 58.6749C36.2935 58.6797 36.2799 58.6885 36.2646 58.6924C36.1565 58.7207 36.0429 58.7207 35.9349 58.6924C35.9172 58.6877 35.9011 58.6781 35.8842 58.6717C35.8488 58.659 35.8118 58.6478 35.7781 58.6287L20.3233 49.8067C20.2251 49.7508 20.1435 49.6702 20.0868 49.5731C20.03 49.476 20.0001 49.3657 20 49.2535V23.0125C20 22.9551 20.008 22.8993 20.0225 22.8451C20.0273 22.8268 20.0386 22.81 20.045 22.7917C20.0571 22.7582 20.0684 22.7239 20.086 22.6928C20.0981 22.6721 20.1158 22.6554 20.1303 22.6362C20.1488 22.6107 20.1657 22.5844 20.1874 22.5621C20.2059 22.5437 20.23 22.5302 20.2509 22.5142C20.2742 22.4951 20.2951 22.4744 20.3217 22.4592L28.0503 18.0483C28.1481 17.9925 28.259 17.9631 28.3719 17.9631C28.4848 17.9631 28.5957 17.9925 28.6936 18.0483L36.4214 22.4592H36.423C36.4487 22.4752 36.4704 22.4951 36.4938 22.5134C36.5147 22.5294 36.538 22.5437 36.5565 22.5613C36.579 22.5844 36.5951 22.6107 36.6144 22.6362C36.628 22.6554 36.6465 22.6721 36.6578 22.6928C36.6763 22.7247 36.6868 22.7582 36.6996 22.7917C36.706 22.81 36.7173 22.8268 36.7221 22.8459C36.7369 22.9002 36.7445 22.9562 36.7446 23.0125V39.4023L43.1842 35.7264V27.3477C43.1842 27.2919 43.1923 27.2353 43.2067 27.1819C43.2124 27.1628 43.2228 27.146 43.2292 27.1277C43.2421 27.0942 43.2534 27.0599 43.2711 27.0288C43.2831 27.0081 43.3008 26.9914 43.3145 26.9722C43.3338 26.9467 43.3499 26.9204 43.3724 26.8981C43.3909 26.8798 43.4142 26.8662 43.4351 26.8503C43.4592 26.8311 43.4801 26.8104 43.5059 26.7953L51.2353 22.3843C51.3331 22.3284 51.444 22.299 51.5569 22.299C51.6699 22.299 51.7808 22.3284 51.8786 22.3843L59.6064 26.7953C59.6337 26.8112 59.6547 26.8311 59.6788 26.8495C59.6989 26.8654 59.7222 26.8798 59.7407 26.8973C59.7632 26.9204 59.7793 26.9467 59.7986 26.9722C59.8131 26.9914 59.8308 27.0081 59.842 27.0288C59.8605 27.0599 59.871 27.0942 59.8838 27.1277C59.8911 27.146 59.9015 27.1628 59.9063 27.1819ZM58.6406 35.7264V28.4527L55.9363 29.9961L52.2003 32.1286V39.4023L58.6414 35.7264H58.6406ZM50.9128 48.8844V41.6058L47.2379 43.6866L36.7438 49.6242V56.9713L50.9128 48.8844ZM21.2882 24.1166V48.8844L35.4556 56.9705V49.625L28.0543 45.4723L28.0519 45.4707L28.0487 45.4691C28.0237 45.4548 28.0028 45.434 27.9795 45.4165C27.9594 45.4006 27.9361 45.3878 27.9184 45.3703L27.9168 45.3679C27.8959 45.3479 27.8814 45.3232 27.8637 45.3009C27.8476 45.2794 27.8283 45.261 27.8155 45.2387L27.8147 45.2363C27.8002 45.2124 27.7913 45.1837 27.7809 45.1566C27.7704 45.1327 27.7568 45.1104 27.7503 45.0849C27.7423 45.0546 27.7407 45.0219 27.7375 44.9908C27.7342 44.9669 27.7278 44.943 27.7278 44.919V27.7926L23.9926 25.6592L21.2882 24.1166ZM28.3727 19.3382L21.934 23.0125L28.3711 26.6868L34.8091 23.0117L28.3711 19.3382H28.3727ZM31.7212 42.2691L35.4564 40.1374V24.1166L32.7521 25.66L29.016 27.7926V43.8133L31.7212 42.2691ZM51.5569 23.6742L45.119 27.3485L51.5569 31.0229L57.9941 27.3477L51.5569 23.6742ZM50.9128 32.1286L47.1768 29.9961L44.4725 28.4527V35.7264L48.2077 37.8582L50.9128 39.4023V32.1286ZM36.0989 48.52L45.542 43.1755L50.2623 40.5049L43.8291 36.8329L36.4222 41.0605L29.6714 44.9135L36.0989 48.52Z" fill="white"/>
</g>
</g>
<g clip-path="url(#clip2_1598_15138)">
<path fill-rule="evenodd" clip-rule="evenodd" d="M167.63 130.013L129.486 129.863C124.428 129.843 119.586 127.815 116.023 124.224C112.46 120.634 110.47 115.775 110.49 110.717L110.64 72.5733C110.66 67.5152 112.688 62.6723 116.279 59.1098C119.87 55.5473 124.728 53.5569 129.787 53.5766L167.93 53.7266C172.988 53.7465 177.831 55.7749 181.394 59.3656C184.956 62.9564 186.947 67.8152 186.927 72.8733L186.777 111.017C186.757 116.075 184.728 120.918 181.138 124.481C177.547 128.043 172.688 130.033 167.63 130.013Z" fill="#01579B"/>
<path fill-rule="evenodd" clip-rule="evenodd" d="M146.39 75.0979L167.846 75.1823C170.596 75.1929 173.245 74.147 175.246 72.2605C177.248 70.374 178.448 67.791 178.599 65.0449C178.751 62.2989 177.842 59.5995 176.061 57.5042C174.279 55.4089 171.761 54.0778 169.026 53.7858C168.662 53.7641 168.301 53.7281 167.93 53.7266L129.787 53.5766C124.728 53.5569 119.87 55.5473 116.279 59.1098C112.688 62.6723 110.66 67.5152 110.64 72.5733L110.49 110.717C110.527 101.233 114.331 92.1522 121.063 85.4724C127.796 78.7926 136.906 75.0608 146.39 75.0979Z" fill="url(#paint3_linear_1598_15138)"/>
<path fill-rule="evenodd" clip-rule="evenodd" d="M167.782 91.87C164.01 91.8552 160.318 92.9592 157.174 95.0425C154.029 97.1258 151.573 100.095 150.116 103.574C148.658 107.053 148.266 110.886 148.987 114.589C149.708 118.291 151.511 121.697 154.168 124.374C156.825 127.052 160.216 128.882 163.913 129.632C167.609 130.383 171.445 130.02 174.936 128.59C178.427 127.161 181.415 124.728 183.523 121.6C185.631 118.472 186.764 114.789 186.779 111.017L186.929 72.8734C186.909 77.9315 184.88 82.7745 181.29 86.3371C177.699 89.8997 172.84 91.8899 167.782 91.87Z" fill="url(#paint4_linear_1598_15138)"/>
<path fill-rule="evenodd" clip-rule="evenodd" d="M167.782 91.87C164.01 91.8552 160.318 92.9592 157.174 95.0425C154.029 97.1258 151.573 100.095 150.116 103.574C148.658 107.053 148.266 110.886 148.987 114.589C149.708 118.291 151.511 121.697 154.168 124.374C156.825 127.052 160.216 128.882 163.913 129.632C167.609 130.383 171.445 130.02 174.936 128.59C178.427 127.161 181.415 124.728 183.523 121.6C185.631 118.472 186.764 114.789 186.779 111.017L186.929 72.8734C186.909 77.9315 184.88 82.7745 181.29 86.3371C177.699 89.8997 172.84 91.8899 167.782 91.87Z" fill="url(#paint5_linear_1598_15138)"/>
<path d="M172 92.3322C172 89.251 168.101 86.3309 162.123 84.5201C163.502 78.4903 162.889 73.693 160.188 72.1571C159.565 71.7968 158.837 71.6262 158.042 71.6262V73.7404C158.482 73.7404 158.837 73.8257 159.134 73.9869C160.437 74.7264 161.002 77.5422 160.561 81.1639C160.456 82.0551 160.284 82.9937 160.073 83.9512C158.195 83.4961 156.145 83.1454 153.989 82.9178C152.696 81.1639 151.355 79.5711 150.004 78.1774C153.127 75.3047 156.059 73.7309 158.051 73.7309V71.6167C155.417 71.6167 151.968 73.4749 148.481 76.6984C144.994 73.4939 141.545 71.6546 138.91 71.6546V73.7688C140.893 73.7688 143.834 75.3332 146.958 78.1869C145.616 79.5806 144.275 81.1639 143.001 82.9178C140.836 83.1454 138.786 83.4961 136.908 83.9607C136.688 83.0126 136.525 82.093 136.41 81.2113C135.96 77.5896 136.515 74.7738 137.809 74.0248C138.096 73.8542 138.47 73.7783 138.91 73.7783V71.6641C138.106 71.6641 137.377 71.8348 136.745 72.195C134.053 73.7309 133.45 78.5187 134.839 84.5295C128.88 86.3499 125 89.2605 125 92.3322C125 95.4135 128.899 98.3336 134.877 100.144C133.498 106.174 134.111 110.971 136.812 112.507C137.435 112.868 138.163 113.038 138.968 113.038C141.602 113.038 145.051 111.18 148.538 107.957C152.025 111.161 155.474 113 158.109 113C158.914 113 159.642 112.83 160.274 112.469C162.966 110.934 163.57 106.146 162.18 100.135C168.12 98.3241 172 95.404 172 92.3322ZM159.527 86.0086C159.172 87.2316 158.732 88.4925 158.233 89.7535C157.841 88.995 157.429 88.2365 156.978 87.4781C156.538 86.7196 156.068 85.9801 155.599 85.2596C156.959 85.4587 158.272 85.7052 159.527 86.0086ZM155.139 96.1056C154.392 97.3855 153.625 98.5991 152.83 99.7273C151.403 99.8505 149.956 99.9169 148.5 99.9169C147.053 99.9169 145.607 99.8505 144.189 99.7367C143.394 98.6085 142.618 97.4045 141.871 96.134C141.142 94.8921 140.481 93.6311 139.878 92.3607C140.472 91.0903 141.142 89.8198 141.861 88.5778C142.608 87.2979 143.375 86.0844 144.17 84.9562C145.597 84.8329 147.044 84.7666 148.5 84.7666C149.947 84.7666 151.393 84.8329 152.811 84.9467C153.606 86.0749 154.382 87.279 155.129 88.5494C155.858 89.7914 156.519 91.0523 157.122 92.3228C156.519 93.5932 155.858 94.8636 155.139 96.1056ZM158.233 94.8731C158.751 96.1435 159.191 97.414 159.555 98.6465C158.3 98.9498 156.978 99.2058 155.608 99.4049C156.078 98.6749 156.547 97.9259 156.988 97.158C157.429 96.3995 157.841 95.6316 158.233 94.8731ZM148.519 104.989C147.628 104.079 146.737 103.065 145.856 101.955C146.718 101.993 147.599 102.022 148.49 102.022C149.391 102.022 150.282 102.003 151.154 101.955C150.291 103.065 149.401 104.079 148.519 104.989ZM141.392 99.4049C140.031 99.2058 138.719 98.9593 137.464 98.6559C137.818 97.4329 138.259 96.172 138.757 94.911C139.15 95.6695 139.562 96.428 140.012 97.1864C140.462 97.9449 140.922 98.6844 141.392 99.4049ZM148.471 79.6754C149.362 80.5855 150.253 81.6 151.135 82.7092C150.272 82.6713 149.391 82.6429 148.5 82.6429C147.599 82.6429 146.709 82.6618 145.837 82.7092C146.699 81.6 147.59 80.5855 148.471 79.6754ZM141.382 85.2596C140.913 85.9896 140.443 86.7386 140.002 87.5065C139.562 88.265 139.15 89.0234 138.757 89.7819C138.24 88.5115 137.799 87.2411 137.435 86.0086C138.69 85.7146 140.012 85.4587 141.382 85.2596ZM132.712 97.1295C129.321 95.6979 127.127 93.8207 127.127 92.3322C127.127 90.8438 129.321 88.9571 132.712 87.535C133.536 87.1842 134.436 86.8713 135.366 86.5774C135.912 88.4356 136.63 90.3697 137.521 92.3512C136.64 94.3232 135.931 96.2478 135.394 98.0966C134.446 97.8027 133.545 97.4803 132.712 97.1295ZM137.866 110.678C136.563 109.938 135.998 107.122 136.439 103.501C136.544 102.609 136.716 101.671 136.927 100.713C138.805 101.168 140.855 101.519 143.011 101.747C144.304 103.501 145.645 105.093 146.996 106.487C143.873 109.36 140.941 110.934 138.949 110.934C138.518 110.924 138.153 110.839 137.866 110.678ZM160.59 103.453C161.04 107.075 160.485 109.891 159.191 110.64C158.904 110.81 158.53 110.886 158.09 110.886C156.107 110.886 153.166 109.322 150.042 106.468C151.384 105.074 152.725 103.491 153.999 101.737C156.164 101.51 158.214 101.159 160.092 100.694C160.312 101.652 160.485 102.572 160.59 103.453ZM164.278 97.1295C163.455 97.4803 162.554 97.7932 161.625 98.0871C161.079 96.2289 160.36 94.2948 159.469 92.3133C160.351 90.3413 161.06 88.4167 161.596 86.5679C162.544 86.8618 163.445 87.1842 164.288 87.535C167.679 88.9666 169.873 90.8438 169.873 92.3322C169.864 93.8207 167.67 95.7074 164.278 97.1295Z" fill="white"/>
<path d="M148.491 96.665C150.909 96.665 152.869 94.7251 152.869 92.3322C152.869 89.9393 150.909 87.9995 148.491 87.9995C146.073 87.9995 144.113 89.9393 144.113 92.3322C144.113 94.7251 146.073 96.665 148.491 96.665Z" fill="white"/>
</g>
<g clip-path="url(#clip3_1598_15138)">
<path fill-rule="evenodd" clip-rule="evenodd" d="M59.4854 186.124L21.342 185.974C16.2839 185.953 11.441 183.925 7.87845 180.334C4.31592 176.744 2.3256 171.885 2.34527 166.827L2.4953 128.683C2.51541 123.625 4.5439 118.782 8.13456 115.22C11.7252 111.657 16.584 109.667 21.642 109.687L59.7854 109.837C64.8436 109.857 69.6866 111.885 73.2492 115.476C76.8118 119.067 78.802 123.925 78.7821 128.984L78.6321 167.127C78.6122 172.185 76.5838 177.028 72.9931 180.591C69.4024 184.153 64.5435 186.144 59.4854 186.124Z" fill="#C8A81F"/>
<path fill-rule="evenodd" clip-rule="evenodd" d="M38.2454 131.208L59.701 131.292C62.4513 131.303 65.1006 130.257 67.1018 128.371C69.103 126.484 70.3034 123.901 70.4549 121.155C70.6065 118.409 69.6976 115.71 67.9162 113.614C66.1347 111.519 63.6165 110.188 60.8818 109.896C60.5172 109.874 60.1561 109.838 59.7854 109.837L21.642 109.687C16.584 109.667 11.7252 111.657 8.13456 115.22C4.5439 118.782 2.51541 123.625 2.4953 128.683L2.34527 166.827C2.38279 157.343 6.18614 148.262 12.9187 141.583C19.6512 134.903 28.7614 131.171 38.2454 131.208Z" fill="url(#paint6_linear_1598_15138)"/>
<path fill-rule="evenodd" clip-rule="evenodd" d="M59.6373 147.98C55.8653 147.965 52.1736 149.069 49.029 151.153C45.8844 153.236 43.4283 156.205 41.9711 159.684C40.5139 163.163 40.1211 166.997 40.8424 170.699C41.5638 174.402 43.3668 177.807 46.0235 180.485C48.6803 183.162 52.0714 184.992 55.768 185.743C59.4647 186.493 63.3009 186.13 66.7914 184.701C70.282 183.271 73.2702 180.838 75.3782 177.71C77.4861 174.582 78.6192 170.899 78.634 167.127L78.784 128.984C78.7642 134.042 76.7357 138.885 73.145 142.447C69.5543 146.01 64.6955 148 59.6373 147.98Z" fill="url(#paint7_linear_1598_15138)"/>
<g clip-path="url(#clip4_1598_15138)">
<path d="M39.2228 128.858C39.1391 128.866 38.8725 128.892 38.6326 128.911C33.0992 129.41 27.9162 132.396 24.6335 136.985C22.8056 139.536 21.6365 142.431 21.1947 145.496C21.0386 146.566 21.0195 146.882 21.0195 148.333C21.0195 149.784 21.0386 150.1 21.1947 151.17C22.2534 158.486 27.4592 164.632 34.5197 166.91C35.784 167.317 37.1169 167.595 38.6326 167.763C39.2228 167.828 41.7743 167.828 42.3646 167.763C44.9809 167.473 47.1972 166.826 49.3832 165.71C49.7183 165.539 49.783 165.493 49.7373 165.455C49.7069 165.432 48.2788 163.517 46.5651 161.201L43.45 156.993L39.5465 151.216C37.3987 148.04 35.6317 145.443 35.6164 145.443C35.6012 145.439 35.586 148.006 35.5784 151.14C35.5669 156.628 35.5631 156.848 35.4946 156.978C35.3956 157.165 35.3194 157.241 35.1595 157.325C35.0376 157.385 34.931 157.397 34.3559 157.397H33.6971L33.5219 157.286C33.4077 157.214 33.3239 157.119 33.2668 157.008L33.1868 156.837L33.1944 149.202L33.2058 141.562L33.3239 141.414C33.3848 141.334 33.5143 141.231 33.6057 141.181C33.7618 141.105 33.8228 141.098 34.4816 141.098C35.2585 141.098 35.388 141.128 35.5898 141.349C35.6469 141.41 37.7605 144.594 40.2891 148.429C42.8178 152.263 46.2757 157.5 47.9741 160.07L51.0588 164.743L51.2149 164.64C52.5973 163.741 54.0597 162.462 55.2174 161.129C57.6813 158.299 59.2693 154.849 59.8025 151.17C59.9586 150.1 59.9776 149.784 59.9776 148.333C59.9776 146.882 59.9586 146.566 59.8025 145.496C58.7438 138.181 53.5379 132.034 46.4775 129.757C45.2322 129.353 43.9069 129.075 42.4217 128.908C42.0561 128.869 39.5389 128.828 39.2228 128.858ZM47.1973 140.641C47.38 140.732 47.5286 140.907 47.5819 141.09C47.6123 141.189 47.62 143.306 47.6123 148.078L47.6009 154.925L46.3937 153.075L45.1827 151.224V146.246C45.1827 143.028 45.1979 141.22 45.2208 141.132C45.2817 140.919 45.415 140.751 45.5978 140.652C45.7539 140.572 45.8111 140.565 46.4089 140.565C46.9726 140.565 47.0716 140.572 47.1973 140.641Z" fill="white"/>
<path d="M50.8698 164.827C50.7366 164.91 50.6947 164.968 50.8127 164.903C50.8965 164.853 51.0336 164.751 51.0108 164.747C50.9993 164.747 50.9346 164.785 50.8698 164.827ZM50.6071 164.998C50.5385 165.051 50.5385 165.055 50.6223 165.013C50.668 164.99 50.7061 164.964 50.7061 164.956C50.7061 164.926 50.6871 164.933 50.6071 164.998ZM50.4167 165.112C50.3481 165.166 50.3481 165.169 50.4319 165.128C50.4776 165.105 50.5157 165.078 50.5157 165.07C50.5157 165.04 50.4966 165.048 50.4167 165.112ZM50.2263 165.227C50.1577 165.28 50.1577 165.284 50.2415 165.242C50.2872 165.219 50.3253 165.192 50.3253 165.185C50.3253 165.154 50.3062 165.162 50.2263 165.227ZM49.9368 165.379C49.7921 165.455 49.7997 165.485 49.9444 165.413C50.0092 165.379 50.0587 165.345 50.0587 165.337C50.0587 165.31 50.0549 165.314 49.9368 165.379Z" fill="white"/>
</g>
</g>
<g clip-path="url(#clip5_1598_15138)">
<path fill-rule="evenodd" clip-rule="evenodd" d="M167.63 248.234L129.486 248.084C124.428 248.064 119.586 246.035 116.023 242.445C112.46 238.854 110.47 233.995 110.49 228.937L110.64 190.794C110.66 185.736 112.688 180.893 116.279 177.33C119.87 173.768 124.728 171.777 129.787 171.797L167.93 171.947C172.988 171.967 177.831 173.995 181.394 177.586C184.956 181.177 186.947 186.036 186.927 191.094L186.777 229.237C186.757 234.295 184.728 239.138 181.138 242.701C177.547 246.263 172.688 248.254 167.63 248.234Z" fill="#01579B"/>
<path fill-rule="evenodd" clip-rule="evenodd" d="M146.39 193.318L167.846 193.403C170.596 193.413 173.245 192.367 175.246 190.481C177.248 188.594 178.448 186.011 178.599 183.265C178.751 180.519 177.842 177.82 176.061 175.725C174.279 173.629 171.761 172.298 169.026 172.006C168.662 171.984 168.301 171.948 167.93 171.947L129.787 171.797C124.728 171.777 119.87 173.768 116.279 177.33C112.688 180.893 110.66 185.736 110.64 190.794L110.49 228.937C110.527 219.453 114.331 210.373 121.063 203.693C127.796 197.013 136.906 193.281 146.39 193.318Z" fill="url(#paint8_linear_1598_15138)"/>
<path fill-rule="evenodd" clip-rule="evenodd" d="M167.782 210.09C164.01 210.076 160.318 211.18 157.174 213.263C154.029 215.346 151.573 218.315 150.116 221.794C148.658 225.274 148.266 229.107 148.987 232.809C149.708 236.512 151.511 239.917 154.168 242.595C156.825 245.273 160.216 247.102 163.913 247.853C167.609 248.603 171.445 248.241 174.936 246.811C178.427 245.381 181.415 242.948 183.523 239.82C185.631 236.692 186.764 233.009 186.779 229.237L186.929 191.094C186.909 196.152 184.88 200.995 181.29 204.557C177.699 208.12 172.84 210.11 167.782 210.09Z" fill="url(#paint9_linear_1598_15138)"/>
<path fill-rule="evenodd" clip-rule="evenodd" d="M167.782 210.09C164.01 210.076 160.318 211.18 157.174 213.263C154.029 215.346 151.573 218.315 150.116 221.794C148.658 225.274 148.266 229.107 148.987 232.809C149.708 236.512 151.511 239.917 154.168 242.595C156.825 245.273 160.216 247.102 163.913 247.853C167.609 248.603 171.445 248.241 174.936 246.811C178.427 245.381 181.415 242.948 183.523 239.82C185.631 236.692 186.764 233.009 186.779 229.237L186.929 191.094C186.909 196.152 184.88 200.995 181.29 204.557C177.699 208.12 172.84 210.11 167.782 210.09Z" fill="url(#paint10_linear_1598_15138)"/>
<path d="M150.408 190.378L130.304 210.324L136.288 216.356L162.423 190.425L150.408 190.378Z" fill="white"/>
<path d="M162.353 208.448L151.296 219.418L145.312 213.387L150.338 208.401L162.353 208.448Z" fill="white"/>
<path d="M145.308 213.388L139.277 219.371L145.261 225.402L151.291 219.418L145.308 213.388Z" fill="white"/>
<path d="M162.266 230.475L150.252 230.428L145.265 225.402L151.296 219.419L162.266 230.475Z" fill="white"/>
<path d="M145.265 225.402L154.288 222.434L151.296 219.419L145.265 225.402Z" fill="#084994"/>
</g>
<defs>
<linearGradient id="paint0_linear_1598_15138" x1="34.2723" y1="0.244459" x2="34.0472" y2="57.4596" gradientUnits="userSpaceOnUse">
<stop stop-color="#FFAFAA"/>
<stop offset="1" stop-color="#FF2D20"/>
</linearGradient>
<linearGradient id="paint1_linear_1598_15138" x1="57.4428" y1="19.4076" x2="57.2178" y2="76.6228" gradientUnits="userSpaceOnUse">
<stop stop-color="#FDD426"/>
<stop offset="1" stop-color="#FDD426" stop-opacity="0.65"/>
</linearGradient>
<linearGradient id="paint2_linear_1598_15138" x1="57.4428" y1="19.4076" x2="57.2178" y2="76.6228" gradientUnits="userSpaceOnUse">
<stop stop-color="#FFECEB"/>
<stop offset="1" stop-color="#FF2D20"/>
</linearGradient>
<linearGradient id="paint3_linear_1598_15138" x1="144.686" y1="53.6352" x2="144.461" y2="110.85" gradientUnits="userSpaceOnUse">
<stop stop-color="#61DAFB"/>
<stop offset="1" stop-color="#01579B"/>
</linearGradient>
<linearGradient id="paint4_linear_1598_15138" x1="167.857" y1="72.7983" x2="167.632" y2="130.013" gradientUnits="userSpaceOnUse">
<stop stop-color="#FDD426"/>
<stop offset="1" stop-color="#FDD426" stop-opacity="0.65"/>
</linearGradient>
<linearGradient id="paint5_linear_1598_15138" x1="167.857" y1="72.7983" x2="167.632" y2="130.013" gradientUnits="userSpaceOnUse">
<stop stop-color="#61DAFB"/>
<stop offset="1" stop-color="#01579B"/>
</linearGradient>
<linearGradient id="paint6_linear_1598_15138" x1="36.5418" y1="109.745" x2="36.3168" y2="166.96" gradientUnits="userSpaceOnUse">
<stop stop-color="#FDD426"/>
<stop offset="1" stop-color="#C9A50C"/>
</linearGradient>
<linearGradient id="paint7_linear_1598_15138" x1="59.7123" y1="128.909" x2="59.4873" y2="186.124" gradientUnits="userSpaceOnUse">
<stop stop-color="#FDD426"/>
<stop offset="1" stop-color="#FDD426" stop-opacity="0.65"/>
</linearGradient>
<linearGradient id="paint8_linear_1598_15138" x1="144.686" y1="171.856" x2="144.461" y2="229.071" gradientUnits="userSpaceOnUse">
<stop stop-color="#40C4FF"/>
<stop offset="1" stop-color="#01579B"/>
</linearGradient>
<linearGradient id="paint9_linear_1598_15138" x1="167.857" y1="191.019" x2="167.632" y2="248.234" gradientUnits="userSpaceOnUse">
<stop stop-color="#FDD426"/>
<stop offset="1" stop-color="#FDD426" stop-opacity="0.65"/>
</linearGradient>
<linearGradient id="paint10_linear_1598_15138" x1="167.857" y1="191.019" x2="167.632" y2="248.234" gradientUnits="userSpaceOnUse">
<stop stop-color="#40C4FF"/>
<stop offset="1" stop-color="#01579B"/>
</linearGradient>
<clipPath id="clip0_1598_15138">
<rect width="76.2874" height="76.2874" fill="white" transform="translate(0.300781 0.11084) rotate(0.225358)"/>
</clipPath>
<clipPath id="clip1_1598_15138">
<rect width="40" height="41" fill="white" transform="translate(20 17.8276)"/>
</clipPath>
<clipPath id="clip2_1598_15138">
<rect width="76.2874" height="76.2874" fill="white" transform="translate(110.715 53.5016) rotate(0.225358)"/>
</clipPath>
<clipPath id="clip3_1598_15138">
<rect width="76.2874" height="76.2874" fill="white" transform="translate(2.57031 109.612) rotate(0.225358)"/>
</clipPath>
<clipPath id="clip4_1598_15138">
<rect width="39" height="39" fill="white" transform="translate(21 128.828)"/>
</clipPath>
<clipPath id="clip5_1598_15138">
<rect width="76.2874" height="76.2874" fill="white" transform="translate(110.715 171.722) rotate(0.225358)"/>
</clipPath>
</defs>
</svg>
